<?xml version="1.0" encoding="UTF-8" standalone="no"?>
<!DOCTYPE svg PUBLIC "-//W3C//DTD SVG 1.1//EN" "http://www.w3.org/Graphics/SVG/1.1/DTD/svg11.dtd">
<svg width="100%" height="100%" viewBox="0 0 3508 2481" version="1.1" xmlns="http://www.w3.org/2000/svg" xmlns:xlink="http://www.w3.org/1999/xlink" xml:space="preserve" xmlns:serif="http://www.serif.com/" style="fill-rule:evenodd;clip-rule:evenodd;stroke-linecap:round;stroke-linejoin:round;stroke-miterlimit:1.5;">
    <g transform="matrix(1.00311,0,0,0.990134,2.44874,-71.8485)">
        <rect x="274.257" y="668.141" width="2943.6" height="239.522" style="fill:none;stroke:rgb(255,0,0);stroke-width:2.09px;"/>
    </g>
    <g transform="matrix(0.999677,0.00556273,-0.0254105,0.218844,150.274,459.962)">
        <path d="M2004.49,1505.39L2007.64,1629.38" style="fill:none;stroke:black;stroke-width:2.95px;"/>
    </g>
    <g transform="matrix(1,0,0,1,143.782,-982.072)">
        <text x="1955.25px" y="1756.16px" style="font-family:'ArialMT', 'Arial', sans-serif;font-size:20.833px;">45c</text>
    </g>
    <g transform="matrix(1,0,0,1,108.044,-982.046)">
        <text x="1955.25px" y="1756.16px" style="font-family:'ArialMT', 'Arial', sans-serif;font-size:20.833px;">39c</text>
    </g>
    <g transform="matrix(1,0,0,1,109.549,-1001.38)">
        <text x="1955.25px" y="1756.16px" style="font-family:'ArialMT', 'Arial', sans-serif;font-size:20.833px;">51r</text>
    </g>
    <g transform="matrix(1,0,0,1,-682.158,-961.726)">
        <text x="1955.25px" y="1756.16px" style="font-family:'ArialMT', 'Arial', sans-serif;font-size:20.833px;">51r</text>
    </g>
    <g transform="matrix(1,0,0,1,-540.191,-1001.38)">
        <text x="1955.25px" y="1756.16px" style="font-family:'ArialMT', 'Arial', sans-serif;font-size:20.833px;">51l</text>
    </g>
    <g transform="matrix(1,0,0,1,253.304,-961.726)">
        <text x="1955.25px" y="1756.16px" style="font-family:'ArialMT', 'Arial', sans-serif;font-size:20.833px;">51l</text>
    </g>
    <g transform="matrix(1,0,0,1,182.44,-961.954)">
        <text x="1955.25px" y="1756.16px" style="font-family:'ArialMT', 'Arial', sans-serif;font-size:20.833px;">39l</text>
    </g>
    <g transform="matrix(1,0,0,1,-467.3,-983.311)">
        <text x="1955.25px" y="1756.16px" style="font-family:'ArialMT', 'Arial', sans-serif;font-size:20.833px;">39l</text>
    </g>
    <g transform="matrix(1,0,0,1,-611.062,-962.285)">
        <text x="1955.25px" y="1756.16px" style="font-family:'ArialMT', 'Arial', sans-serif;font-size:20.833px;">39r</text>
    </g>
    <g transform="matrix(1,0,0,1,38.678,-982.444)">
        <text x="1955.25px" y="1756.16px" style="font-family:'ArialMT', 'Arial', sans-serif;font-size:20.833px;">39r</text>
    </g>
    <g transform="matrix(1,0,0,1,-541.696,-983.24)">
        <text x="1955.25px" y="1756.16px" style="font-family:'ArialMT', 'Arial', sans-serif;font-size:20.833px;">39c</text>
    </g>
    <g transform="matrix(0.999677,0.00558633,-0.0254105,0.219772,-570.332,458.402)">
        <path d="M2004.49,1505.39L2007.64,1629.38" style="fill:none;stroke:black;stroke-width:2.95px;"/>
    </g>
    <g transform="matrix(0.999677,0.00558633,-0.0254105,0.219772,-499.466,458.402)">
        <path d="M2004.49,1505.39L2007.64,1629.38" style="fill:none;stroke:black;stroke-width:2.95px;"/>
    </g>
    <g transform="matrix(1,0,0,1,-576.824,-983.23)">
        <text x="1955.25px" y="1756.16px" style="font-family:'ArialMT', 'Arial', sans-serif;font-size:20.833px;">45c</text>
    </g>
    <g transform="matrix(1,0,0,1,-502.428,-983.301)">
        <text x="1955.25px" y="1756.16px" style="font-family:'ArialMT', 'Arial', sans-serif;font-size:20.833px;">45l</text>
    </g>
    <g transform="matrix(0.999677,0.00556273,-0.0254105,0.218844,79.4078,459.962)">
        <path d="M2004.49,1505.39L2007.64,1629.38" style="fill:none;stroke:black;stroke-width:2.95px;"/>
    </g>
    <g transform="matrix(0.999677,0.00558633,-0.0254105,0.219772,-428.6,458.402)">
        <path d="M2004.49,1505.39L2007.64,1629.38" style="fill:none;stroke:black;stroke-width:2.95px;"/>
    </g>
    <g transform="matrix(0.999677,0.00556273,-0.0254105,0.218844,114.841,459.962)">
        <path d="M2004.49,1505.39L2007.64,1629.38" style="fill:none;stroke:black;stroke-width:2.95px;"/>
    </g>
    <g transform="matrix(0.999677,0.00558633,-0.0254105,0.219772,-393.167,458.402)">
        <path d="M2004.49,1505.39L2007.64,1629.38" style="fill:none;stroke:black;stroke-width:2.95px;"/>
    </g>
    <g transform="matrix(0.999677,0.00556273,-0.0254105,0.218844,-26.8914,459.962)">
        <path d="M2004.49,1505.39L2007.64,1629.38" style="fill:none;stroke:black;stroke-width:2.95px;"/>
    </g>
    <g transform="matrix(0.999677,0.00558633,-0.0254105,0.219772,-534.899,458.402)">
        <path d="M2004.49,1505.39L2007.64,1629.38" style="fill:none;stroke:black;stroke-width:2.95px;"/>
    </g>
    <g transform="matrix(0.999677,0.00556273,-0.0254105,0.218844,43.9748,459.962)">
        <path d="M2004.49,1505.39L2007.64,1629.38" style="fill:none;stroke:black;stroke-width:2.95px;"/>
    </g>
    <g transform="matrix(0.999677,0.00558633,-0.0254105,0.219772,-605.765,458.402)">
        <path d="M2004.49,1505.39L2007.64,1629.38" style="fill:none;stroke:black;stroke-width:2.95px;"/>
    </g>
    <g transform="matrix(0.999677,0.00556273,-0.0254105,0.218844,185.707,459.962)">
        <path d="M2004.49,1505.39L2007.64,1629.38" style="fill:none;stroke:black;stroke-width:2.95px;"/>
    </g>
    <g transform="matrix(0.999677,0.00558633,-0.0254105,0.219772,-464.033,458.402)">
        <path d="M2004.49,1505.39L2007.64,1629.38" style="fill:none;stroke:black;stroke-width:2.95px;"/>
    </g>
    <g transform="matrix(1,0,0,1,75.4996,-982.629)">
        <text x="1955.25px" y="1756.16px" style="font-family:'ArialMT', 'Arial', sans-serif;font-size:20.833px;">45r</text>
    </g>
    <g transform="matrix(1,0,0,1,72.6106,-961.954)">
        <text x="1955.25px" y="1756.16px" style="font-family:'ArialMT', 'Arial', sans-serif;font-size:20.833px;">33c</text>
    </g>
    <g transform="matrix(1,0,0,1,3.24493,-961.833)">
        <text x="1955.25px" y="1756.16px" style="font-family:'ArialMT', 'Arial', sans-serif;font-size:20.833px;">33r</text>
    </g>
    <g transform="matrix(1,0,0,1,37.3004,-961.833)">
        <text x="1955.25px" y="1756.16px" style="font-family:'ArialMT', 'Arial', sans-serif;font-size:20.833px;">27c</text>
    </g>
    <g transform="matrix(1,0,0,1,-35.1677,-961.715)">
        <text x="1955.25px" y="1756.16px" style="font-family:'ArialMT', 'Arial', sans-serif;font-size:20.833px;">27r</text>
    </g>
    <g transform="matrix(1,0,0,1,-540.073,-962.02)">
        <text x="1955.25px" y="1756.16px" style="font-family:'ArialMT', 'Arial', sans-serif;font-size:20.833px;">27r</text>
    </g>
    <g transform="matrix(1,0,0,1,-470.707,-962.285)">
        <text x="1955.25px" y="1756.16px" style="font-family:'ArialMT', 'Arial', sans-serif;font-size:20.833px;">27c</text>
    </g>
    <g transform="matrix(1,0,0,1,-396.311,-962.02)">
        <text x="1955.25px" y="1756.16px" style="font-family:'ArialMT', 'Arial', sans-serif;font-size:20.833px;">27l</text>
    </g>
    <g transform="matrix(1,0,0,1,111.696,-961.425)">
        <text x="1955.25px" y="1756.16px" style="font-family:'ArialMT', 'Arial', sans-serif;font-size:20.833px;">27l</text>
    </g>
    <g transform="matrix(1,0,0,1,147.007,-961.954)">
        <text x="1955.25px" y="1756.16px" style="font-family:'ArialMT', 'Arial', sans-serif;font-size:20.833px;">33l</text>
    </g>
    <g transform="matrix(1,0,0,1,-506.263,-962.285)">
        <text x="1955.25px" y="1756.16px" style="font-family:'ArialMT', 'Arial', sans-serif;font-size:20.833px;">33c</text>
    </g>
    <g transform="matrix(1,0,0,1,-431.867,-962.285)">
        <text x="1955.25px" y="1756.16px" style="font-family:'ArialMT', 'Arial', sans-serif;font-size:20.833px;">33l</text>
    </g>
    <g transform="matrix(1,0,0,1,-575.629,-962.285)">
        <text x="1955.25px" y="1756.16px" style="font-family:'ArialMT', 'Arial', sans-serif;font-size:20.833px;">33r</text>
    </g>
    <g transform="matrix(0.999677,0.00556273,-0.0254105,0.218844,221.14,459.962)">
        <path d="M2004.49,1505.39L2007.64,1629.38" style="fill:none;stroke:black;stroke-width:2.95px;"/>
    </g>
    <g transform="matrix(0.999677,0.00556273,-0.0254105,0.218844,256.566,459.962)">
        <path d="M2004.49,1505.39L2007.64,1629.38" style="fill:none;stroke:black;stroke-width:2.95px;"/>
    </g>
    <g transform="matrix(0.999677,0.00556273,-0.0254105,0.218844,8.54168,459.962)">
        <path d="M2004.49,1505.39L2007.64,1629.38" style="fill:none;stroke:black;stroke-width:2.95px;"/>
    </g>
    <g transform="matrix(1,0,0,1,218.178,-961.944)">
        <text x="1955.25px" y="1756.16px" style="font-family:'ArialMT', 'Arial', sans-serif;font-size:20.833px;">45l</text>
    </g>
    <g transform="matrix(0.999677,0.00558633,-0.0254105,0.219772,-641.198,458.402)">
        <path d="M2004.49,1505.39L2007.64,1629.38" style="fill:none;stroke:black;stroke-width:2.95px;"/>
    </g>
    <g transform="matrix(0.999677,0.00558633,-0.0254105,0.219772,-676.866,458.402)">
        <path d="M2004.49,1505.39L2007.64,1629.38" style="fill:none;stroke:black;stroke-width:2.95px;"/>
    </g>
    <g transform="matrix(1,0,0,1,-646.19,-962.346)">
        <text x="1955.25px" y="1756.16px" style="font-family:'ArialMT', 'Arial', sans-serif;font-size:20.833px;">45r</text>
    </g>
    <g transform="matrix(0.619799,0,0,0.503586,-429.085,491.923)">
        <ellipse cx="1333.2" cy="431.77" rx="40.971" ry="50.426" style="fill:none;stroke:rgb(242,13,13);stroke-width:1.84px;"/>
    </g>
    <g transform="matrix(0.619799,0,0,0.503586,2284.66,491.923)">
        <ellipse cx="1333.2" cy="431.77" rx="40.971" ry="50.426" style="fill:none;stroke:rgb(242,13,13);stroke-width:1.84px;"/>
    </g>
    <g transform="matrix(0.985263,0,0,1.6294,904.441,-326.871)">
        <rect x="916.568" y="599.459" width="719.261" height="57.99" style="fill:none;stroke:rgb(13,40,242);stroke-width:1.55px;"/>
    </g>
    <g transform="matrix(0.985263,0,0,1.6294,88.6502,-326.871)">
        <rect x="916.568" y="599.459" width="719.261" height="57.99" style="fill:none;stroke:rgb(13,40,242);stroke-width:1.55px;"/>
    </g>
    <g transform="matrix(1.24222,0,0,0.879756,721.184,232.046)">
        <rect x="912.526" y="511.871" width="494.414" height="33.563" style="fill:none;stroke:rgb(242,13,13);stroke-width:0.93px;"/>
    </g>
    <g transform="matrix(0.703805,0,0,1,1127.1,50.3616)">
        <ellipse cx="1000.31" cy="646.77" rx="16.782" ry="12.264" style="fill:none;stroke:rgb(242,13,13);stroke-width:2.41px;"/>
    </g>
    <g transform="matrix(0.703805,0,0,1,1788.52,50.3616)">
        <ellipse cx="1000.31" cy="646.77" rx="16.782" ry="12.264" style="fill:none;stroke:rgb(242,13,13);stroke-width:2.41px;"/>
    </g>
    <g transform="matrix(1.24222,0,0,0.879756,-94.6071,232.046)">
        <rect x="912.526" y="511.871" width="494.414" height="33.563" style="fill:none;stroke:rgb(242,13,13);stroke-width:0.93px;"/>
    </g>
    <g transform="matrix(0.703805,0,0,1,311.312,50.3616)">
        <ellipse cx="1000.31" cy="646.77" rx="16.782" ry="12.264" style="fill:none;stroke:rgb(242,13,13);stroke-width:2.41px;"/>
    </g>
    <g transform="matrix(0.703805,0,0,1,972.729,50.3616)">
        <ellipse cx="1000.31" cy="646.77" rx="16.782" ry="12.264" style="fill:none;stroke:rgb(242,13,13);stroke-width:2.41px;"/>
    </g>
    <g transform="matrix(0.650628,0,0,1.19098,857.823,-211.366)">
        <rect x="2687.03" y="703.313" width="72.613" height="119.005" style="fill:none;stroke:rgb(255,0,0);stroke-width:2.17px;"/>
    </g>
    <g transform="matrix(1,0,0,1,-614.063,-983.23)">
        <text x="1955.25px" y="1756.16px" style="font-family:'ArialMT', 'Arial', sans-serif;font-size:20.833px;">51c</text>
    </g>
    <g transform="matrix(1,0,0,1,179.276,-982.23)">
        <text x="1955.25px" y="1756.16px" style="font-family:'ArialMT', 'Arial', sans-serif;font-size:20.833px;">51c</text>
    </g>
</svg>
