<?xml version="1.0" encoding="UTF-8" standalone="no"?>
<!DOCTYPE svg PUBLIC "-//W3C//DTD SVG 1.1//EN" "http://www.w3.org/Graphics/SVG/1.1/DTD/svg11.dtd">
<svg width="100%" height="100%" viewBox="0 0 3508 2481" version="1.1" xmlns="http://www.w3.org/2000/svg" xmlns:xlink="http://www.w3.org/1999/xlink" xml:space="preserve" xmlns:serif="http://www.serif.com/" style="fill-rule:evenodd;clip-rule:evenodd;stroke-linecap:round;stroke-linejoin:round;stroke-miterlimit:1.5;">
    <g transform="matrix(1.12569,0,0,5.1438,758.93,-2883.89)">
        <rect x="1041.66" y="733.621" width="482.645" height="91.847" style="fill:none;stroke:rgb(255,0,0);stroke-width:0.28px;"/>
    </g>
    <g transform="matrix(1.12569,0,0,5.1438,-139.538,-2883.89)">
        <rect x="1041.66" y="733.621" width="482.645" height="91.847" style="fill:none;stroke:rgb(255,0,0);stroke-width:0.28px;"/>
    </g>
    <g id="cutout-for-motors-of-wall" serif:id="cutout for motors of wall" transform="matrix(2.4813,0,0,0.522924,-721.287,1141.55)">
        <rect x="652.45" y="1024.27" width="690.202" height="406.557" style="fill:none;stroke:rgb(242,13,13);stroke-width:0.58px;"/>
    </g>
    <g transform="matrix(1.33653,0,0,1.10817,-645.004,-163.83)">
        <rect x="690.27" y="680.747" width="2209.28" height="1172.4" style="fill:none;stroke:rgb(242,13,13);stroke-width:0.85px;"/>
    </g>
    <g transform="matrix(0.619799,0,0,0.503586,-429.085,492.774)">
        <ellipse cx="1333.2" cy="431.77" rx="40.971" ry="50.426" style="fill:none;stroke:rgb(242,13,13);stroke-width:1.84px;"/>
    </g>
    <g transform="matrix(0.619799,0,0,0.503586,-429.085,1552.21)">
        <ellipse cx="1333.2" cy="431.77" rx="40.971" ry="50.426" style="fill:none;stroke:rgb(242,13,13);stroke-width:1.84px;"/>
    </g>
    <g transform="matrix(0.619799,0,0,0.503586,2284.66,1552.21)">
        <ellipse cx="1333.2" cy="431.77" rx="40.971" ry="50.426" style="fill:none;stroke:rgb(242,13,13);stroke-width:1.84px;"/>
    </g>
    <g transform="matrix(0.619799,0,0,0.503586,2284.66,492.774)">
        <ellipse cx="1333.2" cy="431.77" rx="40.971" ry="50.426" style="fill:none;stroke:rgb(242,13,13);stroke-width:1.84px;"/>
    </g>
    <g transform="matrix(1.05222,0,0,0.854926,-548.832,1182.32)">
        <ellipse cx="1333.2" cy="431.77" rx="40.971" ry="50.426" style="fill:none;stroke:rgb(242,13,13);stroke-width:1.09px;"/>
    </g>
    <g transform="matrix(1.05222,0,0,0.854926,-1041.18,1182.32)">
        <ellipse cx="1333.2" cy="431.77" rx="40.971" ry="50.426" style="fill:none;stroke:rgb(242,13,13);stroke-width:1.09px;"/>
    </g>
    <g transform="matrix(1.05222,0,0,0.854926,1250.52,1182.32)">
        <ellipse cx="1333.2" cy="431.77" rx="40.971" ry="50.426" style="fill:none;stroke:rgb(242,13,13);stroke-width:1.09px;"/>
    </g>
    <g transform="matrix(1.05222,0,0,0.854926,1742.55,1182.32)">
        <ellipse cx="1333.2" cy="431.77" rx="40.971" ry="50.426" style="fill:none;stroke:rgb(242,13,13);stroke-width:1.09px;"/>
    </g>
    <g transform="matrix(0.636484,0,0,0.821126,1478.18,877.506)">
        <ellipse cx="572.425" cy="737.665" rx="18.557" ry="14.384" style="fill:none;stroke:rgb(255,0,0);stroke-width:1.42px;"/>
    </g>
    <g transform="matrix(0.636484,0,0,0.821126,1478.18,954.278)">
        <ellipse cx="572.425" cy="737.665" rx="18.557" ry="14.384" style="fill:none;stroke:rgb(255,0,0);stroke-width:1.42px;"/>
    </g>
    <g transform="matrix(0.636484,0,0,0.821126,2092.25,877.506)">
        <ellipse cx="572.425" cy="737.665" rx="18.557" ry="14.384" style="fill:none;stroke:rgb(255,0,0);stroke-width:1.42px;"/>
    </g>
    <g transform="matrix(0.636484,0,0,0.821126,2092.25,954.278)">
        <ellipse cx="572.425" cy="737.665" rx="18.557" ry="14.384" style="fill:none;stroke:rgb(255,0,0);stroke-width:1.42px;"/>
    </g>
    <g transform="matrix(0.82474,0,0,1.10484,368.175,-351.256)">
        <ellipse cx="2839.59" cy="1910.48" rx="57.284" ry="42.761" style="fill:none;stroke:rgb(255,0,0);stroke-width:2.14px;"/>
    </g>
    <g transform="matrix(0.636484,0,0,0.821126,686.415,877.506)">
        <ellipse cx="572.425" cy="737.665" rx="18.557" ry="14.384" style="fill:none;stroke:rgb(255,0,0);stroke-width:1.42px;"/>
    </g>
    <g transform="matrix(0.636484,0,0,0.821126,686.415,954.278)">
        <ellipse cx="572.425" cy="737.665" rx="18.557" ry="14.384" style="fill:none;stroke:rgb(255,0,0);stroke-width:1.42px;"/>
    </g>
    <g transform="matrix(0.636484,0,0,0.821126,1301.02,877.506)">
        <ellipse cx="572.425" cy="737.665" rx="18.557" ry="14.384" style="fill:none;stroke:rgb(255,0,0);stroke-width:1.42px;"/>
    </g>
    <g transform="matrix(0.636484,0,0,0.821126,1301.02,954.278)">
        <ellipse cx="572.425" cy="737.665" rx="18.557" ry="14.384" style="fill:none;stroke:rgb(255,0,0);stroke-width:1.42px;"/>
    </g>
    <g transform="matrix(0.925781,0,0,1.07514,189.458,-120.698)">
        <rect x="853.636" y="694.76" width="1807.76" height="153.798"/>
    </g>
    <g transform="matrix(0.985263,0,0,1.6294,904.441,-326.871)">
        <rect x="916.568" y="599.459" width="719.261" height="57.99" style="fill:none;stroke:rgb(13,40,242);stroke-width:1.55px;"/>
    </g>
    <g transform="matrix(1.23267,0,0,0.879756,732.266,232.046)">
        <rect x="912.526" y="511.871" width="494.414" height="33.563" style="fill:none;stroke:rgb(13,40,242);stroke-width:0.93px;"/>
    </g>
    <g transform="matrix(0.985263,0,0,1.6294,88.6502,-326.871)">
        <rect x="916.568" y="599.459" width="719.261" height="57.99" style="fill:none;stroke:rgb(13,40,242);stroke-width:1.55px;"/>
    </g>
    <g transform="matrix(1.23267,0,0,0.879756,-83.5252,232.046)">
        <rect x="912.526" y="511.871" width="494.414" height="33.563" style="fill:none;stroke:rgb(13,40,242);stroke-width:0.93px;"/>
    </g>
</svg>
