<?xml version="1.0" encoding="UTF-8" standalone="no"?>
<!DOCTYPE svg PUBLIC "-//W3C//DTD SVG 1.1//EN" "http://www.w3.org/Graphics/SVG/1.1/DTD/svg11.dtd">
<svg width="297mm" height="210mm" viewBox="0 0 3508 2481" version="1.1" xmlns="http://www.w3.org/2000/svg" xmlns:xlink="http://www.w3.org/1999/xlink" xml:space="preserve" xmlns:serif="http://www.serif.com/" style="fill-rule:evenodd;clip-rule:evenodd;stroke-linecap:round;stroke-linejoin:round;stroke-miterlimit:1.5;">
    <g id="cutouts-for-wall-brackets" serif:id="cutouts for wall brackets" transform="matrix(1,0,0,0.542594,106.299,444.455)">
        <g transform="matrix(1.12569,0,0,9.48003,652.632,-5984.43)">
            <rect x="1041.66" y="733.621" width="482.645" height="91.847" style="fill:none;stroke:rgb(255,0,0);stroke-width:0.28px;"/>
        </g>
        <g transform="matrix(1.12569,0,0,9.48003,-245.836,-5984.43)">
            <rect x="1041.66" y="733.621" width="482.645" height="91.847" style="fill:none;stroke:rgb(255,0,0);stroke-width:0.28px;"/>
        </g>
    </g>
    <g id="cutout-for-motors-of-wall" serif:id="cutout for motors of wall" transform="matrix(2.4813,0,0,0.522924,-721.287,1222.78)">
        <rect x="652.45" y="1024.27" width="690.202" height="406.557" style="fill:none;stroke:rgb(242,13,13);stroke-width:0.58px;"/>
    </g>
    <g transform="matrix(1.33653,0,0,1.10817,-645.004,-82.6039)">
        <rect x="690.27" y="680.747" width="2209.28" height="1172.4" style="fill:none;stroke:rgb(242,13,13);stroke-width:0.85px;"/>
    </g>
    <g transform="matrix(0.619799,0,0,0.503586,-429.085,574)">
        <ellipse cx="1333.2" cy="431.77" rx="40.971" ry="50.426" style="fill:none;stroke:rgb(242,13,13);stroke-width:1.84px;"/>
    </g>
    <g transform="matrix(0.619799,0,0,0.503586,-429.085,1633.44)">
        <ellipse cx="1333.2" cy="431.77" rx="40.971" ry="50.426" style="fill:none;stroke:rgb(242,13,13);stroke-width:1.84px;"/>
    </g>
    <g transform="matrix(0.619799,0,0,0.503586,2284.66,1633.44)">
        <ellipse cx="1333.2" cy="431.77" rx="40.971" ry="50.426" style="fill:none;stroke:rgb(242,13,13);stroke-width:1.84px;"/>
    </g>
    <g transform="matrix(0.619799,0,0,0.503586,2284.66,574)">
        <ellipse cx="1333.2" cy="431.77" rx="40.971" ry="50.426" style="fill:none;stroke:rgb(242,13,13);stroke-width:1.84px;"/>
    </g>
    <g transform="matrix(1.05222,0,0,0.854926,-548.832,1263.55)">
        <ellipse cx="1333.2" cy="431.77" rx="40.971" ry="50.426" style="fill:none;stroke:rgb(242,13,13);stroke-width:1.09px;"/>
    </g>
    <g transform="matrix(1.05222,0,0,0.854926,-1041.18,1263.55)">
        <ellipse cx="1333.2" cy="431.77" rx="40.971" ry="50.426" style="fill:none;stroke:rgb(242,13,13);stroke-width:1.09px;"/>
    </g>
    <g transform="matrix(1.05222,0,0,0.854926,1250.52,1263.55)">
        <ellipse cx="1333.2" cy="431.77" rx="40.971" ry="50.426" style="fill:none;stroke:rgb(242,13,13);stroke-width:1.09px;"/>
    </g>
    <g transform="matrix(1.05222,0,0,0.854926,1742.55,1263.55)">
        <ellipse cx="1333.2" cy="431.77" rx="40.971" ry="50.426" style="fill:none;stroke:rgb(242,13,13);stroke-width:1.09px;"/>
    </g>
    <g transform="matrix(1.26834,0,0,1.62984,-194.532,-450.186)">
        <ellipse cx="572.425" cy="737.665" rx="18.557" ry="14.384" style="fill:none;stroke:rgb(242,13,13);stroke-width:0.71px;"/>
    </g>
    <g transform="matrix(1.26834,0,0,1.62984,-194.532,-373.415)">
        <ellipse cx="572.425" cy="737.665" rx="18.557" ry="14.384" style="fill:none;stroke:rgb(242,13,13);stroke-width:0.71px;"/>
    </g>
    <g transform="matrix(1.26834,0,0,1.62984,446.442,-450.186)">
        <ellipse cx="572.425" cy="737.665" rx="18.557" ry="14.384" style="fill:none;stroke:rgb(242,13,13);stroke-width:0.71px;"/>
    </g>
    <g transform="matrix(1.26834,0,0,1.62984,446.442,-373.415)">
        <ellipse cx="572.425" cy="737.665" rx="18.557" ry="14.384" style="fill:none;stroke:rgb(242,13,13);stroke-width:0.71px;"/>
    </g>
    <g transform="matrix(1.26834,0,0,1.62984,1609.38,-450.186)">
        <ellipse cx="572.425" cy="737.665" rx="18.557" ry="14.384" style="fill:none;stroke:rgb(242,13,13);stroke-width:0.71px;"/>
    </g>
    <g transform="matrix(1.26834,0,0,1.62984,1609.38,-373.415)">
        <ellipse cx="572.425" cy="737.665" rx="18.557" ry="14.384" style="fill:none;stroke:rgb(242,13,13);stroke-width:0.71px;"/>
    </g>
    <g transform="matrix(1.26834,0,0,1.62984,2250.35,-450.186)">
        <ellipse cx="572.425" cy="737.665" rx="18.557" ry="14.384" style="fill:none;stroke:rgb(242,13,13);stroke-width:0.71px;"/>
    </g>
    <g transform="matrix(1.26834,0,0,1.62984,2250.35,-373.415)">
        <ellipse cx="572.425" cy="737.665" rx="18.557" ry="14.384" style="fill:none;stroke:rgb(242,13,13);stroke-width:0.71px;"/>
    </g>
</svg>
