<?xml version="1.0" encoding="UTF-8" standalone="no"?>
<!DOCTYPE svg PUBLIC "-//W3C//DTD SVG 1.1//EN" "http://www.w3.org/Graphics/SVG/1.1/DTD/svg11.dtd">
<svg width="297mm" height="210mm" viewBox="0 0 3508 2481" version="1.1" xmlns="http://www.w3.org/2000/svg" xmlns:xlink="http://www.w3.org/1999/xlink" xml:space="preserve" xmlns:serif="http://www.serif.com/" style="fill-rule:evenodd;clip-rule:evenodd;stroke-linecap:round;stroke-linejoin:round;stroke-miterlimit:1.5;">
    <g transform="matrix(1.33653,0,0,1.10817,-645.004,-82.6039)">
        <rect x="690.27" y="680.747" width="2209.28" height="1172.4" style="fill:none;stroke:rgb(242,13,13);stroke-width:0.85px;"/>
    </g>
    <g transform="matrix(1,0,0,1,66.884,0)">
        <g transform="matrix(1.96793,0,0,1.46709,-1073.3,-593.764)">
            <rect x="652.45" y="1024.27" width="690.202" height="406.557" style="fill:none;stroke:rgb(242,13,13);stroke-width:0.6px;"/>
        </g>
        <g transform="matrix(1.96793,0,0,1.46709,521.183,-593.764)">
            <rect x="652.45" y="1024.27" width="690.202" height="406.557" style="fill:none;stroke:rgb(242,13,13);stroke-width:0.6px;"/>
        </g>
    </g>
    <g id="cutout-for-motors-of-wall" serif:id="cutout for motors of wall" transform="matrix(2.4813,0,0,0.522924,-721.287,1222.78)">
        <rect x="652.45" y="1024.27" width="690.202" height="406.557" style="fill:none;stroke:rgb(242,13,13);stroke-width:0.58px;"/>
    </g>
    <g transform="matrix(0.619799,0,0,0.503586,-429.085,574)">
        <ellipse cx="1333.2" cy="431.77" rx="40.971" ry="50.426" style="fill:none;stroke:rgb(242,13,13);stroke-width:1.84px;"/>
    </g>
    <g transform="matrix(0.619799,0,0,0.503586,-429.085,1633.44)">
        <ellipse cx="1333.2" cy="431.77" rx="40.971" ry="50.426" style="fill:none;stroke:rgb(242,13,13);stroke-width:1.84px;"/>
    </g>
    <g transform="matrix(0.619799,0,0,0.503586,2284.66,1633.44)">
        <ellipse cx="1333.2" cy="431.77" rx="40.971" ry="50.426" style="fill:none;stroke:rgb(242,13,13);stroke-width:1.84px;"/>
    </g>
    <g transform="matrix(0.619799,0,0,0.503586,1827.01,1415.25)">
        <ellipse cx="1333.2" cy="431.77" rx="40.971" ry="50.426" style="fill:none;stroke:rgb(242,13,13);stroke-width:1.84px;"/>
    </g>
    <g transform="matrix(0.619799,0,0,0.503586,2319.05,1415.25)">
        <ellipse cx="1333.2" cy="431.77" rx="40.971" ry="50.426" style="fill:none;stroke:rgb(242,13,13);stroke-width:1.84px;"/>
    </g>
    <g transform="matrix(0.619799,0,0,0.503586,-464.683,1415.25)">
        <ellipse cx="1333.2" cy="431.77" rx="40.971" ry="50.426" style="fill:none;stroke:rgb(242,13,13);stroke-width:1.84px;"/>
    </g>
    <g transform="matrix(0.619799,0,0,0.503586,27.6664,1415.25)">
        <ellipse cx="1333.2" cy="431.77" rx="40.971" ry="50.426" style="fill:none;stroke:rgb(242,13,13);stroke-width:1.84px;"/>
    </g>
    <g transform="matrix(0.619799,0,0,0.503586,2284.66,574)">
        <ellipse cx="1333.2" cy="431.77" rx="40.971" ry="50.426" style="fill:none;stroke:rgb(242,13,13);stroke-width:1.84px;"/>
    </g>
    <g transform="matrix(0.897917,0,0,0.821126,17.5063,146.376)">
        <ellipse cx="572.425" cy="737.665" rx="18.557" ry="14.384" style="fill:none;stroke:rgb(242,13,13);stroke-width:1.21px;"/>
    </g>
    <g transform="matrix(0.897917,0,0,0.821126,17.5063,223.148)">
        <ellipse cx="572.425" cy="737.665" rx="18.557" ry="14.384" style="fill:none;stroke:rgb(242,13,13);stroke-width:1.21px;"/>
    </g>
    <g transform="matrix(0.90492,0,0,0.821126,654.472,146.376)">
        <ellipse cx="572.425" cy="737.665" rx="18.557" ry="14.384" style="fill:none;stroke:rgb(242,13,13);stroke-width:1.21px;"/>
    </g>
    <g transform="matrix(0.90492,0,0,0.821126,654.472,223.148)">
        <ellipse cx="572.425" cy="737.665" rx="18.557" ry="14.384" style="fill:none;stroke:rgb(242,13,13);stroke-width:1.21px;"/>
    </g>
    <g transform="matrix(0.891789,0,0,0.821126,1824.92,146.376)">
        <ellipse cx="572.425" cy="737.665" rx="18.557" ry="14.384" style="fill:none;stroke:rgb(242,13,13);stroke-width:1.22px;"/>
    </g>
    <g transform="matrix(0.891789,0,0,0.821126,1824.92,223.148)">
        <ellipse cx="572.425" cy="737.665" rx="18.557" ry="14.384" style="fill:none;stroke:rgb(242,13,13);stroke-width:1.22px;"/>
    </g>
    <g transform="matrix(0.900251,0,0,0.821126,2461.05,146.376)">
        <ellipse cx="572.425" cy="737.665" rx="18.557" ry="14.384" style="fill:none;stroke:rgb(242,13,13);stroke-width:1.21px;"/>
    </g>
    <g transform="matrix(0.900251,0,0,0.821126,2461.05,223.148)">
        <ellipse cx="572.425" cy="737.665" rx="18.557" ry="14.384" style="fill:none;stroke:rgb(242,13,13);stroke-width:1.21px;"/>
    </g>
    <g transform="matrix(0.999677,0.0106777,-0.0254105,0.420073,113.15,851.731)">
        <path d="M2004.49,1505.39L2007.64,1629.38" style="fill:none;stroke:black;stroke-width:2.77px;"/>
    </g>
    <g transform="matrix(1,0,0,1,96.5601,-162.547)">
        <text x="1955.25px" y="1756.16px" style="font-family:'ArialMT', 'Arial', sans-serif;font-size:33.333px;">45c</text>
    </g>
    <g transform="matrix(1,0,0,1,60.6388,-90.4042)">
        <text x="1955.25px" y="1756.16px" style="font-family:'ArialMT', 'Arial', sans-serif;font-size:33.333px;">39c</text>
    </g>
    <g transform="matrix(1,0,0,1,137.153,-90.4042)">
        <text x="1955.25px" y="1756.16px" style="font-family:'ArialMT', 'Arial', sans-serif;font-size:33.333px;">39l</text>
    </g>
    <g transform="matrix(1,0,0,1,-442.459,-90.5194)">
        <text x="1955.25px" y="1756.16px" style="font-family:'ArialMT', 'Arial', sans-serif;font-size:33.333px;">39l</text>
    </g>
    <g transform="matrix(1,0,0,1,-586.567,-90.5194)">
        <text x="1955.25px" y="1756.16px" style="font-family:'ArialMT', 'Arial', sans-serif;font-size:33.333px;">39r</text>
    </g>
    <g transform="matrix(1,0,0,1,-7.48806,-90.5194)">
        <text x="1955.25px" y="1756.16px" style="font-family:'ArialMT', 'Arial', sans-serif;font-size:33.333px;">39r</text>
    </g>
    <g transform="matrix(1,0,0,1,-518.101,-90.5194)">
        <text x="1955.25px" y="1756.16px" style="font-family:'ArialMT', 'Arial', sans-serif;font-size:33.333px;">39c</text>
    </g>
    <g transform="matrix(0.999677,0.0106777,-0.0254105,0.420073,-536.456,851.615)">
        <path d="M2004.49,1505.39L2007.64,1629.38" style="fill:none;stroke:black;stroke-width:2.77px;"/>
    </g>
    <g transform="matrix(0.999677,0.0106777,-0.0254105,0.420073,-465.59,851.615)">
        <path d="M2004.49,1505.39L2007.64,1629.38" style="fill:none;stroke:black;stroke-width:2.77px;"/>
    </g>
    <g transform="matrix(1,0,0,1,-553.046,-162.662)">
        <text x="1955.25px" y="1756.16px" style="font-family:'ArialMT', 'Arial', sans-serif;font-size:33.333px;">45c</text>
    </g>
    <g transform="matrix(1,0,0,1,-476.532,-162.662)">
        <text x="1955.25px" y="1756.16px" style="font-family:'ArialMT', 'Arial', sans-serif;font-size:33.333px;">45l</text>
    </g>
    <g transform="matrix(0.999677,0.0106777,-0.0254105,0.420073,42.2843,851.731)">
        <path d="M2004.49,1505.39L2007.64,1629.38" style="fill:none;stroke:black;stroke-width:2.77px;"/>
    </g>
    <g transform="matrix(0.999677,0.0181337,-0.0254105,0.7134,-394.724,395.097)">
        <path d="M2004.49,1505.39L2007.64,1629.38" style="fill:none;stroke:black;stroke-width:2.42px;"/>
    </g>
    <g transform="matrix(0.999677,0.0256228,-0.0254105,1.00803,77.7174,-63.3338)">
        <path d="M2004.49,1505.39L2007.64,1629.38" style="fill:none;stroke:black;stroke-width:2.07px;"/>
    </g>
    <g transform="matrix(0.999677,0.0325247,-0.0254105,1.27956,-359.291,-486.036)">
        <path d="M2004.49,1505.39L2007.64,1629.38" style="fill:none;stroke:black;stroke-width:1.8px;"/>
    </g>
    <g transform="matrix(0.999677,0.0329175,-0.0254105,1.29501,-64.0149,-509.975)">
        <path d="M2004.49,1505.39L2007.64,1629.38" style="fill:none;stroke:black;stroke-width:1.79px;"/>
    </g>
    <g transform="matrix(0.999677,0.0256228,-0.0254105,1.00803,-501.023,-63.449)">
        <path d="M2004.49,1505.39L2007.64,1629.38" style="fill:none;stroke:black;stroke-width:2.07px;"/>
    </g>
    <g transform="matrix(0.999677,0.0256228,-0.0254105,1.00803,6.85122,-63.3338)">
        <path d="M2004.49,1505.39L2007.64,1629.38" style="fill:none;stroke:black;stroke-width:2.07px;"/>
    </g>
    <g transform="matrix(0.999677,0.0256228,-0.0254105,1.00803,-571.889,-63.449)">
        <path d="M2004.49,1505.39L2007.64,1629.38" style="fill:none;stroke:black;stroke-width:2.07px;"/>
    </g>
    <g transform="matrix(0.999677,0.0256228,-0.0254105,1.00803,148.584,-63.3338)">
        <path d="M2004.49,1505.39L2007.64,1629.38" style="fill:none;stroke:black;stroke-width:2.07px;"/>
    </g>
    <g transform="matrix(0.999677,0.0256228,-0.0254105,1.00803,-430.157,-63.449)">
        <path d="M2004.49,1505.39L2007.64,1629.38" style="fill:none;stroke:black;stroke-width:2.07px;"/>
    </g>
    <g transform="matrix(1,0,0,1,28.0947,-162.547)">
        <text x="1955.25px" y="1756.16px" style="font-family:'ArialMT', 'Arial', sans-serif;font-size:33.333px;">45r</text>
    </g>
    <g transform="matrix(1,0,0,1,25.2057,-126.872)">
        <text x="1955.25px" y="1756.16px" style="font-family:'ArialMT', 'Arial', sans-serif;font-size:33.333px;">33c</text>
    </g>
    <g transform="matrix(1,0,0,1,-42.9211,-126.987)">
        <text x="1955.25px" y="1756.16px" style="font-family:'ArialMT', 'Arial', sans-serif;font-size:33.333px;">33r</text>
    </g>
    <g transform="matrix(1,0,0,1,-9.69216,-54.3464)">
        <text x="1955.25px" y="1756.16px" style="font-family:'ArialMT', 'Arial', sans-serif;font-size:33.333px;">27c</text>
    </g>
    <g transform="matrix(1,0,0,1,-78.1576,-54.3464)">
        <text x="1955.25px" y="1756.16px" style="font-family:'ArialMT', 'Arial', sans-serif;font-size:33.333px;">27r</text>
    </g>
    <g transform="matrix(1,0,0,1,-515.504,-53.9557)">
        <text x="1955.25px" y="1756.16px" style="font-family:'ArialMT', 'Arial', sans-serif;font-size:33.333px;">27r</text>
    </g>
    <g transform="matrix(1,0,0,1,-447.377,-54.3464)">
        <text x="1955.25px" y="1756.16px" style="font-family:'ArialMT', 'Arial', sans-serif;font-size:33.333px;">27c</text>
    </g>
    <g transform="matrix(1,0,0,1,-370.525,-54.3464)">
        <text x="1955.25px" y="1756.16px" style="font-family:'ArialMT', 'Arial', sans-serif;font-size:33.333px;">27l</text>
    </g>
    <g transform="matrix(1,0,0,1,66.4832,-53.8405)">
        <text x="1955.25px" y="1756.16px" style="font-family:'ArialMT', 'Arial', sans-serif;font-size:33.333px;">27l</text>
    </g>
    <g transform="matrix(1,0,0,1,101.72,-126.872)">
        <text x="1955.25px" y="1756.16px" style="font-family:'ArialMT', 'Arial', sans-serif;font-size:33.333px;">33l</text>
    </g>
    <g transform="matrix(1,0,0,1,-482.668,-126.987)">
        <text x="1955.25px" y="1756.16px" style="font-family:'ArialMT', 'Arial', sans-serif;font-size:33.333px;">33c</text>
    </g>
    <g transform="matrix(1,0,0,1,-405.493,-126.987)">
        <text x="1955.25px" y="1756.16px" style="font-family:'ArialMT', 'Arial', sans-serif;font-size:33.333px;">33l</text>
    </g>
    <g transform="matrix(1,0,0,1,-551.134,-126.987)">
        <text x="1955.25px" y="1756.16px" style="font-family:'ArialMT', 'Arial', sans-serif;font-size:33.333px;">33r</text>
    </g>
    <g transform="matrix(0.999677,0.0106777,-0.0254105,0.420073,184.017,851.731)">
        <path d="M2004.49,1505.39L2007.64,1629.38" style="fill:none;stroke:black;stroke-width:2.77px;"/>
    </g>
    <g transform="matrix(0.999677,0.0180103,-0.0254105,0.708546,-28.5819,402.767)">
        <path d="M2004.49,1505.39L2007.64,1629.38" style="fill:none;stroke:black;stroke-width:2.42px;"/>
    </g>
    <g transform="matrix(1,0,0,1,173.074,-165.127)">
        <text x="1955.25px" y="1756.16px" style="font-family:'ArialMT', 'Arial', sans-serif;font-size:33.333px;">45l</text>
    </g>
    <g transform="matrix(0.999677,0.0106777,-0.0254105,0.420073,-607.322,851.615)">
        <path d="M2004.49,1505.39L2007.64,1629.38" style="fill:none;stroke:black;stroke-width:2.77px;"/>
    </g>
    <g transform="matrix(1,0,0,1,-621.512,-162.662)">
        <text x="1955.25px" y="1756.16px" style="font-family:'ArialMT', 'Arial', sans-serif;font-size:33.333px;">45r</text>
    </g>
</svg>
