M48
;GenerationSoftware,Autodesk,EAGLE,9.7.0*%
;CreationDate,2025-08-25T13:19:20Z*%
FMAT,2
ICI,OFF
METRIC,TZ,000.000
T4C0.350
T3C1.016
T2C1.200
T1C3.000
%
G90
M71
T1
X20320Y-1218
X-3758Y80010
X83768Y80010
X72390Y-1218
T2
X73660Y11390
X73660Y6390
T3
X79634Y69850
X29110Y52326
X79634Y82550
X79634Y80010
X79634Y77470
X79634Y74930
X66934Y82550
X79634Y67310
X79634Y64770
X79634Y62230
X44074Y59690
X44074Y62230
X44074Y64770
X44074Y67310
X44074Y74930
X56774Y82550
X59314Y82550
X64394Y82550
X61854Y82550
X79634Y72390
X44074Y72390
X79634Y59690
X35560Y82550
X35560Y80010
X35560Y77470
X35560Y74930
X35560Y69850
X35560Y67310
X35560Y64770
X35560Y62230
X0Y59690
X0Y62230
X0Y64770
X0Y67310
X0Y74930
X12700Y82550
X15240Y82550
X22860Y82550
X20320Y82550
X17780Y82550
X35560Y72390
X0Y72390
X35560Y59690
X31650Y52326
X34190Y52326
X36730Y52326
X39270Y52326
X41810Y52326
X44350Y52326
X49430Y52326
X51970Y52326
X54510Y52326
X57050Y52326
X59590Y52326
X62130Y52326
X62130Y4066
X59590Y4066
X57050Y4066
X54510Y4066
X51970Y4066
X49430Y4066
X46890Y4066
X40290Y4066
X37750Y4066
X35210Y4066
X32670Y4066
X30130Y4066
X27590Y4066
X25050Y4066
X22510Y4066
X19970Y4066
X17430Y4066
X44350Y4066
X26570Y52326
X16470Y52326
X21470Y52326
X18970Y52326
X74930Y40640
X74930Y43180
X74930Y45720
X74930Y48260
X74930Y50800
T4
X36830Y24130
X34290Y26670
X67310Y13970
M30