M48
;GenerationSoftware,Autodesk,EAGLE,9.7.0*%
;CreationDate,2025-08-18T11:09:16Z*%
FMAT,2
ICI,OFF
METRIC,TZ,000.000
T4C0.350
T3C1.016
T2C1.200
T1C3.000
%
G90
M71
T1
X1270Y92710
X76200Y64770
X92658Y92710
T2
X49490Y62230
X44490Y62230
T3
X87932Y92740
X67310Y58420
X87932Y95280
X52372Y72420
X87932Y90200
X87932Y87660
X87932Y82580
X87932Y80040
X87932Y77500
X87932Y74960
X52372Y74960
X52372Y77500
X52372Y80040
X52372Y87660
X65072Y95280
X67612Y95280
X75232Y95280
X72692Y95280
X70152Y95280
X87932Y85120
X52372Y85120
X87932Y72420
X40727Y95296
X40727Y92756
X40727Y90216
X40727Y87676
X40727Y82596
X40727Y80056
X40727Y77516
X40727Y74976
X5167Y72436
X5167Y74976
X5167Y77516
X5167Y80056
X5167Y87676
X17867Y95296
X20407Y95296
X28027Y95296
X25487Y95296
X22947Y95296
X40727Y85136
X40727Y72436
X54610Y58420
X57150Y58420
X59690Y58420
X62230Y58420
X64770Y58420
X5167Y85136
X69850Y58420
X72390Y58420
X74930Y58420
X77470Y58420
X80010Y58420
T4
X55744Y65566
X39570Y62230
X15240Y82550
M30