G04 EAGLE Gerber RS-274X export*
G75*
%MOMM*%
%FSLAX34Y34*%
%LPD*%
%INSilkscreen Top*%
%IPPOS*%
%AMOC8*
5,1,8,0,0,1.08239X$1,22.5*%
G01*
G04 Define Apertures*
%ADD10C,0.127000*%
%ADD11C,0.254000*%
%ADD12C,0.152400*%
%ADD13C,0.200000*%
G36*
X397940Y490248D02*
X388072Y490248D01*
X388072Y493512D01*
X388091Y494121D01*
X388150Y494694D01*
X388248Y495231D01*
X388386Y495733D01*
X388563Y496199D01*
X388779Y496629D01*
X389034Y497023D01*
X389329Y497381D01*
X389660Y497701D01*
X390024Y497977D01*
X390421Y498211D01*
X390851Y498403D01*
X391315Y498552D01*
X391812Y498658D01*
X392341Y498722D01*
X392904Y498743D01*
X393280Y498734D01*
X393644Y498706D01*
X393996Y498660D01*
X394336Y498595D01*
X394664Y498511D01*
X394980Y498409D01*
X395284Y498288D01*
X395576Y498148D01*
X395854Y497992D01*
X396115Y497819D01*
X396360Y497632D01*
X396587Y497429D01*
X396798Y497210D01*
X396993Y496975D01*
X397170Y496726D01*
X397331Y496460D01*
X397474Y496182D01*
X397597Y495893D01*
X397702Y495594D01*
X397788Y495284D01*
X397854Y494963D01*
X397902Y494632D01*
X397931Y494291D01*
X397940Y493939D01*
X397940Y490248D01*
G37*
%LPC*%
G36*
X396868Y491586D02*
X396868Y493785D01*
X396861Y494052D01*
X396839Y494311D01*
X396801Y494562D01*
X396749Y494805D01*
X396682Y495039D01*
X396601Y495265D01*
X396504Y495483D01*
X396392Y495693D01*
X396267Y495893D01*
X396128Y496081D01*
X395976Y496257D01*
X395811Y496421D01*
X395633Y496573D01*
X395441Y496713D01*
X395237Y496841D01*
X395019Y496958D01*
X394790Y497061D01*
X394551Y497151D01*
X394302Y497226D01*
X394042Y497288D01*
X393773Y497337D01*
X393494Y497371D01*
X393204Y497392D01*
X392904Y497399D01*
X392459Y497383D01*
X392041Y497336D01*
X391651Y497257D01*
X391287Y497147D01*
X390951Y497006D01*
X390642Y496833D01*
X390361Y496629D01*
X390106Y496394D01*
X389881Y496128D01*
X389685Y495835D01*
X389519Y495513D01*
X389384Y495164D01*
X389279Y494786D01*
X389203Y494380D01*
X389158Y493946D01*
X389143Y493484D01*
X389143Y491586D01*
X396868Y491586D01*
G37*
%LPD*%
G36*
X397940Y479904D02*
X388072Y479904D01*
X388072Y481459D01*
X396532Y486796D01*
X395349Y486733D01*
X394543Y486712D01*
X388072Y486712D01*
X388072Y487916D01*
X397940Y487916D01*
X397940Y486306D01*
X389535Y481025D01*
X390215Y481060D01*
X391384Y481095D01*
X397940Y481095D01*
X397940Y479904D01*
G37*
G36*
X392960Y468293D02*
X392377Y468313D01*
X391827Y468373D01*
X391311Y468474D01*
X390829Y468615D01*
X390382Y468796D01*
X389968Y469018D01*
X389587Y469279D01*
X389241Y469581D01*
X388933Y469920D01*
X388665Y470291D01*
X388439Y470695D01*
X388254Y471131D01*
X388110Y471600D01*
X388007Y472101D01*
X387945Y472636D01*
X387925Y473202D01*
X387933Y473602D01*
X387959Y473983D01*
X388002Y474345D01*
X388063Y474687D01*
X388141Y475010D01*
X388236Y475314D01*
X388348Y475598D01*
X388478Y475864D01*
X388627Y476112D01*
X388796Y476346D01*
X388986Y476565D01*
X389198Y476769D01*
X389429Y476959D01*
X389682Y477134D01*
X389956Y477294D01*
X390250Y477440D01*
X390628Y476165D01*
X390236Y475935D01*
X390062Y475805D01*
X389901Y475665D01*
X389755Y475515D01*
X389623Y475355D01*
X389506Y475186D01*
X389402Y475006D01*
X389312Y474815D01*
X389234Y474614D01*
X389168Y474401D01*
X389114Y474177D01*
X389071Y473941D01*
X389041Y473695D01*
X389023Y473437D01*
X389017Y473167D01*
X389033Y472753D01*
X389082Y472363D01*
X389162Y471999D01*
X389275Y471660D01*
X389421Y471346D01*
X389598Y471057D01*
X389808Y470793D01*
X390050Y470555D01*
X390322Y470343D01*
X390620Y470160D01*
X390944Y470004D01*
X391294Y469877D01*
X391671Y469778D01*
X392075Y469708D01*
X392504Y469665D01*
X392960Y469651D01*
X393416Y469666D01*
X393846Y469711D01*
X394252Y469786D01*
X394633Y469891D01*
X394990Y470026D01*
X395322Y470191D01*
X395630Y470386D01*
X395912Y470611D01*
X396166Y470862D01*
X396386Y471137D01*
X396572Y471434D01*
X396724Y471754D01*
X396842Y472098D01*
X396927Y472464D01*
X396978Y472853D01*
X396995Y473265D01*
X396976Y473740D01*
X396921Y474199D01*
X396829Y474642D01*
X396700Y475069D01*
X396540Y475467D01*
X396354Y475826D01*
X396141Y476145D01*
X395902Y476424D01*
X394123Y476424D01*
X394123Y473475D01*
X393002Y473475D01*
X393002Y477657D01*
X396406Y477657D01*
X396783Y477242D01*
X397114Y476784D01*
X397401Y476281D01*
X397642Y475734D01*
X397745Y475447D01*
X397834Y475153D01*
X397909Y474853D01*
X397971Y474548D01*
X398019Y474236D01*
X398053Y473919D01*
X398073Y473595D01*
X398080Y473265D01*
X398070Y472885D01*
X398042Y472518D01*
X397993Y472165D01*
X397926Y471824D01*
X397839Y471497D01*
X397733Y471184D01*
X397608Y470884D01*
X397464Y470597D01*
X397301Y470325D01*
X397122Y470070D01*
X396925Y469831D01*
X396712Y469608D01*
X396481Y469403D01*
X396234Y469213D01*
X395970Y469041D01*
X395688Y468884D01*
X395392Y468746D01*
X395083Y468626D01*
X394761Y468524D01*
X394427Y468441D01*
X394079Y468376D01*
X393719Y468330D01*
X393346Y468302D01*
X392960Y468293D01*
G37*
G36*
X423340Y490248D02*
X413472Y490248D01*
X413472Y493512D01*
X413491Y494121D01*
X413550Y494694D01*
X413648Y495231D01*
X413786Y495733D01*
X413963Y496199D01*
X414179Y496629D01*
X414434Y497023D01*
X414729Y497381D01*
X415060Y497701D01*
X415424Y497977D01*
X415821Y498211D01*
X416251Y498403D01*
X416715Y498552D01*
X417212Y498658D01*
X417741Y498722D01*
X418304Y498743D01*
X418680Y498734D01*
X419044Y498706D01*
X419396Y498660D01*
X419736Y498595D01*
X420064Y498511D01*
X420380Y498409D01*
X420684Y498288D01*
X420976Y498148D01*
X421254Y497992D01*
X421515Y497819D01*
X421760Y497632D01*
X421987Y497429D01*
X422198Y497210D01*
X422393Y496975D01*
X422570Y496726D01*
X422731Y496460D01*
X422874Y496182D01*
X422997Y495893D01*
X423102Y495594D01*
X423188Y495284D01*
X423254Y494963D01*
X423302Y494632D01*
X423331Y494291D01*
X423340Y493939D01*
X423340Y490248D01*
G37*
%LPC*%
G36*
X422268Y491586D02*
X422268Y493785D01*
X422261Y494052D01*
X422239Y494311D01*
X422201Y494562D01*
X422149Y494805D01*
X422082Y495039D01*
X422001Y495265D01*
X421904Y495483D01*
X421792Y495693D01*
X421667Y495893D01*
X421528Y496081D01*
X421376Y496257D01*
X421211Y496421D01*
X421033Y496573D01*
X420841Y496713D01*
X420637Y496841D01*
X420419Y496958D01*
X420190Y497061D01*
X419951Y497151D01*
X419702Y497226D01*
X419442Y497288D01*
X419173Y497337D01*
X418894Y497371D01*
X418604Y497392D01*
X418304Y497399D01*
X417859Y497383D01*
X417441Y497336D01*
X417051Y497257D01*
X416687Y497147D01*
X416351Y497006D01*
X416042Y496833D01*
X415761Y496629D01*
X415506Y496394D01*
X415281Y496128D01*
X415085Y495835D01*
X414919Y495513D01*
X414784Y495164D01*
X414679Y494786D01*
X414603Y494380D01*
X414558Y493946D01*
X414543Y493484D01*
X414543Y491586D01*
X422268Y491586D01*
G37*
%LPD*%
G36*
X423340Y479904D02*
X413472Y479904D01*
X413472Y481459D01*
X421932Y486796D01*
X420749Y486733D01*
X419943Y486712D01*
X413472Y486712D01*
X413472Y487916D01*
X423340Y487916D01*
X423340Y486306D01*
X414935Y481025D01*
X415615Y481060D01*
X416784Y481095D01*
X423340Y481095D01*
X423340Y479904D01*
G37*
G36*
X418360Y468293D02*
X417777Y468313D01*
X417227Y468373D01*
X416711Y468474D01*
X416229Y468615D01*
X415782Y468796D01*
X415368Y469018D01*
X414987Y469279D01*
X414641Y469581D01*
X414333Y469920D01*
X414065Y470291D01*
X413839Y470695D01*
X413654Y471131D01*
X413510Y471600D01*
X413407Y472101D01*
X413345Y472636D01*
X413325Y473202D01*
X413333Y473602D01*
X413359Y473983D01*
X413402Y474345D01*
X413463Y474687D01*
X413541Y475010D01*
X413636Y475314D01*
X413748Y475598D01*
X413878Y475864D01*
X414027Y476112D01*
X414196Y476346D01*
X414386Y476565D01*
X414598Y476769D01*
X414829Y476959D01*
X415082Y477134D01*
X415356Y477294D01*
X415650Y477440D01*
X416028Y476165D01*
X415636Y475935D01*
X415462Y475805D01*
X415301Y475665D01*
X415155Y475515D01*
X415023Y475355D01*
X414906Y475186D01*
X414802Y475006D01*
X414712Y474815D01*
X414634Y474614D01*
X414568Y474401D01*
X414514Y474177D01*
X414471Y473941D01*
X414441Y473695D01*
X414423Y473437D01*
X414417Y473167D01*
X414433Y472753D01*
X414482Y472363D01*
X414562Y471999D01*
X414675Y471660D01*
X414821Y471346D01*
X414998Y471057D01*
X415208Y470793D01*
X415450Y470555D01*
X415722Y470343D01*
X416020Y470160D01*
X416344Y470004D01*
X416694Y469877D01*
X417071Y469778D01*
X417475Y469708D01*
X417904Y469665D01*
X418360Y469651D01*
X418816Y469666D01*
X419246Y469711D01*
X419652Y469786D01*
X420033Y469891D01*
X420390Y470026D01*
X420722Y470191D01*
X421030Y470386D01*
X421312Y470611D01*
X421566Y470862D01*
X421786Y471137D01*
X421972Y471434D01*
X422124Y471754D01*
X422242Y472098D01*
X422327Y472464D01*
X422378Y472853D01*
X422395Y473265D01*
X422376Y473740D01*
X422321Y474199D01*
X422229Y474642D01*
X422100Y475069D01*
X421940Y475467D01*
X421754Y475826D01*
X421541Y476145D01*
X421302Y476424D01*
X419523Y476424D01*
X419523Y473475D01*
X418402Y473475D01*
X418402Y477657D01*
X421806Y477657D01*
X422183Y477242D01*
X422514Y476784D01*
X422801Y476281D01*
X423042Y475734D01*
X423145Y475447D01*
X423234Y475153D01*
X423309Y474853D01*
X423371Y474548D01*
X423419Y474236D01*
X423453Y473919D01*
X423473Y473595D01*
X423480Y473265D01*
X423470Y472885D01*
X423442Y472518D01*
X423393Y472165D01*
X423326Y471824D01*
X423239Y471497D01*
X423133Y471184D01*
X423008Y470884D01*
X422864Y470597D01*
X422701Y470325D01*
X422522Y470070D01*
X422325Y469831D01*
X422112Y469608D01*
X421881Y469403D01*
X421634Y469213D01*
X421370Y469041D01*
X421088Y468884D01*
X420792Y468746D01*
X420483Y468626D01*
X420161Y468524D01*
X419827Y468441D01*
X419479Y468376D01*
X419119Y468330D01*
X418746Y468302D01*
X418360Y468293D01*
G37*
G36*
X370334Y482458D02*
X370187Y483733D01*
X370530Y483852D01*
X370827Y484011D01*
X371079Y484208D01*
X371285Y484445D01*
X371445Y484721D01*
X371559Y485037D01*
X371628Y485391D01*
X371651Y485785D01*
X371641Y486032D01*
X371612Y486265D01*
X371564Y486484D01*
X371497Y486690D01*
X371411Y486882D01*
X371306Y487060D01*
X371181Y487224D01*
X371038Y487375D01*
X370877Y487509D01*
X370703Y487626D01*
X370514Y487725D01*
X370310Y487805D01*
X370092Y487868D01*
X369860Y487913D01*
X369614Y487940D01*
X369353Y487949D01*
X369126Y487940D01*
X368910Y487913D01*
X368705Y487868D01*
X368511Y487805D01*
X368328Y487723D01*
X368157Y487624D01*
X367997Y487507D01*
X367847Y487371D01*
X367713Y487220D01*
X367596Y487057D01*
X367498Y486881D01*
X367417Y486693D01*
X367354Y486492D01*
X367309Y486278D01*
X367282Y486052D01*
X367273Y485813D01*
X367283Y485562D01*
X367313Y485319D01*
X367364Y485085D01*
X367434Y484860D01*
X367529Y484640D01*
X367651Y484419D01*
X367802Y484199D01*
X367981Y483978D01*
X367981Y482745D01*
X362672Y483074D01*
X362672Y488684D01*
X363743Y488684D01*
X363743Y484223D01*
X366874Y484034D01*
X366726Y484245D01*
X366598Y484469D01*
X366490Y484705D01*
X366401Y484953D01*
X366332Y485214D01*
X366283Y485488D01*
X366253Y485774D01*
X366244Y486072D01*
X366257Y486427D01*
X366297Y486763D01*
X366364Y487081D01*
X366457Y487381D01*
X366577Y487662D01*
X366724Y487924D01*
X366898Y488168D01*
X367098Y488394D01*
X367320Y488596D01*
X367558Y488772D01*
X367812Y488921D01*
X368082Y489042D01*
X368369Y489137D01*
X368671Y489205D01*
X368990Y489245D01*
X369325Y489259D01*
X369705Y489244D01*
X370065Y489201D01*
X370403Y489128D01*
X370721Y489027D01*
X371018Y488896D01*
X371294Y488737D01*
X371549Y488548D01*
X371784Y488331D01*
X371994Y488088D01*
X372176Y487822D01*
X372330Y487534D01*
X372456Y487223D01*
X372554Y486890D01*
X372624Y486535D01*
X372666Y486157D01*
X372680Y485757D01*
X372671Y485420D01*
X372642Y485100D01*
X372595Y484797D01*
X372530Y484510D01*
X372445Y484240D01*
X372341Y483987D01*
X372219Y483750D01*
X372078Y483530D01*
X371919Y483328D01*
X371743Y483145D01*
X371550Y482982D01*
X371341Y482838D01*
X371114Y482714D01*
X370871Y482609D01*
X370611Y482524D01*
X370334Y482458D01*
G37*
G36*
X362672Y489916D02*
X362672Y491323D01*
X369619Y494055D01*
X371363Y494643D01*
X369619Y495231D01*
X362672Y497949D01*
X362672Y499357D01*
X372540Y495329D01*
X372540Y493943D01*
X362672Y489916D01*
G37*
G36*
X368282Y474209D02*
X367259Y474209D01*
X367259Y477179D01*
X364262Y477179D01*
X364262Y478208D01*
X367259Y478208D01*
X367259Y481178D01*
X368282Y481178D01*
X368282Y478208D01*
X371279Y478208D01*
X371279Y477179D01*
X368282Y477179D01*
X368282Y474209D01*
G37*
G36*
X321740Y471935D02*
X311872Y471935D01*
X311872Y476579D01*
X311883Y476984D01*
X311918Y477365D01*
X311977Y477722D01*
X312058Y478056D01*
X312163Y478366D01*
X312291Y478652D01*
X312443Y478914D01*
X312618Y479153D01*
X312813Y479365D01*
X313027Y479550D01*
X313259Y479705D01*
X313510Y479833D01*
X313778Y479932D01*
X314065Y480003D01*
X314371Y480046D01*
X314694Y480060D01*
X314964Y480050D01*
X315222Y480020D01*
X315470Y479970D01*
X315706Y479900D01*
X315932Y479809D01*
X316147Y479699D01*
X316350Y479569D01*
X316543Y479419D01*
X316722Y479251D01*
X316883Y479068D01*
X317027Y478870D01*
X317080Y478781D01*
X317154Y478656D01*
X317264Y478428D01*
X317356Y478184D01*
X317431Y477925D01*
X317489Y477650D01*
X319298Y478843D01*
X321740Y480452D01*
X321740Y478911D01*
X317643Y476348D01*
X317643Y473273D01*
X321740Y473273D01*
X321740Y471935D01*
G37*
%LPC*%
G36*
X316585Y473273D02*
X316585Y476502D01*
X316578Y476759D01*
X316554Y477001D01*
X316516Y477228D01*
X316462Y477439D01*
X316392Y477636D01*
X316308Y477818D01*
X316207Y477985D01*
X316091Y478137D01*
X315962Y478273D01*
X315820Y478390D01*
X315666Y478489D01*
X315499Y478571D01*
X315320Y478634D01*
X315128Y478679D01*
X314924Y478706D01*
X314708Y478715D01*
X314499Y478706D01*
X314303Y478678D01*
X314120Y478633D01*
X313949Y478569D01*
X313791Y478487D01*
X313647Y478386D01*
X313514Y478267D01*
X313395Y478130D01*
X313289Y477976D01*
X313197Y477806D01*
X313120Y477619D01*
X313056Y477417D01*
X313007Y477198D01*
X312972Y476963D01*
X312950Y476713D01*
X312943Y476446D01*
X312943Y473273D01*
X316585Y473273D01*
G37*
%LPD*%
G36*
X319373Y481754D02*
X319114Y483050D01*
X319329Y483113D01*
X319529Y483193D01*
X319714Y483289D01*
X319885Y483400D01*
X320041Y483527D01*
X320182Y483669D01*
X320308Y483828D01*
X320420Y484002D01*
X320517Y484192D01*
X320602Y484399D01*
X320674Y484622D01*
X320732Y484862D01*
X320778Y485118D01*
X320810Y485390D01*
X320830Y485679D01*
X320837Y485984D01*
X320830Y486299D01*
X320809Y486595D01*
X320774Y486873D01*
X320725Y487132D01*
X320663Y487373D01*
X320586Y487595D01*
X320496Y487799D01*
X320392Y487984D01*
X320274Y488149D01*
X320143Y488292D01*
X320000Y488413D01*
X319843Y488512D01*
X319673Y488589D01*
X319490Y488644D01*
X319294Y488677D01*
X319086Y488688D01*
X318855Y488674D01*
X318648Y488632D01*
X318463Y488563D01*
X318301Y488467D01*
X318157Y488346D01*
X318026Y488202D01*
X317909Y488036D01*
X317804Y487847D01*
X317624Y487409D01*
X317475Y486895D01*
X317188Y485669D01*
X317058Y485119D01*
X316928Y484640D01*
X316799Y484232D01*
X316669Y483894D01*
X316536Y483607D01*
X316395Y483352D01*
X316247Y483129D01*
X316091Y482937D01*
X315925Y482773D01*
X315746Y482628D01*
X315552Y482505D01*
X315346Y482402D01*
X315124Y482321D01*
X314887Y482263D01*
X314634Y482228D01*
X314365Y482216D01*
X314057Y482231D01*
X313768Y482277D01*
X313496Y482353D01*
X313243Y482459D01*
X313008Y482595D01*
X312791Y482762D01*
X312592Y482959D01*
X312411Y483186D01*
X312250Y483442D01*
X312111Y483723D01*
X311993Y484031D01*
X311896Y484365D01*
X311821Y484726D01*
X311768Y485112D01*
X311735Y485524D01*
X311725Y485963D01*
X311733Y486371D01*
X311757Y486754D01*
X311797Y487113D01*
X311853Y487446D01*
X311926Y487755D01*
X312014Y488039D01*
X312119Y488299D01*
X312239Y488534D01*
X312379Y488748D01*
X312542Y488945D01*
X312727Y489126D01*
X312935Y489290D01*
X313166Y489437D01*
X313419Y489568D01*
X313695Y489683D01*
X313994Y489780D01*
X314225Y488463D01*
X314036Y488403D01*
X313860Y488330D01*
X313697Y488245D01*
X313548Y488148D01*
X313413Y488039D01*
X313291Y487917D01*
X313182Y487783D01*
X313087Y487637D01*
X313004Y487477D01*
X312932Y487303D01*
X312871Y487114D01*
X312822Y486910D01*
X312755Y486459D01*
X312733Y485949D01*
X312739Y485662D01*
X312758Y485392D01*
X312788Y485140D01*
X312831Y484906D01*
X312886Y484688D01*
X312954Y484489D01*
X313033Y484307D01*
X313125Y484142D01*
X313229Y483996D01*
X313346Y483869D01*
X313474Y483762D01*
X313614Y483675D01*
X313766Y483606D01*
X313930Y483558D01*
X314107Y483529D01*
X314295Y483519D01*
X314513Y483534D01*
X314711Y483579D01*
X314889Y483655D01*
X315048Y483760D01*
X315191Y483895D01*
X315323Y484055D01*
X315443Y484243D01*
X315552Y484457D01*
X315661Y484741D01*
X315782Y485138D01*
X315915Y485648D01*
X316060Y486271D01*
X316274Y487178D01*
X316393Y487620D01*
X316533Y488043D01*
X316696Y488443D01*
X316886Y488817D01*
X317112Y489154D01*
X317384Y489444D01*
X317537Y489570D01*
X317704Y489681D01*
X317884Y489778D01*
X318077Y489861D01*
X318285Y489927D01*
X318511Y489974D01*
X318755Y490002D01*
X319016Y490011D01*
X319347Y489995D01*
X319660Y489945D01*
X319953Y489861D01*
X320227Y489744D01*
X320482Y489594D01*
X320717Y489411D01*
X320934Y489194D01*
X321131Y488943D01*
X321306Y488663D01*
X321459Y488355D01*
X321587Y488020D01*
X321693Y487657D01*
X321775Y487268D01*
X321833Y486851D01*
X321868Y486406D01*
X321880Y485935D01*
X321870Y485496D01*
X321841Y485081D01*
X321792Y484689D01*
X321723Y484321D01*
X321635Y483977D01*
X321528Y483656D01*
X321400Y483359D01*
X321253Y483086D01*
X321087Y482837D01*
X320901Y482611D01*
X320695Y482409D01*
X320470Y482231D01*
X320225Y482076D01*
X319960Y481945D01*
X319676Y481837D01*
X319373Y481754D01*
G37*
G36*
X312964Y490987D02*
X311872Y490987D01*
X311872Y499098D01*
X312964Y499098D01*
X312964Y495708D01*
X321740Y495708D01*
X321740Y494377D01*
X312964Y494377D01*
X312964Y490987D01*
G37*
G36*
X448740Y490248D02*
X438872Y490248D01*
X438872Y491803D01*
X447332Y497140D01*
X446149Y497077D01*
X445343Y497056D01*
X438872Y497056D01*
X438872Y498260D01*
X448740Y498260D01*
X448740Y496649D01*
X440335Y491368D01*
X441015Y491404D01*
X442184Y491439D01*
X448740Y491439D01*
X448740Y490248D01*
G37*
G36*
X438872Y475572D02*
X438872Y476980D01*
X445819Y479711D01*
X447563Y480299D01*
X445819Y480888D01*
X438872Y483605D01*
X438872Y485013D01*
X448740Y480986D01*
X448740Y479599D01*
X438872Y475572D01*
G37*
G36*
X448740Y486395D02*
X438872Y486395D01*
X438872Y487733D01*
X448740Y487733D01*
X448740Y486395D01*
G37*
G36*
X344605Y470461D02*
X344486Y471764D01*
X344698Y471802D01*
X344896Y471853D01*
X345081Y471916D01*
X345252Y471993D01*
X345409Y472082D01*
X345553Y472185D01*
X345683Y472300D01*
X345799Y472428D01*
X345901Y472568D01*
X345990Y472722D01*
X346066Y472889D01*
X346127Y473068D01*
X346175Y473260D01*
X346209Y473465D01*
X346230Y473683D01*
X346237Y473914D01*
X346229Y474146D01*
X346207Y474365D01*
X346171Y474571D01*
X346119Y474764D01*
X346053Y474945D01*
X345973Y475112D01*
X345877Y475267D01*
X345767Y475409D01*
X345643Y475537D01*
X345504Y475647D01*
X345351Y475740D01*
X345184Y475817D01*
X345003Y475876D01*
X344807Y475918D01*
X344598Y475944D01*
X344374Y475952D01*
X344178Y475943D01*
X343993Y475914D01*
X343819Y475865D01*
X343657Y475797D01*
X343505Y475710D01*
X343364Y475604D01*
X343235Y475478D01*
X343116Y475332D01*
X343010Y475169D01*
X342919Y474988D01*
X342841Y474790D01*
X342778Y474575D01*
X342728Y474343D01*
X342693Y474093D01*
X342672Y473827D01*
X342665Y473543D01*
X342665Y472829D01*
X341572Y472829D01*
X341572Y473515D01*
X341565Y473767D01*
X341544Y474004D01*
X341508Y474227D01*
X341459Y474435D01*
X341396Y474629D01*
X341318Y474808D01*
X341226Y474972D01*
X341120Y475122D01*
X341002Y475256D01*
X340873Y475372D01*
X340733Y475470D01*
X340582Y475550D01*
X340420Y475613D01*
X340248Y475657D01*
X340064Y475684D01*
X339870Y475693D01*
X339677Y475686D01*
X339495Y475664D01*
X339323Y475628D01*
X339162Y475577D01*
X339011Y475511D01*
X338870Y475431D01*
X338740Y475337D01*
X338620Y475227D01*
X338512Y475104D01*
X338419Y474966D01*
X338340Y474815D01*
X338276Y474649D01*
X338226Y474469D01*
X338190Y474275D01*
X338168Y474066D01*
X338161Y473844D01*
X338168Y473641D01*
X338188Y473447D01*
X338221Y473264D01*
X338268Y473090D01*
X338328Y472927D01*
X338401Y472773D01*
X338488Y472630D01*
X338588Y472496D01*
X338701Y472374D01*
X338824Y472265D01*
X338958Y472170D01*
X339103Y472089D01*
X339259Y472021D01*
X339426Y471966D01*
X339604Y471925D01*
X339793Y471897D01*
X339695Y470629D01*
X339400Y470676D01*
X339122Y470745D01*
X338861Y470836D01*
X338616Y470951D01*
X338388Y471088D01*
X338177Y471247D01*
X337982Y471430D01*
X337804Y471634D01*
X337645Y471858D01*
X337507Y472098D01*
X337390Y472353D01*
X337294Y472623D01*
X337220Y472909D01*
X337167Y473210D01*
X337135Y473526D01*
X337125Y473858D01*
X337135Y474219D01*
X337168Y474559D01*
X337222Y474879D01*
X337297Y475177D01*
X337394Y475456D01*
X337513Y475713D01*
X337653Y475950D01*
X337814Y476166D01*
X337995Y476359D01*
X338193Y476526D01*
X338408Y476667D01*
X338640Y476783D01*
X338889Y476873D01*
X339155Y476937D01*
X339437Y476976D01*
X339737Y476989D01*
X339968Y476981D01*
X340188Y476956D01*
X340396Y476914D01*
X340594Y476857D01*
X340781Y476782D01*
X340956Y476691D01*
X341121Y476584D01*
X341274Y476460D01*
X341416Y476320D01*
X341546Y476166D01*
X341665Y475996D01*
X341771Y475811D01*
X341865Y475612D01*
X341947Y475397D01*
X342018Y475167D01*
X342076Y474923D01*
X342104Y474923D01*
X342142Y475192D01*
X342195Y475445D01*
X342265Y475684D01*
X342349Y475907D01*
X342450Y476114D01*
X342567Y476307D01*
X342699Y476484D01*
X342847Y476646D01*
X343008Y476790D01*
X343179Y476915D01*
X343360Y477021D01*
X343551Y477108D01*
X343752Y477175D01*
X343963Y477223D01*
X344184Y477252D01*
X344416Y477262D01*
X344747Y477248D01*
X345060Y477208D01*
X345353Y477140D01*
X345627Y477045D01*
X345882Y476923D01*
X346117Y476773D01*
X346334Y476597D01*
X346531Y476394D01*
X346706Y476165D01*
X346859Y475913D01*
X346987Y475638D01*
X347093Y475339D01*
X347175Y475018D01*
X347233Y474673D01*
X347268Y474305D01*
X347280Y473914D01*
X347270Y473549D01*
X347238Y473203D01*
X347185Y472875D01*
X347111Y472567D01*
X347016Y472277D01*
X346900Y472007D01*
X346763Y471755D01*
X346604Y471522D01*
X346425Y471310D01*
X346226Y471121D01*
X346006Y470955D01*
X345766Y470811D01*
X345506Y470689D01*
X345226Y470591D01*
X344925Y470515D01*
X344605Y470461D01*
G37*
G36*
X344605Y482430D02*
X344486Y483733D01*
X344698Y483771D01*
X344896Y483822D01*
X345081Y483885D01*
X345252Y483962D01*
X345409Y484051D01*
X345553Y484153D01*
X345683Y484268D01*
X345799Y484396D01*
X345901Y484537D01*
X345990Y484691D01*
X346066Y484857D01*
X346127Y485037D01*
X346175Y485229D01*
X346209Y485434D01*
X346230Y485652D01*
X346237Y485883D01*
X346229Y486115D01*
X346207Y486334D01*
X346171Y486540D01*
X346119Y486733D01*
X346053Y486914D01*
X345973Y487081D01*
X345877Y487236D01*
X345767Y487378D01*
X345643Y487505D01*
X345504Y487616D01*
X345351Y487709D01*
X345184Y487785D01*
X345003Y487845D01*
X344807Y487887D01*
X344598Y487913D01*
X344374Y487921D01*
X344178Y487911D01*
X343993Y487882D01*
X343819Y487834D01*
X343657Y487766D01*
X343505Y487679D01*
X343364Y487572D01*
X343235Y487446D01*
X343116Y487301D01*
X343010Y487138D01*
X342919Y486957D01*
X342841Y486759D01*
X342778Y486544D01*
X342728Y486312D01*
X342693Y486062D01*
X342672Y485796D01*
X342665Y485512D01*
X342665Y484797D01*
X341572Y484797D01*
X341572Y485484D01*
X341565Y485736D01*
X341544Y485973D01*
X341508Y486196D01*
X341459Y486404D01*
X341396Y486597D01*
X341318Y486777D01*
X341226Y486941D01*
X341120Y487091D01*
X341002Y487225D01*
X340873Y487341D01*
X340733Y487439D01*
X340582Y487519D01*
X340420Y487582D01*
X340248Y487626D01*
X340064Y487653D01*
X339870Y487662D01*
X339677Y487655D01*
X339495Y487633D01*
X339323Y487596D01*
X339162Y487545D01*
X339011Y487480D01*
X338870Y487400D01*
X338740Y487305D01*
X338620Y487196D01*
X338512Y487073D01*
X338419Y486935D01*
X338340Y486783D01*
X338276Y486617D01*
X338226Y486437D01*
X338190Y486243D01*
X338168Y486035D01*
X338161Y485813D01*
X338168Y485609D01*
X338188Y485416D01*
X338221Y485233D01*
X338268Y485059D01*
X338328Y484896D01*
X338401Y484742D01*
X338488Y484598D01*
X338588Y484465D01*
X338701Y484343D01*
X338824Y484234D01*
X338958Y484139D01*
X339103Y484058D01*
X339259Y483989D01*
X339426Y483935D01*
X339604Y483894D01*
X339793Y483866D01*
X339695Y482598D01*
X339400Y482644D01*
X339122Y482713D01*
X338861Y482805D01*
X338616Y482919D01*
X338388Y483056D01*
X338177Y483216D01*
X337982Y483398D01*
X337804Y483603D01*
X337645Y483827D01*
X337507Y484067D01*
X337390Y484321D01*
X337294Y484592D01*
X337220Y484877D01*
X337167Y485178D01*
X337135Y485495D01*
X337125Y485827D01*
X337135Y486188D01*
X337168Y486528D01*
X337222Y486847D01*
X337297Y487146D01*
X337394Y487424D01*
X337513Y487682D01*
X337653Y487919D01*
X337814Y488135D01*
X337995Y488328D01*
X338193Y488495D01*
X338408Y488636D01*
X338640Y488752D01*
X338889Y488842D01*
X339155Y488906D01*
X339437Y488945D01*
X339737Y488958D01*
X339968Y488949D01*
X340188Y488925D01*
X340396Y488883D01*
X340594Y488825D01*
X340781Y488751D01*
X340956Y488660D01*
X341121Y488553D01*
X341274Y488429D01*
X341416Y488289D01*
X341546Y488134D01*
X341665Y487965D01*
X341771Y487780D01*
X341865Y487580D01*
X341947Y487366D01*
X342018Y487136D01*
X342076Y486891D01*
X342104Y486891D01*
X342142Y487160D01*
X342195Y487414D01*
X342265Y487652D01*
X342349Y487875D01*
X342450Y488083D01*
X342567Y488276D01*
X342699Y488453D01*
X342847Y488614D01*
X343008Y488759D01*
X343179Y488884D01*
X343360Y488990D01*
X343551Y489077D01*
X343752Y489144D01*
X343963Y489192D01*
X344184Y489221D01*
X344416Y489231D01*
X344747Y489217D01*
X345060Y489176D01*
X345353Y489109D01*
X345627Y489014D01*
X345882Y488891D01*
X346117Y488742D01*
X346334Y488566D01*
X346531Y488362D01*
X346706Y488134D01*
X346859Y487882D01*
X346987Y487606D01*
X347093Y487308D01*
X347175Y486987D01*
X347233Y486642D01*
X347268Y486274D01*
X347280Y485883D01*
X347270Y485518D01*
X347238Y485171D01*
X347185Y484844D01*
X347111Y484536D01*
X347016Y484246D01*
X346900Y483975D01*
X346763Y483724D01*
X346604Y483491D01*
X346425Y483279D01*
X346226Y483090D01*
X346006Y482923D01*
X345766Y482779D01*
X345506Y482658D01*
X345226Y482559D01*
X344925Y482483D01*
X344605Y482430D01*
G37*
G36*
X337272Y489916D02*
X337272Y491323D01*
X344219Y494055D01*
X345963Y494643D01*
X344219Y495231D01*
X337272Y497949D01*
X337272Y499357D01*
X347140Y495329D01*
X347140Y493943D01*
X337272Y489916D01*
G37*
G36*
X342882Y462240D02*
X341859Y462240D01*
X341859Y465210D01*
X338862Y465210D01*
X338862Y466240D01*
X341859Y466240D01*
X341859Y469209D01*
X342882Y469209D01*
X342882Y466240D01*
X345879Y466240D01*
X345879Y465210D01*
X342882Y465210D01*
X342882Y462240D01*
G37*
G36*
X347140Y479193D02*
X345606Y479193D01*
X345606Y480559D01*
X347140Y480559D01*
X347140Y479193D01*
G37*
G36*
X494602Y492007D02*
X493987Y492020D01*
X493411Y492058D01*
X492875Y492123D01*
X492379Y492214D01*
X491922Y492331D01*
X491506Y492473D01*
X491129Y492642D01*
X490792Y492837D01*
X490495Y493059D01*
X490238Y493312D01*
X490020Y493594D01*
X489842Y493907D01*
X489703Y494250D01*
X489604Y494623D01*
X489544Y495026D01*
X489525Y495459D01*
X489545Y495881D01*
X489605Y496274D01*
X489705Y496639D01*
X489845Y496975D01*
X490025Y497282D01*
X490246Y497561D01*
X490506Y497812D01*
X490806Y498033D01*
X491146Y498228D01*
X491524Y498396D01*
X491941Y498539D01*
X492396Y498656D01*
X492890Y498747D01*
X493422Y498811D01*
X493993Y498850D01*
X494602Y498863D01*
X495202Y498850D01*
X495765Y498809D01*
X496292Y498741D01*
X496782Y498645D01*
X497236Y498523D01*
X497653Y498373D01*
X498033Y498196D01*
X498377Y497991D01*
X498683Y497760D01*
X498947Y497503D01*
X499171Y497221D01*
X499354Y496912D01*
X499497Y496577D01*
X499599Y496216D01*
X499660Y495830D01*
X499680Y495417D01*
X499660Y495005D01*
X499599Y494619D01*
X499498Y494260D01*
X499356Y493927D01*
X499174Y493621D01*
X498951Y493341D01*
X498688Y493088D01*
X498384Y492861D01*
X498042Y492661D01*
X497662Y492487D01*
X497245Y492340D01*
X496791Y492220D01*
X496300Y492127D01*
X495771Y492060D01*
X495205Y492020D01*
X494602Y492007D01*
G37*
%LPC*%
G36*
X494602Y493281D02*
X495110Y493289D01*
X495582Y493313D01*
X496020Y493354D01*
X496422Y493410D01*
X496788Y493482D01*
X497120Y493571D01*
X497416Y493675D01*
X497677Y493796D01*
X497905Y493934D01*
X498103Y494091D01*
X498270Y494267D01*
X498407Y494462D01*
X498514Y494676D01*
X498590Y494909D01*
X498635Y495161D01*
X498651Y495431D01*
X498635Y495701D01*
X498588Y495951D01*
X498511Y496183D01*
X498402Y496396D01*
X498262Y496591D01*
X498091Y496767D01*
X497889Y496924D01*
X497656Y497063D01*
X497391Y497185D01*
X497092Y497290D01*
X496760Y497379D01*
X496395Y497452D01*
X495997Y497509D01*
X495565Y497549D01*
X495101Y497573D01*
X494602Y497582D01*
X494087Y497574D01*
X493608Y497551D01*
X493166Y497512D01*
X492760Y497458D01*
X492392Y497389D01*
X492060Y497304D01*
X491765Y497204D01*
X491507Y497088D01*
X491282Y496954D01*
X491087Y496801D01*
X490922Y496627D01*
X490787Y496434D01*
X490682Y496220D01*
X490607Y495987D01*
X490562Y495733D01*
X490547Y495459D01*
X490562Y495179D01*
X490606Y494919D01*
X490680Y494680D01*
X490784Y494461D01*
X490917Y494262D01*
X491079Y494084D01*
X491271Y493926D01*
X491493Y493789D01*
X491748Y493670D01*
X492042Y493567D01*
X492373Y493480D01*
X492743Y493408D01*
X493151Y493353D01*
X493596Y493313D01*
X494080Y493289D01*
X494602Y493281D01*
G37*
%LPD*%
G36*
X499540Y481912D02*
X489672Y485939D01*
X489672Y487459D01*
X499540Y491423D01*
X499540Y490057D01*
X496654Y488930D01*
X496654Y484433D01*
X499540Y483299D01*
X499540Y481912D01*
G37*
%LPC*%
G36*
X495611Y484839D02*
X495611Y488530D01*
X492354Y487263D01*
X491839Y487067D01*
X491262Y486870D01*
X490680Y486681D01*
X490876Y486618D01*
X491540Y486401D01*
X492368Y486100D01*
X495611Y484839D01*
G37*
%LPD*%
G36*
X524940Y481912D02*
X515072Y485939D01*
X515072Y487459D01*
X524940Y491423D01*
X524940Y490057D01*
X522054Y488930D01*
X522054Y484433D01*
X524940Y483299D01*
X524940Y481912D01*
G37*
%LPC*%
G36*
X521011Y484839D02*
X521011Y488530D01*
X517754Y487263D01*
X517239Y487067D01*
X516662Y486870D01*
X516080Y486681D01*
X516276Y486618D01*
X516940Y486401D01*
X517768Y486100D01*
X521011Y484839D01*
G37*
%LPD*%
G36*
X524940Y492539D02*
X523868Y492539D01*
X523868Y495053D01*
X516276Y495053D01*
X517866Y492826D01*
X516676Y492826D01*
X515072Y495158D01*
X515072Y496321D01*
X523868Y496321D01*
X523868Y498723D01*
X524940Y498723D01*
X524940Y492539D01*
G37*
G36*
X550340Y481912D02*
X540472Y485939D01*
X540472Y487459D01*
X550340Y491423D01*
X550340Y490057D01*
X547454Y488930D01*
X547454Y484433D01*
X550340Y483299D01*
X550340Y481912D01*
G37*
%LPC*%
G36*
X546411Y484839D02*
X546411Y488530D01*
X543154Y487263D01*
X542639Y487067D01*
X542062Y486870D01*
X541480Y486681D01*
X541676Y486618D01*
X542340Y486401D01*
X543168Y486100D01*
X546411Y484839D01*
G37*
%LPD*%
G36*
X550340Y492168D02*
X549451Y492168D01*
X549053Y492356D01*
X548679Y492564D01*
X548330Y492792D01*
X548004Y493040D01*
X547407Y493568D01*
X546870Y494122D01*
X546380Y494686D01*
X545928Y495246D01*
X545493Y495775D01*
X545059Y496251D01*
X544839Y496464D01*
X544614Y496656D01*
X544384Y496827D01*
X544149Y496976D01*
X543903Y497097D01*
X543641Y497183D01*
X543363Y497235D01*
X543070Y497252D01*
X542873Y497245D01*
X542687Y497223D01*
X542512Y497185D01*
X542349Y497133D01*
X542197Y497066D01*
X542056Y496984D01*
X541927Y496888D01*
X541809Y496776D01*
X541704Y496651D01*
X541613Y496515D01*
X541536Y496367D01*
X541473Y496207D01*
X541424Y496036D01*
X541389Y495853D01*
X541368Y495658D01*
X541361Y495452D01*
X541368Y495255D01*
X541389Y495067D01*
X541423Y494888D01*
X541471Y494718D01*
X541532Y494556D01*
X541607Y494404D01*
X541799Y494125D01*
X541914Y494001D01*
X542040Y493891D01*
X542177Y493794D01*
X542325Y493711D01*
X542484Y493641D01*
X542654Y493585D01*
X542836Y493542D01*
X543028Y493512D01*
X542909Y492224D01*
X542621Y492270D01*
X542347Y492339D01*
X542089Y492431D01*
X541846Y492545D01*
X541618Y492682D01*
X541405Y492842D01*
X541208Y493024D01*
X541025Y493229D01*
X540861Y493453D01*
X540719Y493692D01*
X540598Y493947D01*
X540500Y494217D01*
X540423Y494503D01*
X540368Y494804D01*
X540336Y495120D01*
X540325Y495452D01*
X540336Y495815D01*
X540369Y496155D01*
X540424Y496474D01*
X540501Y496772D01*
X540600Y497048D01*
X540721Y497302D01*
X540864Y497535D01*
X541029Y497746D01*
X541214Y497934D01*
X541417Y498097D01*
X541640Y498235D01*
X541880Y498348D01*
X542140Y498435D01*
X542417Y498498D01*
X542713Y498536D01*
X543028Y498548D01*
X543315Y498532D01*
X543601Y498482D01*
X543886Y498400D01*
X544170Y498285D01*
X544453Y498138D01*
X544737Y497959D01*
X545021Y497748D01*
X545304Y497505D01*
X545627Y497186D01*
X546027Y496750D01*
X546506Y496195D01*
X547062Y495522D01*
X547688Y494799D01*
X547977Y494499D01*
X548249Y494241D01*
X548511Y494019D01*
X548769Y493831D01*
X549021Y493676D01*
X549268Y493554D01*
X549268Y498702D01*
X550340Y498702D01*
X550340Y492168D01*
G37*
G36*
X575740Y481912D02*
X565872Y485939D01*
X565872Y487459D01*
X575740Y491423D01*
X575740Y490057D01*
X572854Y488930D01*
X572854Y484433D01*
X575740Y483299D01*
X575740Y481912D01*
G37*
%LPC*%
G36*
X571811Y484839D02*
X571811Y488530D01*
X568554Y487263D01*
X568039Y487067D01*
X567462Y486870D01*
X566880Y486681D01*
X567076Y486618D01*
X567740Y486401D01*
X568568Y486100D01*
X571811Y484839D01*
G37*
%LPD*%
G36*
X573205Y491993D02*
X573086Y493295D01*
X573298Y493333D01*
X573496Y493384D01*
X573681Y493448D01*
X573852Y493524D01*
X574009Y493614D01*
X574153Y493716D01*
X574283Y493831D01*
X574399Y493959D01*
X574501Y494100D01*
X574590Y494253D01*
X574666Y494420D01*
X574727Y494599D01*
X574775Y494792D01*
X574809Y494997D01*
X574830Y495215D01*
X574837Y495445D01*
X574829Y495677D01*
X574807Y495896D01*
X574771Y496102D01*
X574719Y496295D01*
X574653Y496476D01*
X574573Y496644D01*
X574477Y496799D01*
X574367Y496941D01*
X574243Y497068D01*
X574104Y497178D01*
X573951Y497271D01*
X573784Y497348D01*
X573603Y497407D01*
X573407Y497450D01*
X573198Y497475D01*
X572974Y497484D01*
X572778Y497474D01*
X572593Y497445D01*
X572419Y497396D01*
X572257Y497329D01*
X572105Y497241D01*
X571964Y497135D01*
X571835Y497009D01*
X571716Y496864D01*
X571610Y496700D01*
X571519Y496519D01*
X571441Y496321D01*
X571378Y496106D01*
X571328Y495874D01*
X571293Y495625D01*
X571272Y495358D01*
X571265Y495074D01*
X571265Y494360D01*
X570172Y494360D01*
X570172Y495046D01*
X570165Y495298D01*
X570144Y495535D01*
X570108Y495758D01*
X570059Y495966D01*
X569996Y496160D01*
X569918Y496339D01*
X569826Y496504D01*
X569720Y496654D01*
X569602Y496787D01*
X569473Y496903D01*
X569333Y497001D01*
X569182Y497082D01*
X569020Y497144D01*
X568848Y497189D01*
X568664Y497215D01*
X568470Y497224D01*
X568277Y497217D01*
X568095Y497195D01*
X567923Y497159D01*
X567762Y497108D01*
X567611Y497042D01*
X567470Y496962D01*
X567340Y496868D01*
X567220Y496759D01*
X567112Y496635D01*
X567019Y496498D01*
X566940Y496346D01*
X566876Y496180D01*
X566826Y496000D01*
X566790Y495806D01*
X566768Y495598D01*
X566761Y495375D01*
X566768Y495172D01*
X566788Y494979D01*
X566821Y494795D01*
X566868Y494622D01*
X566928Y494458D01*
X567001Y494304D01*
X567088Y494161D01*
X567188Y494027D01*
X567301Y493905D01*
X567424Y493797D01*
X567558Y493702D01*
X567703Y493620D01*
X567859Y493552D01*
X568026Y493497D01*
X568204Y493456D01*
X568393Y493428D01*
X568295Y492161D01*
X568000Y492207D01*
X567722Y492276D01*
X567461Y492368D01*
X567216Y492482D01*
X566988Y492619D01*
X566777Y492779D01*
X566582Y492961D01*
X566404Y493166D01*
X566245Y493390D01*
X566107Y493629D01*
X565990Y493884D01*
X565894Y494154D01*
X565820Y494440D01*
X565767Y494741D01*
X565735Y495057D01*
X565725Y495389D01*
X565735Y495750D01*
X565768Y496090D01*
X565822Y496410D01*
X565897Y496709D01*
X565994Y496987D01*
X566113Y497244D01*
X566253Y497481D01*
X566414Y497697D01*
X566595Y497890D01*
X566793Y498057D01*
X567008Y498199D01*
X567240Y498314D01*
X567489Y498404D01*
X567755Y498469D01*
X568037Y498507D01*
X568337Y498520D01*
X568568Y498512D01*
X568788Y498487D01*
X568996Y498446D01*
X569194Y498388D01*
X569381Y498314D01*
X569556Y498223D01*
X569721Y498115D01*
X569874Y497991D01*
X570016Y497852D01*
X570146Y497697D01*
X570265Y497527D01*
X570371Y497343D01*
X570465Y497143D01*
X570547Y496928D01*
X570618Y496699D01*
X570676Y496454D01*
X570704Y496454D01*
X570742Y496723D01*
X570795Y496977D01*
X570865Y497215D01*
X570949Y497438D01*
X571050Y497646D01*
X571167Y497838D01*
X571299Y498015D01*
X571447Y498177D01*
X571608Y498321D01*
X571779Y498447D01*
X571960Y498552D01*
X572151Y498639D01*
X572352Y498707D01*
X572563Y498755D01*
X572784Y498784D01*
X573016Y498793D01*
X573347Y498780D01*
X573660Y498739D01*
X573953Y498671D01*
X574227Y498576D01*
X574482Y498454D01*
X574717Y498305D01*
X574934Y498128D01*
X575131Y497925D01*
X575306Y497696D01*
X575459Y497444D01*
X575587Y497169D01*
X575693Y496871D01*
X575775Y496549D01*
X575833Y496204D01*
X575868Y495837D01*
X575880Y495445D01*
X575870Y495080D01*
X575838Y494734D01*
X575785Y494406D01*
X575711Y494098D01*
X575616Y493809D01*
X575500Y493538D01*
X575363Y493286D01*
X575204Y493054D01*
X575025Y492842D01*
X574826Y492652D01*
X574606Y492486D01*
X574366Y492342D01*
X574106Y492221D01*
X573826Y492122D01*
X573525Y492046D01*
X573205Y491993D01*
G37*
G36*
X601140Y481912D02*
X591272Y485939D01*
X591272Y487459D01*
X601140Y491423D01*
X601140Y490057D01*
X598254Y488930D01*
X598254Y484433D01*
X601140Y483299D01*
X601140Y481912D01*
G37*
%LPC*%
G36*
X597211Y484839D02*
X597211Y488530D01*
X593954Y487263D01*
X593439Y487067D01*
X592862Y486870D01*
X592280Y486681D01*
X592476Y486618D01*
X593140Y486401D01*
X593968Y486100D01*
X597211Y484839D01*
G37*
%LPD*%
G36*
X598906Y491775D02*
X597925Y491775D01*
X591272Y496293D01*
X591272Y497617D01*
X597911Y497617D01*
X597911Y499003D01*
X598906Y499003D01*
X598906Y497617D01*
X601140Y497617D01*
X601140Y496426D01*
X598906Y496426D01*
X598906Y491775D01*
G37*
%LPC*%
G36*
X597911Y492938D02*
X597911Y496426D01*
X592693Y496426D01*
X593065Y496230D01*
X593527Y495957D01*
X597253Y493428D01*
X597771Y493050D01*
X597911Y492938D01*
G37*
%LPD*%
G36*
X626540Y481912D02*
X616672Y485939D01*
X616672Y487459D01*
X626540Y491423D01*
X626540Y490057D01*
X623654Y488930D01*
X623654Y484433D01*
X626540Y483299D01*
X626540Y481912D01*
G37*
%LPC*%
G36*
X622611Y484839D02*
X622611Y488530D01*
X619354Y487263D01*
X618839Y487067D01*
X618262Y486870D01*
X617680Y486681D01*
X617876Y486618D01*
X618540Y486401D01*
X619368Y486100D01*
X622611Y484839D01*
G37*
%LPD*%
G36*
X624334Y492021D02*
X624187Y493295D01*
X624530Y493415D01*
X624827Y493573D01*
X625079Y493771D01*
X625285Y494008D01*
X625445Y494284D01*
X625559Y494599D01*
X625628Y494954D01*
X625651Y495347D01*
X625641Y495594D01*
X625612Y495828D01*
X625564Y496047D01*
X625497Y496253D01*
X625411Y496444D01*
X625306Y496622D01*
X625181Y496787D01*
X625038Y496937D01*
X624877Y497072D01*
X624703Y497188D01*
X624514Y497287D01*
X624310Y497368D01*
X624092Y497431D01*
X623860Y497476D01*
X623614Y497503D01*
X623353Y497512D01*
X623126Y497502D01*
X622910Y497475D01*
X622705Y497430D01*
X622511Y497367D01*
X622328Y497286D01*
X622157Y497187D01*
X621997Y497069D01*
X621847Y496934D01*
X621713Y496783D01*
X621596Y496620D01*
X621498Y496444D01*
X621417Y496255D01*
X621354Y496054D01*
X621309Y495840D01*
X621282Y495614D01*
X621273Y495375D01*
X621283Y495124D01*
X621313Y494882D01*
X621364Y494648D01*
X621434Y494423D01*
X621529Y494202D01*
X621651Y493982D01*
X621802Y493761D01*
X621981Y493540D01*
X621981Y492308D01*
X616672Y492637D01*
X616672Y498247D01*
X617743Y498247D01*
X617743Y493786D01*
X620874Y493596D01*
X620726Y493808D01*
X620598Y494031D01*
X620490Y494267D01*
X620401Y494516D01*
X620332Y494777D01*
X620283Y495050D01*
X620253Y495336D01*
X620244Y495635D01*
X620257Y495989D01*
X620297Y496326D01*
X620364Y496644D01*
X620457Y496943D01*
X620577Y497224D01*
X620724Y497487D01*
X620898Y497731D01*
X621098Y497956D01*
X621320Y498159D01*
X621558Y498335D01*
X621812Y498483D01*
X622082Y498605D01*
X622369Y498700D01*
X622671Y498767D01*
X622990Y498808D01*
X623325Y498821D01*
X623705Y498807D01*
X624065Y498763D01*
X624403Y498691D01*
X624721Y498589D01*
X625018Y498459D01*
X625294Y498299D01*
X625549Y498111D01*
X625784Y497893D01*
X625994Y497650D01*
X626176Y497384D01*
X626330Y497096D01*
X626456Y496786D01*
X626554Y496453D01*
X626624Y496097D01*
X626666Y495720D01*
X626680Y495319D01*
X626671Y494983D01*
X626642Y494663D01*
X626595Y494359D01*
X626530Y494073D01*
X626445Y493803D01*
X626341Y493549D01*
X626219Y493312D01*
X626078Y493092D01*
X625919Y492890D01*
X625743Y492707D01*
X625550Y492544D01*
X625341Y492401D01*
X625114Y492276D01*
X624871Y492172D01*
X624611Y492086D01*
X624334Y492021D01*
G37*
G36*
X255420Y86035D02*
X245552Y86035D01*
X245552Y89298D01*
X245571Y89907D01*
X245630Y90481D01*
X245728Y91018D01*
X245866Y91519D01*
X246043Y91985D01*
X246259Y92415D01*
X246514Y92810D01*
X246809Y93168D01*
X247140Y93487D01*
X247504Y93764D01*
X247901Y93998D01*
X248331Y94190D01*
X248795Y94339D01*
X249292Y94445D01*
X249821Y94509D01*
X250384Y94530D01*
X250760Y94521D01*
X251124Y94493D01*
X251476Y94447D01*
X251816Y94381D01*
X252144Y94298D01*
X252460Y94195D01*
X252764Y94074D01*
X253056Y93935D01*
X253334Y93778D01*
X253595Y93606D01*
X253840Y93418D01*
X254067Y93215D01*
X254278Y92997D01*
X254473Y92762D01*
X254650Y92512D01*
X254811Y92247D01*
X254954Y91969D01*
X255077Y91680D01*
X255182Y91380D01*
X255268Y91070D01*
X255334Y90750D01*
X255382Y90419D01*
X255411Y90078D01*
X255420Y89726D01*
X255420Y86035D01*
G37*
%LPC*%
G36*
X254348Y87372D02*
X254348Y89572D01*
X254341Y89839D01*
X254319Y90098D01*
X254281Y90349D01*
X254229Y90591D01*
X254162Y90826D01*
X254081Y91052D01*
X253984Y91270D01*
X253872Y91480D01*
X253747Y91680D01*
X253608Y91868D01*
X253456Y92044D01*
X253291Y92208D01*
X253113Y92360D01*
X252921Y92500D01*
X252717Y92628D01*
X252499Y92744D01*
X252270Y92848D01*
X252031Y92937D01*
X251782Y93013D01*
X251522Y93075D01*
X251253Y93123D01*
X250974Y93158D01*
X250684Y93179D01*
X250384Y93185D01*
X249939Y93170D01*
X249521Y93123D01*
X249131Y93044D01*
X248767Y92934D01*
X248431Y92793D01*
X248122Y92620D01*
X247841Y92416D01*
X247586Y92180D01*
X247361Y91915D01*
X247165Y91622D01*
X246999Y91300D01*
X246864Y90950D01*
X246759Y90573D01*
X246683Y90167D01*
X246638Y89733D01*
X246623Y89270D01*
X246623Y87372D01*
X254348Y87372D01*
G37*
%LPD*%
G36*
X255420Y75691D02*
X245552Y75691D01*
X245552Y77246D01*
X254012Y82583D01*
X252829Y82520D01*
X252023Y82499D01*
X245552Y82499D01*
X245552Y83703D01*
X255420Y83703D01*
X255420Y82092D01*
X247015Y76811D01*
X247695Y76847D01*
X248864Y76882D01*
X255420Y76882D01*
X255420Y75691D01*
G37*
G36*
X250440Y64079D02*
X249857Y64100D01*
X249307Y64160D01*
X248791Y64261D01*
X248309Y64402D01*
X247862Y64583D01*
X247448Y64804D01*
X247067Y65066D01*
X246721Y65368D01*
X246413Y65707D01*
X246145Y66078D01*
X245919Y66481D01*
X245734Y66918D01*
X245590Y67387D01*
X245487Y67888D01*
X245425Y68422D01*
X245405Y68989D01*
X245413Y69389D01*
X245439Y69770D01*
X245482Y70132D01*
X245543Y70474D01*
X245621Y70797D01*
X245716Y71101D01*
X245828Y71385D01*
X245958Y71650D01*
X246107Y71899D01*
X246276Y72132D01*
X246466Y72351D01*
X246678Y72556D01*
X246909Y72745D01*
X247162Y72920D01*
X247436Y73081D01*
X247730Y73226D01*
X248108Y71952D01*
X247716Y71722D01*
X247542Y71592D01*
X247381Y71452D01*
X247235Y71302D01*
X247103Y71142D01*
X246986Y70972D01*
X246882Y70793D01*
X246792Y70602D01*
X246714Y70401D01*
X246648Y70188D01*
X246594Y69963D01*
X246551Y69728D01*
X246521Y69481D01*
X246503Y69223D01*
X246497Y68954D01*
X246513Y68539D01*
X246562Y68150D01*
X246642Y67786D01*
X246755Y67446D01*
X246901Y67132D01*
X247078Y66844D01*
X247288Y66580D01*
X247530Y66342D01*
X247802Y66130D01*
X248100Y65946D01*
X248424Y65791D01*
X248774Y65664D01*
X249151Y65565D01*
X249555Y65495D01*
X249984Y65452D01*
X250440Y65438D01*
X250896Y65453D01*
X251326Y65498D01*
X251732Y65573D01*
X252113Y65678D01*
X252470Y65813D01*
X252802Y65978D01*
X253110Y66173D01*
X253392Y66398D01*
X253646Y66649D01*
X253866Y66923D01*
X254052Y67221D01*
X254204Y67541D01*
X254322Y67884D01*
X254407Y68251D01*
X254458Y68640D01*
X254475Y69052D01*
X254456Y69527D01*
X254401Y69986D01*
X254309Y70429D01*
X254180Y70856D01*
X254020Y71254D01*
X253834Y71613D01*
X253621Y71932D01*
X253382Y72211D01*
X251603Y72211D01*
X251603Y69262D01*
X250482Y69262D01*
X250482Y73443D01*
X253886Y73443D01*
X254263Y73029D01*
X254594Y72571D01*
X254881Y72068D01*
X255122Y71521D01*
X255225Y71233D01*
X255314Y70940D01*
X255389Y70640D01*
X255451Y70335D01*
X255499Y70023D01*
X255533Y69705D01*
X255553Y69382D01*
X255560Y69052D01*
X255550Y68672D01*
X255522Y68305D01*
X255473Y67951D01*
X255406Y67611D01*
X255319Y67284D01*
X255213Y66971D01*
X255088Y66670D01*
X254944Y66384D01*
X254781Y66112D01*
X254602Y65856D01*
X254405Y65618D01*
X254192Y65395D01*
X253961Y65189D01*
X253714Y65000D01*
X253450Y64827D01*
X253168Y64671D01*
X252872Y64533D01*
X252563Y64412D01*
X252241Y64311D01*
X251907Y64227D01*
X251559Y64163D01*
X251199Y64116D01*
X250826Y64089D01*
X250440Y64079D01*
G37*
G36*
X280820Y64535D02*
X270952Y64535D01*
X270952Y67798D01*
X270971Y68407D01*
X271030Y68981D01*
X271128Y69518D01*
X271266Y70019D01*
X271443Y70485D01*
X271659Y70915D01*
X271914Y71310D01*
X272209Y71668D01*
X272540Y71987D01*
X272904Y72264D01*
X273301Y72498D01*
X273731Y72690D01*
X274195Y72839D01*
X274692Y72945D01*
X275221Y73009D01*
X275784Y73030D01*
X276160Y73021D01*
X276524Y72993D01*
X276876Y72947D01*
X277216Y72881D01*
X277544Y72798D01*
X277860Y72695D01*
X278164Y72574D01*
X278456Y72435D01*
X278734Y72278D01*
X278995Y72106D01*
X279240Y71918D01*
X279467Y71715D01*
X279678Y71497D01*
X279873Y71262D01*
X280050Y71012D01*
X280211Y70747D01*
X280354Y70469D01*
X280477Y70180D01*
X280582Y69880D01*
X280668Y69570D01*
X280734Y69250D01*
X280782Y68919D01*
X280811Y68578D01*
X280820Y68226D01*
X280820Y64535D01*
G37*
%LPC*%
G36*
X279748Y65872D02*
X279748Y68072D01*
X279741Y68339D01*
X279719Y68598D01*
X279681Y68849D01*
X279629Y69091D01*
X279562Y69326D01*
X279481Y69552D01*
X279384Y69770D01*
X279272Y69980D01*
X279147Y70180D01*
X279008Y70368D01*
X278856Y70544D01*
X278691Y70708D01*
X278513Y70860D01*
X278321Y71000D01*
X278117Y71128D01*
X277899Y71244D01*
X277670Y71348D01*
X277431Y71437D01*
X277182Y71513D01*
X276922Y71575D01*
X276653Y71623D01*
X276374Y71658D01*
X276084Y71679D01*
X275784Y71685D01*
X275339Y71670D01*
X274921Y71623D01*
X274531Y71544D01*
X274167Y71434D01*
X273831Y71293D01*
X273522Y71120D01*
X273241Y70916D01*
X272986Y70680D01*
X272761Y70415D01*
X272565Y70122D01*
X272399Y69800D01*
X272264Y69450D01*
X272159Y69073D01*
X272083Y68667D01*
X272038Y68233D01*
X272023Y67770D01*
X272023Y65872D01*
X279748Y65872D01*
G37*
%LPD*%
G36*
X278285Y82217D02*
X278166Y83519D01*
X278378Y83557D01*
X278576Y83608D01*
X278761Y83672D01*
X278932Y83748D01*
X279089Y83838D01*
X279233Y83940D01*
X279363Y84055D01*
X279479Y84183D01*
X279581Y84324D01*
X279670Y84478D01*
X279746Y84644D01*
X279807Y84824D01*
X279855Y85016D01*
X279889Y85221D01*
X279910Y85439D01*
X279917Y85670D01*
X279909Y85901D01*
X279887Y86120D01*
X279851Y86326D01*
X279799Y86520D01*
X279733Y86700D01*
X279653Y86868D01*
X279557Y87023D01*
X279447Y87165D01*
X279323Y87292D01*
X279184Y87402D01*
X279031Y87496D01*
X278864Y87572D01*
X278683Y87631D01*
X278487Y87674D01*
X278278Y87699D01*
X278054Y87708D01*
X277858Y87698D01*
X277673Y87669D01*
X277499Y87621D01*
X277337Y87553D01*
X277185Y87466D01*
X277044Y87359D01*
X276915Y87233D01*
X276796Y87088D01*
X276690Y86924D01*
X276599Y86744D01*
X276521Y86546D01*
X276458Y86331D01*
X276408Y86098D01*
X276373Y85849D01*
X276352Y85582D01*
X276345Y85298D01*
X276345Y84584D01*
X275252Y84584D01*
X275252Y85270D01*
X275245Y85522D01*
X275224Y85760D01*
X275188Y85982D01*
X275139Y86191D01*
X275076Y86384D01*
X274998Y86563D01*
X274906Y86728D01*
X274800Y86878D01*
X274682Y87012D01*
X274553Y87128D01*
X274413Y87226D01*
X274262Y87306D01*
X274100Y87368D01*
X273928Y87413D01*
X273744Y87440D01*
X273550Y87449D01*
X273357Y87441D01*
X273175Y87420D01*
X273003Y87383D01*
X272842Y87332D01*
X272691Y87267D01*
X272550Y87187D01*
X272420Y87092D01*
X272300Y86983D01*
X272192Y86859D01*
X272099Y86722D01*
X272020Y86570D01*
X271956Y86404D01*
X271906Y86224D01*
X271870Y86030D01*
X271848Y85822D01*
X271841Y85600D01*
X271848Y85396D01*
X271868Y85203D01*
X271901Y85019D01*
X271948Y84846D01*
X272008Y84682D01*
X272081Y84529D01*
X272168Y84385D01*
X272268Y84251D01*
X272381Y84129D01*
X272504Y84021D01*
X272638Y83926D01*
X272783Y83844D01*
X272939Y83776D01*
X273106Y83722D01*
X273284Y83680D01*
X273473Y83653D01*
X273375Y82385D01*
X273080Y82431D01*
X272802Y82500D01*
X272541Y82592D01*
X272296Y82706D01*
X272068Y82843D01*
X271857Y83003D01*
X271662Y83185D01*
X271484Y83390D01*
X271325Y83614D01*
X271187Y83853D01*
X271070Y84108D01*
X270974Y84378D01*
X270900Y84664D01*
X270847Y84965D01*
X270815Y85282D01*
X270805Y85614D01*
X270815Y85974D01*
X270848Y86315D01*
X270902Y86634D01*
X270977Y86933D01*
X271074Y87211D01*
X271193Y87469D01*
X271333Y87705D01*
X271494Y87921D01*
X271675Y88114D01*
X271873Y88281D01*
X272088Y88423D01*
X272320Y88539D01*
X272569Y88629D01*
X272835Y88693D01*
X273117Y88731D01*
X273417Y88744D01*
X273648Y88736D01*
X273868Y88711D01*
X274076Y88670D01*
X274274Y88612D01*
X274461Y88538D01*
X274636Y88447D01*
X274801Y88339D01*
X274954Y88216D01*
X275096Y88076D01*
X275226Y87921D01*
X275345Y87751D01*
X275451Y87567D01*
X275545Y87367D01*
X275627Y87152D01*
X275698Y86923D01*
X275756Y86678D01*
X275784Y86678D01*
X275822Y86947D01*
X275875Y87201D01*
X275945Y87439D01*
X276029Y87662D01*
X276130Y87870D01*
X276247Y88062D01*
X276379Y88239D01*
X276527Y88401D01*
X276688Y88546D01*
X276859Y88671D01*
X277040Y88777D01*
X277231Y88863D01*
X277432Y88931D01*
X277643Y88979D01*
X277864Y89008D01*
X278096Y89017D01*
X278427Y89004D01*
X278740Y88963D01*
X279033Y88895D01*
X279307Y88800D01*
X279562Y88678D01*
X279797Y88529D01*
X280014Y88353D01*
X280211Y88149D01*
X280386Y87920D01*
X280539Y87668D01*
X280667Y87393D01*
X280773Y87095D01*
X280855Y86773D01*
X280913Y86429D01*
X280948Y86061D01*
X280960Y85670D01*
X280950Y85304D01*
X280918Y84958D01*
X280865Y84631D01*
X280791Y84322D01*
X280696Y84033D01*
X280580Y83762D01*
X280443Y83511D01*
X280284Y83278D01*
X280105Y83066D01*
X279906Y82877D01*
X279686Y82710D01*
X279446Y82566D01*
X279186Y82445D01*
X278906Y82346D01*
X278605Y82270D01*
X278285Y82217D01*
G37*
G36*
X280820Y74794D02*
X279748Y74794D01*
X279748Y77309D01*
X272156Y77309D01*
X273746Y75081D01*
X272556Y75081D01*
X270952Y77414D01*
X270952Y78576D01*
X279748Y78576D01*
X279748Y80979D01*
X280820Y80979D01*
X280820Y74794D01*
G37*
G36*
X306220Y64535D02*
X296352Y64535D01*
X296352Y67798D01*
X296371Y68407D01*
X296430Y68981D01*
X296528Y69518D01*
X296666Y70019D01*
X296843Y70485D01*
X297059Y70915D01*
X297314Y71310D01*
X297609Y71668D01*
X297940Y71987D01*
X298304Y72264D01*
X298701Y72498D01*
X299131Y72690D01*
X299595Y72839D01*
X300092Y72945D01*
X300621Y73009D01*
X301184Y73030D01*
X301560Y73021D01*
X301924Y72993D01*
X302276Y72947D01*
X302616Y72881D01*
X302944Y72798D01*
X303260Y72695D01*
X303564Y72574D01*
X303856Y72435D01*
X304134Y72278D01*
X304395Y72106D01*
X304640Y71918D01*
X304867Y71715D01*
X305078Y71497D01*
X305273Y71262D01*
X305450Y71012D01*
X305611Y70747D01*
X305754Y70469D01*
X305877Y70180D01*
X305982Y69880D01*
X306068Y69570D01*
X306134Y69250D01*
X306182Y68919D01*
X306211Y68578D01*
X306220Y68226D01*
X306220Y64535D01*
G37*
%LPC*%
G36*
X305148Y65872D02*
X305148Y68072D01*
X305141Y68339D01*
X305119Y68598D01*
X305081Y68849D01*
X305029Y69091D01*
X304962Y69326D01*
X304881Y69552D01*
X304784Y69770D01*
X304672Y69980D01*
X304547Y70180D01*
X304408Y70368D01*
X304256Y70544D01*
X304091Y70708D01*
X303913Y70860D01*
X303721Y71000D01*
X303517Y71128D01*
X303299Y71244D01*
X303070Y71348D01*
X302831Y71437D01*
X302582Y71513D01*
X302322Y71575D01*
X302053Y71623D01*
X301774Y71658D01*
X301484Y71679D01*
X301184Y71685D01*
X300739Y71670D01*
X300321Y71623D01*
X299931Y71544D01*
X299567Y71434D01*
X299231Y71293D01*
X298922Y71120D01*
X298641Y70916D01*
X298386Y70680D01*
X298161Y70415D01*
X297965Y70122D01*
X297799Y69800D01*
X297664Y69450D01*
X297559Y69073D01*
X297483Y68667D01*
X297438Y68233D01*
X297423Y67770D01*
X297423Y65872D01*
X305148Y65872D01*
G37*
%LPD*%
G36*
X306220Y82392D02*
X305331Y82392D01*
X304933Y82580D01*
X304559Y82788D01*
X304210Y83016D01*
X303884Y83264D01*
X303287Y83792D01*
X302750Y84346D01*
X302260Y84911D01*
X301808Y85470D01*
X301373Y86000D01*
X300939Y86475D01*
X300719Y86688D01*
X300494Y86880D01*
X300264Y87051D01*
X300029Y87200D01*
X299783Y87321D01*
X299521Y87407D01*
X299243Y87459D01*
X298950Y87477D01*
X298753Y87469D01*
X298567Y87447D01*
X298392Y87410D01*
X298229Y87358D01*
X298077Y87291D01*
X297936Y87209D01*
X297807Y87112D01*
X297689Y87000D01*
X297584Y86876D01*
X297493Y86739D01*
X297416Y86591D01*
X297353Y86431D01*
X297304Y86260D01*
X297269Y86077D01*
X297248Y85883D01*
X297241Y85677D01*
X297248Y85480D01*
X297269Y85292D01*
X297303Y85112D01*
X297351Y84942D01*
X297412Y84781D01*
X297487Y84628D01*
X297679Y84349D01*
X297794Y84226D01*
X297920Y84115D01*
X298057Y84019D01*
X298205Y83935D01*
X298364Y83865D01*
X298534Y83809D01*
X298716Y83766D01*
X298908Y83737D01*
X298789Y82448D01*
X298501Y82494D01*
X298227Y82563D01*
X297969Y82655D01*
X297726Y82769D01*
X297498Y82906D01*
X297285Y83066D01*
X297088Y83248D01*
X296905Y83453D01*
X296741Y83677D01*
X296599Y83916D01*
X296478Y84171D01*
X296380Y84441D01*
X296303Y84727D01*
X296248Y85028D01*
X296216Y85345D01*
X296205Y85677D01*
X296216Y86039D01*
X296249Y86379D01*
X296304Y86699D01*
X296381Y86996D01*
X296480Y87272D01*
X296601Y87526D01*
X296744Y87759D01*
X296909Y87970D01*
X297094Y88158D01*
X297297Y88321D01*
X297520Y88459D01*
X297760Y88572D01*
X298020Y88660D01*
X298297Y88722D01*
X298593Y88760D01*
X298908Y88772D01*
X299195Y88756D01*
X299481Y88707D01*
X299766Y88625D01*
X300050Y88510D01*
X300333Y88362D01*
X300617Y88183D01*
X300901Y87972D01*
X301184Y87729D01*
X301507Y87411D01*
X301907Y86974D01*
X302386Y86420D01*
X302942Y85747D01*
X303568Y85024D01*
X303857Y84724D01*
X304129Y84465D01*
X304391Y84244D01*
X304649Y84055D01*
X304901Y83900D01*
X305148Y83779D01*
X305148Y88926D01*
X306220Y88926D01*
X306220Y82392D01*
G37*
G36*
X306220Y74794D02*
X305148Y74794D01*
X305148Y77309D01*
X297556Y77309D01*
X299146Y75081D01*
X297956Y75081D01*
X296352Y77414D01*
X296352Y78576D01*
X305148Y78576D01*
X305148Y80979D01*
X306220Y80979D01*
X306220Y74794D01*
G37*
G36*
X331620Y72910D02*
X321752Y72910D01*
X321752Y76173D01*
X321771Y76782D01*
X321830Y77356D01*
X321928Y77893D01*
X322066Y78394D01*
X322243Y78860D01*
X322459Y79290D01*
X322714Y79685D01*
X323009Y80043D01*
X323340Y80362D01*
X323704Y80639D01*
X324101Y80873D01*
X324531Y81065D01*
X324995Y81214D01*
X325492Y81320D01*
X326021Y81384D01*
X326584Y81405D01*
X326960Y81396D01*
X327324Y81368D01*
X327676Y81322D01*
X328016Y81256D01*
X328344Y81173D01*
X328660Y81070D01*
X328964Y80949D01*
X329256Y80810D01*
X329534Y80653D01*
X329795Y80481D01*
X330040Y80293D01*
X330267Y80090D01*
X330478Y79872D01*
X330673Y79637D01*
X330850Y79387D01*
X331011Y79122D01*
X331154Y78844D01*
X331277Y78555D01*
X331382Y78255D01*
X331468Y77945D01*
X331534Y77625D01*
X331582Y77294D01*
X331611Y76953D01*
X331620Y76601D01*
X331620Y72910D01*
G37*
%LPC*%
G36*
X330548Y74247D02*
X330548Y76447D01*
X330541Y76714D01*
X330519Y76973D01*
X330481Y77224D01*
X330429Y77466D01*
X330362Y77701D01*
X330281Y77927D01*
X330184Y78145D01*
X330072Y78355D01*
X329947Y78555D01*
X329808Y78743D01*
X329656Y78919D01*
X329491Y79083D01*
X329313Y79235D01*
X329121Y79375D01*
X328917Y79503D01*
X328699Y79619D01*
X328470Y79723D01*
X328231Y79812D01*
X327982Y79888D01*
X327722Y79950D01*
X327453Y79998D01*
X327174Y80033D01*
X326884Y80054D01*
X326584Y80060D01*
X326139Y80045D01*
X325721Y79998D01*
X325331Y79919D01*
X324967Y79809D01*
X324631Y79668D01*
X324322Y79495D01*
X324041Y79291D01*
X323786Y79055D01*
X323561Y78790D01*
X323365Y78497D01*
X323199Y78175D01*
X323064Y77825D01*
X322959Y77448D01*
X322883Y77042D01*
X322838Y76608D01*
X322823Y76145D01*
X322823Y74247D01*
X330548Y74247D01*
G37*
%LPD*%
G36*
X331620Y83169D02*
X330548Y83169D01*
X330548Y85684D01*
X322956Y85684D01*
X324546Y83456D01*
X323356Y83456D01*
X321752Y85789D01*
X321752Y86951D01*
X330548Y86951D01*
X330548Y89354D01*
X331620Y89354D01*
X331620Y83169D01*
G37*
G36*
X331620Y90076D02*
X330548Y90076D01*
X330548Y92590D01*
X322956Y92590D01*
X324546Y90363D01*
X323356Y90363D01*
X321752Y92695D01*
X321752Y93858D01*
X330548Y93858D01*
X330548Y96260D01*
X331620Y96260D01*
X331620Y90076D01*
G37*
G36*
X327558Y64002D02*
X326556Y64002D01*
X326418Y64201D01*
X326299Y64409D01*
X326198Y64626D01*
X326115Y64852D01*
X326051Y65086D01*
X326005Y65330D01*
X325977Y65583D01*
X325968Y65844D01*
X325991Y66229D01*
X326059Y66653D01*
X326208Y67214D01*
X326472Y68009D01*
X326564Y68276D01*
X326672Y68646D01*
X326759Y69040D01*
X326780Y69217D01*
X326787Y69381D01*
X326777Y69607D01*
X326747Y69829D01*
X326697Y70048D01*
X326626Y70264D01*
X326536Y70476D01*
X326425Y70684D01*
X326294Y70889D01*
X326143Y71090D01*
X327187Y71090D01*
X327324Y70887D01*
X327441Y70683D01*
X327537Y70479D01*
X327614Y70274D01*
X327672Y70058D01*
X327714Y69818D01*
X327739Y69555D01*
X327747Y69269D01*
X327737Y69026D01*
X327708Y68780D01*
X327660Y68531D01*
X327593Y68278D01*
X327257Y67259D01*
X327119Y66825D01*
X327020Y66427D01*
X326961Y66065D01*
X326942Y65739D01*
X326950Y65509D01*
X326977Y65286D01*
X327022Y65071D01*
X327085Y64864D01*
X327168Y64658D01*
X327275Y64445D01*
X327405Y64227D01*
X327558Y64002D01*
G37*
G36*
X230020Y74097D02*
X220152Y74097D01*
X220152Y78741D01*
X220163Y79145D01*
X220198Y79527D01*
X220257Y79884D01*
X220338Y80218D01*
X220443Y80527D01*
X220571Y80814D01*
X220723Y81076D01*
X220898Y81315D01*
X221093Y81527D01*
X221307Y81711D01*
X221539Y81867D01*
X221790Y81995D01*
X222058Y82094D01*
X222345Y82165D01*
X222651Y82207D01*
X222974Y82222D01*
X223244Y82212D01*
X223502Y82181D01*
X223750Y82131D01*
X223986Y82061D01*
X224212Y81971D01*
X224427Y81861D01*
X224630Y81731D01*
X224823Y81581D01*
X225002Y81413D01*
X225163Y81230D01*
X225307Y81032D01*
X225360Y80943D01*
X225434Y80818D01*
X225544Y80589D01*
X225636Y80346D01*
X225711Y80087D01*
X225769Y79812D01*
X227578Y81005D01*
X230020Y82614D01*
X230020Y81073D01*
X225923Y78510D01*
X225923Y75435D01*
X230020Y75435D01*
X230020Y74097D01*
G37*
%LPC*%
G36*
X224865Y75435D02*
X224865Y78664D01*
X224858Y78920D01*
X224834Y79162D01*
X224796Y79389D01*
X224742Y79601D01*
X224672Y79798D01*
X224588Y79980D01*
X224487Y80147D01*
X224371Y80299D01*
X224242Y80434D01*
X224100Y80552D01*
X223946Y80651D01*
X223779Y80732D01*
X223600Y80796D01*
X223408Y80841D01*
X223204Y80868D01*
X222988Y80877D01*
X222779Y80868D01*
X222583Y80840D01*
X222400Y80795D01*
X222229Y80731D01*
X222071Y80648D01*
X221927Y80548D01*
X221794Y80429D01*
X221675Y80292D01*
X221569Y80138D01*
X221477Y79967D01*
X221400Y79781D01*
X221336Y79578D01*
X221287Y79360D01*
X221252Y79125D01*
X221230Y78874D01*
X221223Y78608D01*
X221223Y75435D01*
X224865Y75435D01*
G37*
%LPD*%
G36*
X230020Y63386D02*
X220152Y67413D01*
X220152Y68933D01*
X230020Y72897D01*
X230020Y71531D01*
X227134Y70404D01*
X227134Y65907D01*
X230020Y64773D01*
X230020Y63386D01*
G37*
%LPC*%
G36*
X226091Y66314D02*
X226091Y70005D01*
X222834Y68737D01*
X222319Y68541D01*
X221742Y68345D01*
X221160Y68156D01*
X221356Y68093D01*
X222020Y67875D01*
X222848Y67574D01*
X226091Y66314D01*
G37*
%LPD*%
G36*
X230020Y84441D02*
X220152Y84441D01*
X220152Y91928D01*
X221244Y91928D01*
X221244Y85779D01*
X224410Y85779D01*
X224410Y91508D01*
X225489Y91508D01*
X225489Y85779D01*
X228927Y85779D01*
X228927Y92215D01*
X230020Y92215D01*
X230020Y84441D01*
G37*
G36*
X230020Y94003D02*
X220152Y94003D01*
X220152Y101014D01*
X221244Y101014D01*
X221244Y95341D01*
X224914Y95341D01*
X224914Y100846D01*
X226021Y100846D01*
X226021Y95341D01*
X230020Y95341D01*
X230020Y94003D01*
G37*
G36*
X357020Y72910D02*
X347152Y72910D01*
X347152Y76173D01*
X347171Y76782D01*
X347230Y77356D01*
X347328Y77893D01*
X347466Y78394D01*
X347643Y78860D01*
X347859Y79290D01*
X348114Y79685D01*
X348409Y80043D01*
X348740Y80362D01*
X349104Y80639D01*
X349501Y80873D01*
X349931Y81065D01*
X350395Y81214D01*
X350892Y81320D01*
X351421Y81384D01*
X351984Y81405D01*
X352360Y81396D01*
X352724Y81368D01*
X353076Y81322D01*
X353416Y81256D01*
X353744Y81173D01*
X354060Y81070D01*
X354364Y80949D01*
X354656Y80810D01*
X354934Y80653D01*
X355195Y80481D01*
X355440Y80293D01*
X355667Y80090D01*
X355878Y79872D01*
X356073Y79637D01*
X356250Y79387D01*
X356411Y79122D01*
X356554Y78844D01*
X356677Y78555D01*
X356782Y78255D01*
X356868Y77945D01*
X356934Y77625D01*
X356982Y77294D01*
X357011Y76953D01*
X357020Y76601D01*
X357020Y72910D01*
G37*
%LPC*%
G36*
X355948Y74247D02*
X355948Y76447D01*
X355941Y76714D01*
X355919Y76973D01*
X355881Y77224D01*
X355829Y77466D01*
X355762Y77701D01*
X355681Y77927D01*
X355584Y78145D01*
X355472Y78355D01*
X355347Y78555D01*
X355208Y78743D01*
X355056Y78919D01*
X354891Y79083D01*
X354713Y79235D01*
X354521Y79375D01*
X354317Y79503D01*
X354099Y79619D01*
X353870Y79723D01*
X353631Y79812D01*
X353382Y79888D01*
X353122Y79950D01*
X352853Y79998D01*
X352574Y80033D01*
X352284Y80054D01*
X351984Y80060D01*
X351539Y80045D01*
X351121Y79998D01*
X350731Y79919D01*
X350367Y79809D01*
X350031Y79668D01*
X349722Y79495D01*
X349441Y79291D01*
X349186Y79055D01*
X348961Y78790D01*
X348765Y78497D01*
X348599Y78175D01*
X348464Y77825D01*
X348359Y77448D01*
X348283Y77042D01*
X348238Y76608D01*
X348223Y76145D01*
X348223Y74247D01*
X355948Y74247D01*
G37*
%LPD*%
G36*
X352082Y90606D02*
X351467Y90619D01*
X350891Y90658D01*
X350355Y90723D01*
X349859Y90813D01*
X349402Y90930D01*
X348986Y91073D01*
X348609Y91241D01*
X348272Y91436D01*
X347975Y91658D01*
X347718Y91911D01*
X347500Y92194D01*
X347322Y92506D01*
X347183Y92849D01*
X347084Y93222D01*
X347024Y93625D01*
X347005Y94059D01*
X347025Y94480D01*
X347085Y94874D01*
X347185Y95238D01*
X347325Y95574D01*
X347505Y95882D01*
X347726Y96160D01*
X347986Y96411D01*
X348286Y96633D01*
X348626Y96827D01*
X349004Y96996D01*
X349421Y97138D01*
X349876Y97255D01*
X350370Y97346D01*
X350902Y97411D01*
X351473Y97450D01*
X352082Y97463D01*
X352682Y97449D01*
X353245Y97408D01*
X353772Y97340D01*
X354262Y97245D01*
X354716Y97122D01*
X355133Y96972D01*
X355513Y96795D01*
X355857Y96591D01*
X356163Y96360D01*
X356427Y96103D01*
X356651Y95820D01*
X356834Y95511D01*
X356977Y95176D01*
X357079Y94816D01*
X357140Y94429D01*
X357160Y94017D01*
X357140Y93604D01*
X357079Y93219D01*
X356978Y92859D01*
X356836Y92527D01*
X356654Y92220D01*
X356431Y91940D01*
X356168Y91687D01*
X355864Y91460D01*
X355522Y91260D01*
X355142Y91086D01*
X354725Y90940D01*
X354271Y90819D01*
X353780Y90726D01*
X353251Y90659D01*
X352685Y90619D01*
X352082Y90606D01*
G37*
%LPC*%
G36*
X352082Y91880D02*
X352590Y91889D01*
X353062Y91913D01*
X353500Y91953D01*
X353902Y92009D01*
X354268Y92082D01*
X354600Y92170D01*
X354896Y92275D01*
X355157Y92395D01*
X355385Y92533D01*
X355583Y92691D01*
X355750Y92867D01*
X355887Y93062D01*
X355994Y93275D01*
X356070Y93508D01*
X356115Y93760D01*
X356131Y94031D01*
X356115Y94300D01*
X356068Y94550D01*
X355991Y94782D01*
X355882Y94995D01*
X355742Y95190D01*
X355571Y95366D01*
X355369Y95524D01*
X355136Y95663D01*
X354871Y95784D01*
X354572Y95889D01*
X354240Y95978D01*
X353875Y96051D01*
X353477Y96108D01*
X353045Y96148D01*
X352581Y96173D01*
X352082Y96181D01*
X351567Y96173D01*
X351088Y96150D01*
X350646Y96111D01*
X350240Y96057D01*
X349872Y95988D01*
X349540Y95903D01*
X349245Y95803D01*
X348987Y95687D01*
X348762Y95554D01*
X348567Y95400D01*
X348402Y95227D01*
X348267Y95033D01*
X348162Y94820D01*
X348087Y94586D01*
X348042Y94332D01*
X348027Y94059D01*
X348042Y93778D01*
X348086Y93518D01*
X348160Y93279D01*
X348264Y93060D01*
X348397Y92861D01*
X348559Y92683D01*
X348751Y92525D01*
X348973Y92388D01*
X349228Y92269D01*
X349522Y92166D01*
X349853Y92079D01*
X350223Y92007D01*
X350631Y91952D01*
X351076Y91912D01*
X351560Y91888D01*
X352082Y91880D01*
G37*
%LPD*%
G36*
X357020Y83169D02*
X355948Y83169D01*
X355948Y85684D01*
X348356Y85684D01*
X349946Y83456D01*
X348756Y83456D01*
X347152Y85789D01*
X347152Y86951D01*
X355948Y86951D01*
X355948Y89354D01*
X357020Y89354D01*
X357020Y83169D01*
G37*
G36*
X352958Y64002D02*
X351956Y64002D01*
X351818Y64201D01*
X351699Y64409D01*
X351598Y64626D01*
X351515Y64852D01*
X351451Y65086D01*
X351405Y65330D01*
X351377Y65583D01*
X351368Y65844D01*
X351391Y66229D01*
X351459Y66653D01*
X351608Y67214D01*
X351872Y68009D01*
X351964Y68276D01*
X352072Y68646D01*
X352159Y69040D01*
X352180Y69217D01*
X352187Y69381D01*
X352177Y69607D01*
X352147Y69829D01*
X352097Y70048D01*
X352026Y70264D01*
X351936Y70476D01*
X351825Y70684D01*
X351694Y70889D01*
X351543Y71090D01*
X352587Y71090D01*
X352724Y70887D01*
X352841Y70683D01*
X352937Y70479D01*
X353014Y70274D01*
X353072Y70058D01*
X353114Y69818D01*
X353139Y69555D01*
X353147Y69269D01*
X353137Y69026D01*
X353108Y68780D01*
X353060Y68531D01*
X352993Y68278D01*
X352657Y67259D01*
X352519Y66825D01*
X352420Y66427D01*
X352361Y66065D01*
X352342Y65739D01*
X352350Y65509D01*
X352377Y65286D01*
X352422Y65071D01*
X352485Y64864D01*
X352568Y64658D01*
X352675Y64445D01*
X352805Y64227D01*
X352958Y64002D01*
G37*
G36*
X382420Y64535D02*
X372552Y64535D01*
X372552Y67798D01*
X372571Y68407D01*
X372630Y68981D01*
X372728Y69518D01*
X372866Y70019D01*
X373043Y70485D01*
X373259Y70915D01*
X373514Y71310D01*
X373809Y71668D01*
X374140Y71987D01*
X374504Y72264D01*
X374901Y72498D01*
X375331Y72690D01*
X375795Y72839D01*
X376292Y72945D01*
X376821Y73009D01*
X377384Y73030D01*
X377760Y73021D01*
X378124Y72993D01*
X378476Y72947D01*
X378816Y72881D01*
X379144Y72798D01*
X379460Y72695D01*
X379764Y72574D01*
X380056Y72435D01*
X380334Y72278D01*
X380595Y72106D01*
X380840Y71918D01*
X381067Y71715D01*
X381278Y71497D01*
X381473Y71262D01*
X381650Y71012D01*
X381811Y70747D01*
X381954Y70469D01*
X382077Y70180D01*
X382182Y69880D01*
X382268Y69570D01*
X382334Y69250D01*
X382382Y68919D01*
X382411Y68578D01*
X382420Y68226D01*
X382420Y64535D01*
G37*
%LPC*%
G36*
X381348Y65872D02*
X381348Y68072D01*
X381341Y68339D01*
X381319Y68598D01*
X381281Y68849D01*
X381229Y69091D01*
X381162Y69326D01*
X381081Y69552D01*
X380984Y69770D01*
X380872Y69980D01*
X380747Y70180D01*
X380608Y70368D01*
X380456Y70544D01*
X380291Y70708D01*
X380113Y70860D01*
X379921Y71000D01*
X379717Y71128D01*
X379499Y71244D01*
X379270Y71348D01*
X379031Y71437D01*
X378782Y71513D01*
X378522Y71575D01*
X378253Y71623D01*
X377974Y71658D01*
X377684Y71679D01*
X377384Y71685D01*
X376939Y71670D01*
X376521Y71623D01*
X376131Y71544D01*
X375767Y71434D01*
X375431Y71293D01*
X375122Y71120D01*
X374841Y70916D01*
X374586Y70680D01*
X374361Y70415D01*
X374165Y70122D01*
X373999Y69800D01*
X373864Y69450D01*
X373759Y69073D01*
X373683Y68667D01*
X373638Y68233D01*
X373623Y67770D01*
X373623Y65872D01*
X381348Y65872D01*
G37*
%LPD*%
G36*
X375724Y74374D02*
X375348Y74388D01*
X374992Y74428D01*
X374657Y74496D01*
X374342Y74591D01*
X374048Y74713D01*
X373775Y74863D01*
X373522Y75039D01*
X373291Y75243D01*
X373083Y75470D01*
X372903Y75719D01*
X372751Y75989D01*
X372626Y76281D01*
X372529Y76594D01*
X372460Y76927D01*
X372418Y77283D01*
X372405Y77659D01*
X372424Y78058D01*
X372481Y78432D01*
X372576Y78781D01*
X372709Y79105D01*
X372881Y79404D01*
X373090Y79679D01*
X373338Y79928D01*
X373623Y80152D01*
X373947Y80351D01*
X374309Y80523D01*
X374710Y80669D01*
X375148Y80788D01*
X375625Y80881D01*
X376141Y80947D01*
X376694Y80986D01*
X377286Y81000D01*
X377903Y80985D01*
X378484Y80942D01*
X379028Y80869D01*
X379534Y80768D01*
X380005Y80637D01*
X380438Y80478D01*
X380835Y80289D01*
X381194Y80072D01*
X381514Y79827D01*
X381792Y79558D01*
X382027Y79265D01*
X382219Y78947D01*
X382368Y78604D01*
X382475Y78236D01*
X382539Y77844D01*
X382560Y77428D01*
X382552Y77146D01*
X382530Y76879D01*
X382492Y76626D01*
X382438Y76387D01*
X382370Y76162D01*
X382286Y75952D01*
X382187Y75757D01*
X382073Y75575D01*
X381942Y75407D01*
X381793Y75252D01*
X381624Y75108D01*
X381437Y74977D01*
X381231Y74859D01*
X381006Y74753D01*
X380763Y74659D01*
X380501Y74577D01*
X380312Y75782D01*
X380601Y75891D01*
X380851Y76028D01*
X381063Y76194D01*
X381236Y76388D01*
X381371Y76610D01*
X381468Y76861D01*
X381525Y77141D01*
X381545Y77449D01*
X381529Y77713D01*
X381482Y77961D01*
X381403Y78194D01*
X381292Y78412D01*
X381151Y78614D01*
X380977Y78801D01*
X380772Y78973D01*
X380536Y79130D01*
X380270Y79270D01*
X379978Y79392D01*
X379658Y79496D01*
X379312Y79583D01*
X378939Y79652D01*
X378539Y79704D01*
X378112Y79737D01*
X377657Y79753D01*
X377957Y79588D01*
X378226Y79373D01*
X378463Y79108D01*
X378670Y78794D01*
X378837Y78446D01*
X378956Y78081D01*
X379027Y77700D01*
X379051Y77302D01*
X379037Y76977D01*
X378994Y76670D01*
X378923Y76379D01*
X378824Y76104D01*
X378696Y75846D01*
X378539Y75605D01*
X378354Y75380D01*
X378141Y75173D01*
X377904Y74985D01*
X377648Y74823D01*
X377374Y74686D01*
X377081Y74574D01*
X376770Y74486D01*
X376440Y74424D01*
X376092Y74387D01*
X375724Y74374D01*
G37*
%LPC*%
G36*
X375724Y75656D02*
X375987Y75664D01*
X376235Y75689D01*
X376470Y75730D01*
X376690Y75787D01*
X376896Y75861D01*
X377088Y75951D01*
X377266Y76058D01*
X377430Y76181D01*
X377577Y76318D01*
X377704Y76467D01*
X377812Y76627D01*
X377900Y76799D01*
X377969Y76983D01*
X378017Y77178D01*
X378047Y77385D01*
X378057Y77603D01*
X378041Y77871D01*
X377995Y78130D01*
X377917Y78379D01*
X377808Y78618D01*
X377671Y78841D01*
X377508Y79038D01*
X377319Y79210D01*
X377104Y79357D01*
X376869Y79475D01*
X376617Y79560D01*
X376350Y79610D01*
X376068Y79627D01*
X375777Y79618D01*
X375501Y79593D01*
X375240Y79550D01*
X374993Y79490D01*
X374761Y79414D01*
X374544Y79320D01*
X374341Y79209D01*
X374152Y79081D01*
X373982Y78938D01*
X373835Y78784D01*
X373710Y78619D01*
X373608Y78442D01*
X373529Y78253D01*
X373472Y78052D01*
X373438Y77840D01*
X373427Y77617D01*
X373437Y77395D01*
X373466Y77186D01*
X373514Y76988D01*
X373582Y76803D01*
X373669Y76629D01*
X373776Y76468D01*
X373902Y76318D01*
X374047Y76181D01*
X374209Y76058D01*
X374384Y75951D01*
X374573Y75861D01*
X374776Y75787D01*
X374993Y75730D01*
X375223Y75689D01*
X375467Y75664D01*
X375724Y75656D01*
G37*
%LPD*%
G36*
X407820Y64535D02*
X397952Y64535D01*
X397952Y67798D01*
X397971Y68407D01*
X398030Y68981D01*
X398128Y69518D01*
X398266Y70019D01*
X398443Y70485D01*
X398659Y70915D01*
X398914Y71310D01*
X399209Y71668D01*
X399540Y71987D01*
X399904Y72264D01*
X400301Y72498D01*
X400731Y72690D01*
X401195Y72839D01*
X401692Y72945D01*
X402221Y73009D01*
X402784Y73030D01*
X403160Y73021D01*
X403524Y72993D01*
X403876Y72947D01*
X404216Y72881D01*
X404544Y72798D01*
X404860Y72695D01*
X405164Y72574D01*
X405456Y72435D01*
X405734Y72278D01*
X405995Y72106D01*
X406240Y71918D01*
X406467Y71715D01*
X406678Y71497D01*
X406873Y71262D01*
X407050Y71012D01*
X407211Y70747D01*
X407354Y70469D01*
X407477Y70180D01*
X407582Y69880D01*
X407668Y69570D01*
X407734Y69250D01*
X407782Y68919D01*
X407811Y68578D01*
X407820Y68226D01*
X407820Y64535D01*
G37*
%LPC*%
G36*
X406748Y65872D02*
X406748Y68072D01*
X406741Y68339D01*
X406719Y68598D01*
X406681Y68849D01*
X406629Y69091D01*
X406562Y69326D01*
X406481Y69552D01*
X406384Y69770D01*
X406272Y69980D01*
X406147Y70180D01*
X406008Y70368D01*
X405856Y70544D01*
X405691Y70708D01*
X405513Y70860D01*
X405321Y71000D01*
X405117Y71128D01*
X404899Y71244D01*
X404670Y71348D01*
X404431Y71437D01*
X404182Y71513D01*
X403922Y71575D01*
X403653Y71623D01*
X403374Y71658D01*
X403084Y71679D01*
X402784Y71685D01*
X402339Y71670D01*
X401921Y71623D01*
X401531Y71544D01*
X401167Y71434D01*
X400831Y71293D01*
X400522Y71120D01*
X400241Y70916D01*
X399986Y70680D01*
X399761Y70415D01*
X399565Y70122D01*
X399399Y69800D01*
X399264Y69450D01*
X399159Y69073D01*
X399083Y68667D01*
X399038Y68233D01*
X399023Y67770D01*
X399023Y65872D01*
X406748Y65872D01*
G37*
%LPD*%
G36*
X405082Y74325D02*
X404845Y74334D01*
X404618Y74360D01*
X404400Y74403D01*
X404192Y74463D01*
X403994Y74541D01*
X403805Y74636D01*
X403626Y74749D01*
X403457Y74878D01*
X403300Y75022D01*
X403160Y75174D01*
X403036Y75337D01*
X402928Y75509D01*
X402836Y75690D01*
X402761Y75882D01*
X402701Y76083D01*
X402658Y76293D01*
X402630Y76293D01*
X402576Y76097D01*
X402508Y75912D01*
X402426Y75737D01*
X402331Y75573D01*
X402221Y75419D01*
X402098Y75276D01*
X401961Y75144D01*
X401811Y75022D01*
X401482Y74818D01*
X401307Y74738D01*
X401126Y74673D01*
X400938Y74622D01*
X400743Y74585D01*
X400541Y74563D01*
X400333Y74556D01*
X400058Y74569D01*
X399796Y74609D01*
X399547Y74675D01*
X399312Y74767D01*
X399090Y74886D01*
X398882Y75031D01*
X398687Y75202D01*
X398505Y75400D01*
X398341Y75620D01*
X398199Y75858D01*
X398078Y76114D01*
X397980Y76389D01*
X397903Y76681D01*
X397848Y76991D01*
X397816Y77319D01*
X397805Y77666D01*
X397815Y78021D01*
X397848Y78356D01*
X397901Y78672D01*
X397976Y78969D01*
X398073Y79247D01*
X398191Y79506D01*
X398330Y79746D01*
X398491Y79967D01*
X398670Y80164D01*
X398864Y80336D01*
X399074Y80481D01*
X399298Y80600D01*
X399538Y80692D01*
X399792Y80758D01*
X400062Y80797D01*
X400347Y80811D01*
X400555Y80803D01*
X400757Y80781D01*
X400952Y80745D01*
X401140Y80693D01*
X401322Y80627D01*
X401496Y80547D01*
X401825Y80341D01*
X401975Y80219D01*
X402111Y80085D01*
X402123Y80071D01*
X402232Y79941D01*
X402338Y79786D01*
X402429Y79621D01*
X402506Y79444D01*
X402569Y79257D01*
X402616Y79060D01*
X402644Y79060D01*
X402690Y79289D01*
X402752Y79506D01*
X402829Y79710D01*
X402922Y79900D01*
X403030Y80077D01*
X403153Y80242D01*
X403292Y80393D01*
X403416Y80504D01*
X403446Y80530D01*
X403613Y80654D01*
X403790Y80760D01*
X403978Y80851D01*
X404175Y80924D01*
X404383Y80982D01*
X404601Y81023D01*
X404829Y81048D01*
X405068Y81056D01*
X405400Y81042D01*
X405713Y81001D01*
X406007Y80934D01*
X406283Y80839D01*
X406539Y80716D01*
X406777Y80567D01*
X406996Y80391D01*
X407197Y80187D01*
X407376Y79958D01*
X407531Y79706D01*
X407662Y79430D01*
X407769Y79130D01*
X407853Y78806D01*
X407912Y78459D01*
X407948Y78088D01*
X407960Y77694D01*
X407948Y77309D01*
X407913Y76946D01*
X407855Y76604D01*
X407773Y76284D01*
X407667Y75985D01*
X407539Y75708D01*
X407386Y75452D01*
X407211Y75218D01*
X407014Y75009D01*
X406797Y74827D01*
X406560Y74674D01*
X406304Y74548D01*
X406028Y74451D01*
X405732Y74381D01*
X405417Y74339D01*
X405082Y74325D01*
G37*
%LPC*%
G36*
X404976Y75628D02*
X405223Y75636D01*
X405454Y75660D01*
X405669Y75701D01*
X405868Y75758D01*
X406051Y75831D01*
X406218Y75920D01*
X406370Y76026D01*
X406505Y76148D01*
X406624Y76286D01*
X406728Y76440D01*
X406816Y76611D01*
X406887Y76798D01*
X406943Y77001D01*
X406983Y77220D01*
X407007Y77456D01*
X407015Y77708D01*
X407007Y77957D01*
X406984Y78190D01*
X406945Y78406D01*
X406891Y78606D01*
X406822Y78790D01*
X406737Y78957D01*
X406637Y79107D01*
X406521Y79242D01*
X406388Y79360D01*
X406237Y79462D01*
X406068Y79549D01*
X405881Y79620D01*
X405675Y79675D01*
X405451Y79714D01*
X405209Y79738D01*
X404948Y79746D01*
X404726Y79737D01*
X404518Y79712D01*
X404324Y79669D01*
X404144Y79609D01*
X403978Y79533D01*
X403826Y79439D01*
X403689Y79328D01*
X403565Y79200D01*
X403456Y79056D01*
X403361Y78899D01*
X403281Y78728D01*
X403216Y78543D01*
X403165Y78344D01*
X403129Y78132D01*
X403107Y77906D01*
X403099Y77666D01*
X403107Y77433D01*
X403131Y77212D01*
X403170Y77005D01*
X403225Y76811D01*
X403295Y76631D01*
X403381Y76463D01*
X403483Y76308D01*
X403600Y76167D01*
X403731Y76041D01*
X403874Y75931D01*
X404029Y75838D01*
X404195Y75763D01*
X404373Y75704D01*
X404562Y75661D01*
X404763Y75636D01*
X404976Y75628D01*
G37*
G36*
X400417Y75845D02*
X400623Y75852D01*
X400816Y75875D01*
X400996Y75912D01*
X401164Y75965D01*
X401319Y76032D01*
X401462Y76115D01*
X401592Y76212D01*
X401709Y76325D01*
X401813Y76451D01*
X401904Y76589D01*
X401980Y76740D01*
X402043Y76903D01*
X402091Y77079D01*
X402126Y77267D01*
X402147Y77467D01*
X402154Y77680D01*
X402148Y77896D01*
X402128Y78098D01*
X402096Y78287D01*
X402052Y78463D01*
X401994Y78626D01*
X401924Y78776D01*
X401840Y78912D01*
X401744Y79035D01*
X401634Y79144D01*
X401508Y79239D01*
X401366Y79319D01*
X401208Y79384D01*
X401034Y79435D01*
X400844Y79472D01*
X400638Y79494D01*
X400417Y79501D01*
X400214Y79494D01*
X400025Y79472D01*
X399848Y79436D01*
X399685Y79386D01*
X399534Y79322D01*
X399397Y79243D01*
X399273Y79150D01*
X399162Y79042D01*
X399064Y78920D01*
X398979Y78784D01*
X398907Y78634D01*
X398848Y78469D01*
X398802Y78290D01*
X398769Y78096D01*
X398750Y77888D01*
X398743Y77666D01*
X398750Y77450D01*
X398769Y77248D01*
X398802Y77058D01*
X398848Y76882D01*
X398907Y76720D01*
X398980Y76570D01*
X399065Y76434D01*
X399163Y76311D01*
X399275Y76201D01*
X399399Y76107D01*
X399537Y76027D01*
X399687Y75961D01*
X399850Y75910D01*
X400026Y75874D01*
X400215Y75852D01*
X400417Y75845D01*
G37*
%LPD*%
G36*
X448420Y64535D02*
X438552Y64535D01*
X438552Y67798D01*
X438571Y68407D01*
X438630Y68981D01*
X438728Y69518D01*
X438866Y70019D01*
X439043Y70485D01*
X439259Y70915D01*
X439514Y71310D01*
X439809Y71668D01*
X440140Y71987D01*
X440504Y72264D01*
X440901Y72498D01*
X441331Y72690D01*
X441795Y72839D01*
X442292Y72945D01*
X442821Y73009D01*
X443384Y73030D01*
X443760Y73021D01*
X444124Y72993D01*
X444476Y72947D01*
X444816Y72881D01*
X445144Y72798D01*
X445460Y72695D01*
X445764Y72574D01*
X446056Y72435D01*
X446334Y72278D01*
X446595Y72106D01*
X446840Y71918D01*
X447067Y71715D01*
X447278Y71497D01*
X447473Y71262D01*
X447650Y71012D01*
X447811Y70747D01*
X447954Y70469D01*
X448077Y70180D01*
X448182Y69880D01*
X448268Y69570D01*
X448334Y69250D01*
X448382Y68919D01*
X448411Y68578D01*
X448420Y68226D01*
X448420Y64535D01*
G37*
%LPC*%
G36*
X447348Y65872D02*
X447348Y68072D01*
X447341Y68339D01*
X447319Y68598D01*
X447281Y68849D01*
X447229Y69091D01*
X447162Y69326D01*
X447081Y69552D01*
X446984Y69770D01*
X446872Y69980D01*
X446747Y70180D01*
X446608Y70368D01*
X446456Y70544D01*
X446291Y70708D01*
X446113Y70860D01*
X445921Y71000D01*
X445717Y71128D01*
X445499Y71244D01*
X445270Y71348D01*
X445031Y71437D01*
X444782Y71513D01*
X444522Y71575D01*
X444253Y71623D01*
X443974Y71658D01*
X443684Y71679D01*
X443384Y71685D01*
X442939Y71670D01*
X442521Y71623D01*
X442131Y71544D01*
X441767Y71434D01*
X441431Y71293D01*
X441122Y71120D01*
X440841Y70916D01*
X440586Y70680D01*
X440361Y70415D01*
X440165Y70122D01*
X439999Y69800D01*
X439864Y69450D01*
X439759Y69073D01*
X439683Y68667D01*
X439638Y68233D01*
X439623Y67770D01*
X439623Y65872D01*
X447348Y65872D01*
G37*
%LPD*%
G36*
X439623Y74437D02*
X438552Y74437D01*
X438552Y80958D01*
X439574Y80958D01*
X440667Y80257D01*
X441635Y79667D01*
X442478Y79189D01*
X443195Y78822D01*
X443848Y78529D01*
X444496Y78276D01*
X445140Y78062D01*
X445780Y77887D01*
X446423Y77750D01*
X447077Y77653D01*
X447743Y77594D01*
X448420Y77575D01*
X448420Y76258D01*
X447944Y76271D01*
X447462Y76308D01*
X446974Y76371D01*
X446479Y76459D01*
X445978Y76571D01*
X445471Y76709D01*
X444958Y76872D01*
X444438Y77060D01*
X443906Y77277D01*
X443353Y77528D01*
X442781Y77813D01*
X442189Y78131D01*
X441577Y78482D01*
X440946Y78868D01*
X440294Y79287D01*
X439623Y79739D01*
X439623Y74437D01*
G37*
G36*
X473820Y72910D02*
X463952Y72910D01*
X463952Y76173D01*
X463971Y76782D01*
X464030Y77356D01*
X464128Y77893D01*
X464266Y78394D01*
X464443Y78860D01*
X464659Y79290D01*
X464914Y79685D01*
X465209Y80043D01*
X465540Y80362D01*
X465904Y80639D01*
X466301Y80873D01*
X466731Y81065D01*
X467195Y81214D01*
X467692Y81320D01*
X468221Y81384D01*
X468784Y81405D01*
X469160Y81396D01*
X469524Y81368D01*
X469876Y81322D01*
X470216Y81256D01*
X470544Y81173D01*
X470860Y81070D01*
X471164Y80949D01*
X471456Y80810D01*
X471734Y80653D01*
X471995Y80481D01*
X472240Y80293D01*
X472467Y80090D01*
X472678Y79872D01*
X472873Y79637D01*
X473050Y79387D01*
X473211Y79122D01*
X473354Y78844D01*
X473477Y78555D01*
X473582Y78255D01*
X473668Y77945D01*
X473734Y77625D01*
X473782Y77294D01*
X473811Y76953D01*
X473820Y76601D01*
X473820Y72910D01*
G37*
%LPC*%
G36*
X472748Y74247D02*
X472748Y76447D01*
X472741Y76714D01*
X472719Y76973D01*
X472681Y77224D01*
X472629Y77466D01*
X472562Y77701D01*
X472481Y77927D01*
X472384Y78145D01*
X472272Y78355D01*
X472147Y78555D01*
X472008Y78743D01*
X471856Y78919D01*
X471691Y79083D01*
X471513Y79235D01*
X471321Y79375D01*
X471117Y79503D01*
X470899Y79619D01*
X470670Y79723D01*
X470431Y79812D01*
X470182Y79888D01*
X469922Y79950D01*
X469653Y79998D01*
X469374Y80033D01*
X469084Y80054D01*
X468784Y80060D01*
X468339Y80045D01*
X467921Y79998D01*
X467531Y79919D01*
X467167Y79809D01*
X466831Y79668D01*
X466522Y79495D01*
X466241Y79291D01*
X465986Y79055D01*
X465761Y78790D01*
X465565Y78497D01*
X465399Y78175D01*
X465264Y77825D01*
X465159Y77448D01*
X465083Y77042D01*
X465038Y76608D01*
X465023Y76145D01*
X465023Y74247D01*
X472748Y74247D01*
G37*
%LPD*%
G36*
X469113Y82805D02*
X468491Y82819D01*
X467906Y82862D01*
X467358Y82934D01*
X466848Y83035D01*
X466374Y83164D01*
X465938Y83321D01*
X465539Y83508D01*
X465177Y83723D01*
X464856Y83964D01*
X464577Y84230D01*
X464341Y84520D01*
X464148Y84834D01*
X463998Y85173D01*
X463890Y85536D01*
X463826Y85923D01*
X463805Y86335D01*
X463812Y86608D01*
X463836Y86868D01*
X463875Y87115D01*
X463930Y87349D01*
X464001Y87570D01*
X464087Y87778D01*
X464189Y87974D01*
X464307Y88156D01*
X464441Y88326D01*
X464590Y88482D01*
X464755Y88626D01*
X464935Y88757D01*
X465132Y88874D01*
X465344Y88979D01*
X465571Y89071D01*
X465815Y89151D01*
X466032Y87946D01*
X465749Y87839D01*
X465505Y87705D01*
X465298Y87543D01*
X465128Y87354D01*
X464997Y87137D01*
X464902Y86893D01*
X464846Y86621D01*
X464827Y86321D01*
X464843Y86059D01*
X464890Y85812D01*
X464969Y85581D01*
X465078Y85364D01*
X465220Y85163D01*
X465393Y84977D01*
X465597Y84806D01*
X465832Y84651D01*
X466098Y84512D01*
X466391Y84392D01*
X466713Y84290D01*
X467062Y84207D01*
X467440Y84142D01*
X467846Y84096D01*
X468280Y84068D01*
X468742Y84059D01*
X468443Y84248D01*
X468181Y84472D01*
X467958Y84731D01*
X467772Y85025D01*
X467627Y85348D01*
X467523Y85694D01*
X467460Y86063D01*
X467440Y86454D01*
X467453Y86787D01*
X467493Y87102D01*
X467560Y87399D01*
X467653Y87679D01*
X467773Y87941D01*
X467920Y88186D01*
X468094Y88412D01*
X468294Y88622D01*
X468517Y88810D01*
X468758Y88973D01*
X469018Y89110D01*
X469296Y89223D01*
X469592Y89311D01*
X469907Y89374D01*
X470240Y89411D01*
X470591Y89424D01*
X470971Y89410D01*
X471331Y89371D01*
X471670Y89305D01*
X471989Y89212D01*
X472286Y89093D01*
X472564Y88947D01*
X472820Y88775D01*
X473057Y88576D01*
X473268Y88354D01*
X473452Y88112D01*
X473607Y87850D01*
X473734Y87568D01*
X473833Y87265D01*
X473904Y86943D01*
X473946Y86600D01*
X473960Y86237D01*
X473941Y85833D01*
X473883Y85453D01*
X473786Y85097D01*
X473650Y84766D01*
X473476Y84460D01*
X473263Y84178D01*
X473011Y83920D01*
X472720Y83688D01*
X472393Y83481D01*
X472030Y83302D01*
X471632Y83150D01*
X471199Y83026D01*
X470730Y82929D01*
X470227Y82860D01*
X469688Y82819D01*
X469113Y82805D01*
G37*
%LPC*%
G36*
X470346Y84185D02*
X470625Y84194D01*
X470891Y84220D01*
X471144Y84264D01*
X471384Y84326D01*
X471612Y84405D01*
X471826Y84502D01*
X472028Y84617D01*
X472216Y84749D01*
X472387Y84895D01*
X472535Y85051D01*
X472660Y85216D01*
X472762Y85392D01*
X472842Y85578D01*
X472899Y85774D01*
X472933Y85979D01*
X472945Y86195D01*
X472935Y86416D01*
X472906Y86626D01*
X472858Y86823D01*
X472791Y87007D01*
X472705Y87180D01*
X472600Y87340D01*
X472475Y87488D01*
X472332Y87624D01*
X472171Y87745D01*
X471997Y87850D01*
X471808Y87940D01*
X471604Y88012D01*
X471386Y88069D01*
X471154Y88110D01*
X470908Y88134D01*
X470647Y88142D01*
X470387Y88134D01*
X470142Y88109D01*
X469913Y88068D01*
X469698Y88011D01*
X469499Y87937D01*
X469316Y87847D01*
X469147Y87740D01*
X468994Y87617D01*
X468858Y87479D01*
X468740Y87328D01*
X468640Y87165D01*
X468558Y86988D01*
X468495Y86799D01*
X468449Y86596D01*
X468422Y86381D01*
X468413Y86153D01*
X468421Y85938D01*
X468445Y85733D01*
X468486Y85539D01*
X468542Y85355D01*
X468614Y85183D01*
X468703Y85020D01*
X468807Y84869D01*
X468928Y84728D01*
X469063Y84600D01*
X469210Y84490D01*
X469369Y84397D01*
X469540Y84321D01*
X469723Y84261D01*
X469919Y84219D01*
X470126Y84193D01*
X470346Y84185D01*
G37*
%LPD*%
G36*
X469758Y64002D02*
X468756Y64002D01*
X468618Y64201D01*
X468499Y64409D01*
X468398Y64626D01*
X468315Y64852D01*
X468251Y65086D01*
X468205Y65330D01*
X468177Y65583D01*
X468168Y65844D01*
X468191Y66229D01*
X468259Y66653D01*
X468408Y67214D01*
X468672Y68009D01*
X468764Y68276D01*
X468872Y68646D01*
X468959Y69040D01*
X468980Y69217D01*
X468987Y69381D01*
X468977Y69607D01*
X468947Y69829D01*
X468897Y70048D01*
X468826Y70264D01*
X468736Y70476D01*
X468625Y70684D01*
X468494Y70889D01*
X468343Y71090D01*
X469387Y71090D01*
X469524Y70887D01*
X469641Y70683D01*
X469737Y70479D01*
X469814Y70274D01*
X469872Y70058D01*
X469914Y69818D01*
X469939Y69555D01*
X469947Y69269D01*
X469937Y69026D01*
X469908Y68780D01*
X469860Y68531D01*
X469793Y68278D01*
X469457Y67259D01*
X469319Y66825D01*
X469220Y66427D01*
X469161Y66065D01*
X469142Y65739D01*
X469150Y65509D01*
X469177Y65286D01*
X469222Y65071D01*
X469285Y64864D01*
X469368Y64658D01*
X469475Y64445D01*
X469605Y64227D01*
X469758Y64002D01*
G37*
G36*
X499220Y72910D02*
X489352Y72910D01*
X489352Y76173D01*
X489371Y76782D01*
X489430Y77356D01*
X489528Y77893D01*
X489666Y78394D01*
X489843Y78860D01*
X490059Y79290D01*
X490314Y79685D01*
X490609Y80043D01*
X490940Y80362D01*
X491304Y80639D01*
X491701Y80873D01*
X492131Y81065D01*
X492595Y81214D01*
X493092Y81320D01*
X493621Y81384D01*
X494184Y81405D01*
X494560Y81396D01*
X494924Y81368D01*
X495276Y81322D01*
X495616Y81256D01*
X495944Y81173D01*
X496260Y81070D01*
X496564Y80949D01*
X496856Y80810D01*
X497134Y80653D01*
X497395Y80481D01*
X497640Y80293D01*
X497867Y80090D01*
X498078Y79872D01*
X498273Y79637D01*
X498450Y79387D01*
X498611Y79122D01*
X498754Y78844D01*
X498877Y78555D01*
X498982Y78255D01*
X499068Y77945D01*
X499134Y77625D01*
X499182Y77294D01*
X499211Y76953D01*
X499220Y76601D01*
X499220Y72910D01*
G37*
%LPC*%
G36*
X498148Y74247D02*
X498148Y76447D01*
X498141Y76714D01*
X498119Y76973D01*
X498081Y77224D01*
X498029Y77466D01*
X497962Y77701D01*
X497881Y77927D01*
X497784Y78145D01*
X497672Y78355D01*
X497547Y78555D01*
X497408Y78743D01*
X497256Y78919D01*
X497091Y79083D01*
X496913Y79235D01*
X496721Y79375D01*
X496517Y79503D01*
X496299Y79619D01*
X496070Y79723D01*
X495831Y79812D01*
X495582Y79888D01*
X495322Y79950D01*
X495053Y79998D01*
X494774Y80033D01*
X494484Y80054D01*
X494184Y80060D01*
X493739Y80045D01*
X493321Y79998D01*
X492931Y79919D01*
X492567Y79809D01*
X492231Y79668D01*
X491922Y79495D01*
X491641Y79291D01*
X491386Y79055D01*
X491161Y78790D01*
X490965Y78497D01*
X490799Y78175D01*
X490664Y77825D01*
X490559Y77448D01*
X490483Y77042D01*
X490438Y76608D01*
X490423Y76145D01*
X490423Y74247D01*
X498148Y74247D01*
G37*
%LPD*%
G36*
X497014Y82651D02*
X496867Y83926D01*
X497210Y84045D01*
X497507Y84204D01*
X497759Y84401D01*
X497965Y84638D01*
X498125Y84914D01*
X498239Y85230D01*
X498308Y85584D01*
X498331Y85978D01*
X498321Y86225D01*
X498292Y86458D01*
X498244Y86677D01*
X498177Y86883D01*
X498091Y87075D01*
X497986Y87253D01*
X497861Y87417D01*
X497718Y87568D01*
X497557Y87702D01*
X497383Y87819D01*
X497194Y87918D01*
X496990Y87998D01*
X496772Y88061D01*
X496540Y88106D01*
X496294Y88133D01*
X496033Y88142D01*
X495806Y88133D01*
X495590Y88106D01*
X495385Y88061D01*
X495191Y87998D01*
X495008Y87916D01*
X494837Y87817D01*
X494677Y87700D01*
X494527Y87564D01*
X494393Y87413D01*
X494276Y87250D01*
X494178Y87074D01*
X494097Y86886D01*
X494034Y86685D01*
X493989Y86471D01*
X493962Y86245D01*
X493953Y86006D01*
X493963Y85755D01*
X493993Y85512D01*
X494044Y85278D01*
X494114Y85053D01*
X494209Y84833D01*
X494331Y84612D01*
X494482Y84392D01*
X494661Y84171D01*
X494661Y82938D01*
X489352Y83267D01*
X489352Y88877D01*
X490423Y88877D01*
X490423Y84416D01*
X493554Y84227D01*
X493406Y84438D01*
X493278Y84662D01*
X493170Y84898D01*
X493081Y85146D01*
X493012Y85407D01*
X492963Y85681D01*
X492933Y85967D01*
X492924Y86265D01*
X492937Y86620D01*
X492977Y86956D01*
X493044Y87274D01*
X493137Y87574D01*
X493257Y87855D01*
X493404Y88117D01*
X493578Y88361D01*
X493778Y88587D01*
X494000Y88789D01*
X494238Y88965D01*
X494492Y89114D01*
X494762Y89235D01*
X495049Y89330D01*
X495351Y89398D01*
X495670Y89438D01*
X496005Y89452D01*
X496385Y89437D01*
X496745Y89394D01*
X497083Y89321D01*
X497401Y89220D01*
X497698Y89089D01*
X497974Y88930D01*
X498229Y88741D01*
X498464Y88524D01*
X498674Y88281D01*
X498856Y88015D01*
X499010Y87727D01*
X499136Y87416D01*
X499234Y87083D01*
X499304Y86728D01*
X499346Y86350D01*
X499360Y85950D01*
X499351Y85613D01*
X499322Y85293D01*
X499275Y84990D01*
X499210Y84703D01*
X499125Y84433D01*
X499021Y84180D01*
X498899Y83943D01*
X498758Y83723D01*
X498599Y83521D01*
X498423Y83338D01*
X498230Y83175D01*
X498021Y83031D01*
X497794Y82907D01*
X497551Y82802D01*
X497291Y82717D01*
X497014Y82651D01*
G37*
G36*
X495158Y64002D02*
X494156Y64002D01*
X494018Y64201D01*
X493899Y64409D01*
X493798Y64626D01*
X493715Y64852D01*
X493651Y65086D01*
X493605Y65330D01*
X493577Y65583D01*
X493568Y65844D01*
X493591Y66229D01*
X493659Y66653D01*
X493808Y67214D01*
X494072Y68009D01*
X494164Y68276D01*
X494272Y68646D01*
X494359Y69040D01*
X494380Y69217D01*
X494387Y69381D01*
X494377Y69607D01*
X494347Y69829D01*
X494297Y70048D01*
X494226Y70264D01*
X494136Y70476D01*
X494025Y70684D01*
X493894Y70889D01*
X493743Y71090D01*
X494787Y71090D01*
X494924Y70887D01*
X495041Y70683D01*
X495137Y70479D01*
X495214Y70274D01*
X495272Y70058D01*
X495314Y69818D01*
X495339Y69555D01*
X495347Y69269D01*
X495337Y69026D01*
X495308Y68780D01*
X495260Y68531D01*
X495193Y68278D01*
X494857Y67259D01*
X494719Y66825D01*
X494620Y66427D01*
X494561Y66065D01*
X494542Y65739D01*
X494550Y65509D01*
X494577Y65286D01*
X494622Y65071D01*
X494685Y64864D01*
X494768Y64658D01*
X494875Y64445D01*
X495005Y64227D01*
X495158Y64002D01*
G37*
G36*
X524620Y64535D02*
X514752Y64535D01*
X514752Y67798D01*
X514771Y68407D01*
X514830Y68981D01*
X514928Y69518D01*
X515066Y70019D01*
X515243Y70485D01*
X515459Y70915D01*
X515714Y71310D01*
X516009Y71668D01*
X516340Y71987D01*
X516704Y72264D01*
X517101Y72498D01*
X517531Y72690D01*
X517995Y72839D01*
X518492Y72945D01*
X519021Y73009D01*
X519584Y73030D01*
X519960Y73021D01*
X520324Y72993D01*
X520676Y72947D01*
X521016Y72881D01*
X521344Y72798D01*
X521660Y72695D01*
X521964Y72574D01*
X522256Y72435D01*
X522534Y72278D01*
X522795Y72106D01*
X523040Y71918D01*
X523267Y71715D01*
X523478Y71497D01*
X523673Y71262D01*
X523850Y71012D01*
X524011Y70747D01*
X524154Y70469D01*
X524277Y70180D01*
X524382Y69880D01*
X524468Y69570D01*
X524534Y69250D01*
X524582Y68919D01*
X524611Y68578D01*
X524620Y68226D01*
X524620Y64535D01*
G37*
%LPC*%
G36*
X523548Y65872D02*
X523548Y68072D01*
X523541Y68339D01*
X523519Y68598D01*
X523481Y68849D01*
X523429Y69091D01*
X523362Y69326D01*
X523281Y69552D01*
X523184Y69770D01*
X523072Y69980D01*
X522947Y70180D01*
X522808Y70368D01*
X522656Y70544D01*
X522491Y70708D01*
X522313Y70860D01*
X522121Y71000D01*
X521917Y71128D01*
X521699Y71244D01*
X521470Y71348D01*
X521231Y71437D01*
X520982Y71513D01*
X520722Y71575D01*
X520453Y71623D01*
X520174Y71658D01*
X519884Y71679D01*
X519584Y71685D01*
X519139Y71670D01*
X518721Y71623D01*
X518331Y71544D01*
X517967Y71434D01*
X517631Y71293D01*
X517322Y71120D01*
X517041Y70916D01*
X516786Y70680D01*
X516561Y70415D01*
X516365Y70122D01*
X516199Y69800D01*
X516064Y69450D01*
X515959Y69073D01*
X515883Y68667D01*
X515838Y68233D01*
X515823Y67770D01*
X515823Y65872D01*
X523548Y65872D01*
G37*
%LPD*%
G36*
X522386Y74031D02*
X521405Y74031D01*
X514752Y78548D01*
X514752Y79872D01*
X521391Y79872D01*
X521391Y81259D01*
X522386Y81259D01*
X522386Y79872D01*
X524620Y79872D01*
X524620Y78681D01*
X522386Y78681D01*
X522386Y74031D01*
G37*
%LPC*%
G36*
X521391Y75194D02*
X521391Y78681D01*
X516173Y78681D01*
X516545Y78485D01*
X517007Y78212D01*
X520733Y75684D01*
X521251Y75306D01*
X521391Y75194D01*
G37*
%LPD*%
G36*
X550020Y134347D02*
X540152Y134347D01*
X540152Y137611D01*
X540171Y138220D01*
X540230Y138793D01*
X540328Y139330D01*
X540466Y139832D01*
X540643Y140298D01*
X540859Y140728D01*
X541114Y141122D01*
X541409Y141480D01*
X541740Y141800D01*
X542104Y142076D01*
X542501Y142311D01*
X542931Y142502D01*
X543395Y142651D01*
X543892Y142758D01*
X544421Y142821D01*
X544984Y142843D01*
X545360Y142833D01*
X545724Y142806D01*
X546076Y142759D01*
X546416Y142694D01*
X546744Y142610D01*
X547060Y142508D01*
X547364Y142387D01*
X547656Y142247D01*
X547934Y142091D01*
X548195Y141919D01*
X548440Y141731D01*
X548667Y141528D01*
X548878Y141309D01*
X549073Y141075D01*
X549250Y140825D01*
X549411Y140559D01*
X549554Y140281D01*
X549677Y139992D01*
X549782Y139693D01*
X549868Y139383D01*
X549934Y139062D01*
X549982Y138732D01*
X550011Y138390D01*
X550020Y138038D01*
X550020Y134347D01*
G37*
%LPC*%
G36*
X548948Y135685D02*
X548948Y137884D01*
X548941Y138151D01*
X548919Y138410D01*
X548881Y138661D01*
X548829Y138904D01*
X548762Y139138D01*
X548681Y139365D01*
X548584Y139583D01*
X548472Y139793D01*
X548347Y139992D01*
X548208Y140180D01*
X548056Y140356D01*
X547891Y140520D01*
X547713Y140672D01*
X547521Y140812D01*
X547317Y140940D01*
X547099Y141057D01*
X546870Y141160D01*
X546631Y141250D01*
X546382Y141326D01*
X546122Y141388D01*
X545853Y141436D01*
X545574Y141470D01*
X545284Y141491D01*
X544984Y141498D01*
X544539Y141482D01*
X544121Y141435D01*
X543731Y141357D01*
X543367Y141247D01*
X543031Y141105D01*
X542722Y140933D01*
X542441Y140729D01*
X542186Y140493D01*
X541961Y140228D01*
X541765Y139934D01*
X541599Y139613D01*
X541464Y139263D01*
X541359Y138885D01*
X541283Y138479D01*
X541238Y138045D01*
X541223Y137583D01*
X541223Y135685D01*
X548948Y135685D01*
G37*
%LPD*%
G36*
X542442Y105751D02*
X542442Y106970D01*
X542642Y106991D01*
X543170Y107022D01*
X543661Y107040D01*
X543661Y107068D01*
X543334Y107250D01*
X543054Y107458D01*
X542821Y107694D01*
X542635Y107957D01*
X542492Y108256D01*
X542390Y108598D01*
X542329Y108984D01*
X542309Y109414D01*
X542324Y109753D01*
X542368Y110070D01*
X542441Y110365D01*
X542543Y110638D01*
X542675Y110889D01*
X542837Y111117D01*
X543027Y111324D01*
X543247Y111508D01*
X543499Y111671D01*
X543784Y111812D01*
X544102Y111931D01*
X544454Y112028D01*
X544839Y112104D01*
X545258Y112158D01*
X545710Y112191D01*
X546196Y112202D01*
X546676Y112191D01*
X547125Y112158D01*
X547543Y112104D01*
X547930Y112028D01*
X548286Y111930D01*
X548612Y111810D01*
X548906Y111668D01*
X549169Y111505D01*
X549401Y111320D01*
X549603Y111113D01*
X549773Y110884D01*
X549912Y110634D01*
X550021Y110362D01*
X550098Y110068D01*
X550145Y109752D01*
X550160Y109414D01*
X550140Y108994D01*
X550078Y108611D01*
X549975Y108263D01*
X549831Y107950D01*
X549646Y107674D01*
X549419Y107434D01*
X549152Y107229D01*
X548843Y107061D01*
X548843Y107026D01*
X549169Y107047D01*
X550034Y107054D01*
X552997Y107054D01*
X552997Y105793D01*
X543990Y105793D01*
X543018Y105783D01*
X542442Y105751D01*
G37*
%LPC*%
G36*
X546322Y107054D02*
X546683Y107061D01*
X547019Y107084D01*
X547331Y107121D01*
X547618Y107173D01*
X547880Y107240D01*
X548119Y107322D01*
X548332Y107419D01*
X548521Y107530D01*
X548687Y107659D01*
X548831Y107806D01*
X548952Y107971D01*
X549052Y108155D01*
X549129Y108358D01*
X549184Y108579D01*
X549218Y108819D01*
X549229Y109078D01*
X549218Y109305D01*
X549185Y109516D01*
X549132Y109711D01*
X549056Y109890D01*
X548959Y110053D01*
X548841Y110200D01*
X548700Y110332D01*
X548539Y110447D01*
X548352Y110548D01*
X548135Y110636D01*
X547890Y110710D01*
X547615Y110770D01*
X547311Y110817D01*
X546978Y110851D01*
X546616Y110871D01*
X546224Y110878D01*
X545842Y110871D01*
X545489Y110851D01*
X545164Y110818D01*
X544867Y110771D01*
X544598Y110711D01*
X544358Y110638D01*
X544146Y110551D01*
X543962Y110451D01*
X543803Y110336D01*
X543665Y110206D01*
X543548Y110059D01*
X543452Y109897D01*
X543378Y109720D01*
X543325Y109526D01*
X543293Y109317D01*
X543282Y109092D01*
X543302Y108738D01*
X543361Y108424D01*
X543460Y108151D01*
X543598Y107919D01*
X543777Y107720D01*
X544001Y107546D01*
X544269Y107398D01*
X544582Y107275D01*
X544941Y107178D01*
X545351Y107109D01*
X545811Y107068D01*
X546322Y107054D01*
G37*
%LPD*%
G36*
X546182Y79936D02*
X545726Y79950D01*
X545298Y79991D01*
X544897Y80060D01*
X544524Y80156D01*
X544178Y80279D01*
X543859Y80431D01*
X543567Y80609D01*
X543303Y80815D01*
X543069Y81047D01*
X542865Y81302D01*
X542693Y81580D01*
X542552Y81882D01*
X542443Y82208D01*
X542364Y82557D01*
X542318Y82930D01*
X542302Y83326D01*
X542318Y83730D01*
X542365Y84109D01*
X542443Y84461D01*
X542554Y84788D01*
X542695Y85088D01*
X542868Y85362D01*
X543073Y85610D01*
X543309Y85832D01*
X543576Y86027D01*
X543875Y86197D01*
X544205Y86340D01*
X544567Y86458D01*
X544960Y86549D01*
X545385Y86615D01*
X545841Y86654D01*
X546329Y86667D01*
X546497Y86667D01*
X546497Y81260D01*
X546814Y81268D01*
X547111Y81294D01*
X547390Y81336D01*
X547651Y81395D01*
X547893Y81470D01*
X548116Y81563D01*
X548321Y81673D01*
X548507Y81799D01*
X548673Y81942D01*
X548817Y82100D01*
X548938Y82273D01*
X549038Y82463D01*
X549115Y82667D01*
X549170Y82888D01*
X549204Y83124D01*
X549215Y83375D01*
X549194Y83764D01*
X549132Y84113D01*
X549029Y84421D01*
X548885Y84688D01*
X548710Y84915D01*
X548512Y85102D01*
X548293Y85250D01*
X548052Y85357D01*
X548367Y86464D01*
X548584Y86372D01*
X548787Y86267D01*
X548976Y86148D01*
X549152Y86016D01*
X549313Y85870D01*
X549460Y85711D01*
X549593Y85538D01*
X549712Y85352D01*
X549817Y85152D01*
X549908Y84939D01*
X549985Y84712D01*
X550048Y84471D01*
X550097Y84218D01*
X550132Y83950D01*
X550153Y83669D01*
X550160Y83375D01*
X550144Y82967D01*
X550097Y82585D01*
X550019Y82227D01*
X549910Y81895D01*
X549769Y81587D01*
X549597Y81305D01*
X549393Y81047D01*
X549159Y80815D01*
X548893Y80609D01*
X548597Y80431D01*
X548271Y80279D01*
X547914Y80156D01*
X547526Y80060D01*
X547109Y79991D01*
X546661Y79950D01*
X546182Y79936D01*
G37*
%LPC*%
G36*
X545531Y81274D02*
X545531Y85364D01*
X545241Y85332D01*
X544972Y85287D01*
X544723Y85229D01*
X544495Y85159D01*
X544287Y85077D01*
X544099Y84982D01*
X543931Y84875D01*
X543783Y84755D01*
X543654Y84622D01*
X543543Y84475D01*
X543448Y84314D01*
X543371Y84140D01*
X543311Y83952D01*
X543268Y83750D01*
X543242Y83534D01*
X543233Y83305D01*
X543243Y83081D01*
X543272Y82870D01*
X543320Y82670D01*
X543387Y82483D01*
X543473Y82307D01*
X543578Y82143D01*
X543703Y81992D01*
X543846Y81852D01*
X544007Y81725D01*
X544181Y81615D01*
X544370Y81519D01*
X544574Y81439D01*
X544791Y81375D01*
X545023Y81326D01*
X545270Y81292D01*
X545531Y81274D01*
G37*
%LPD*%
G36*
X547485Y144061D02*
X547366Y145363D01*
X547578Y145401D01*
X547776Y145452D01*
X547961Y145516D01*
X548132Y145592D01*
X548289Y145682D01*
X548433Y145784D01*
X548563Y145899D01*
X548679Y146027D01*
X548781Y146168D01*
X548870Y146321D01*
X548946Y146488D01*
X549007Y146667D01*
X549055Y146860D01*
X549089Y147065D01*
X549110Y147283D01*
X549117Y147513D01*
X549109Y147745D01*
X549087Y147964D01*
X549051Y148170D01*
X548999Y148363D01*
X548933Y148544D01*
X548853Y148712D01*
X548757Y148867D01*
X548647Y149009D01*
X548523Y149136D01*
X548384Y149246D01*
X548231Y149339D01*
X548064Y149416D01*
X547883Y149475D01*
X547687Y149518D01*
X547478Y149543D01*
X547254Y149552D01*
X547058Y149542D01*
X546873Y149513D01*
X546699Y149464D01*
X546537Y149397D01*
X546385Y149309D01*
X546244Y149203D01*
X546115Y149077D01*
X545996Y148932D01*
X545890Y148768D01*
X545799Y148587D01*
X545721Y148389D01*
X545658Y148174D01*
X545608Y147942D01*
X545573Y147693D01*
X545552Y147426D01*
X545545Y147142D01*
X545545Y146428D01*
X544452Y146428D01*
X544452Y147114D01*
X544445Y147366D01*
X544424Y147603D01*
X544388Y147826D01*
X544339Y148034D01*
X544276Y148228D01*
X544198Y148407D01*
X544106Y148572D01*
X544000Y148722D01*
X543882Y148855D01*
X543753Y148971D01*
X543613Y149069D01*
X543462Y149150D01*
X543300Y149212D01*
X543128Y149257D01*
X542944Y149283D01*
X542750Y149292D01*
X542557Y149285D01*
X542375Y149263D01*
X542203Y149227D01*
X542042Y149176D01*
X541891Y149110D01*
X541750Y149030D01*
X541620Y148936D01*
X541500Y148827D01*
X541392Y148703D01*
X541299Y148566D01*
X541220Y148414D01*
X541156Y148248D01*
X541106Y148068D01*
X541070Y147874D01*
X541048Y147666D01*
X541041Y147443D01*
X541048Y147240D01*
X541068Y147047D01*
X541101Y146863D01*
X541148Y146690D01*
X541208Y146526D01*
X541281Y146372D01*
X541368Y146229D01*
X541468Y146095D01*
X541581Y145973D01*
X541704Y145865D01*
X541838Y145770D01*
X541983Y145688D01*
X542139Y145620D01*
X542306Y145565D01*
X542484Y145524D01*
X542673Y145496D01*
X542575Y144229D01*
X542280Y144275D01*
X542002Y144344D01*
X541741Y144436D01*
X541496Y144550D01*
X541268Y144687D01*
X541057Y144847D01*
X540862Y145029D01*
X540684Y145234D01*
X540525Y145458D01*
X540387Y145697D01*
X540270Y145952D01*
X540174Y146222D01*
X540100Y146508D01*
X540047Y146809D01*
X540015Y147125D01*
X540005Y147457D01*
X540015Y147818D01*
X540048Y148158D01*
X540102Y148478D01*
X540177Y148777D01*
X540274Y149055D01*
X540393Y149312D01*
X540533Y149549D01*
X540694Y149765D01*
X540875Y149958D01*
X541073Y150125D01*
X541288Y150267D01*
X541520Y150382D01*
X541769Y150472D01*
X542035Y150537D01*
X542317Y150575D01*
X542617Y150588D01*
X542848Y150580D01*
X543068Y150555D01*
X543276Y150514D01*
X543474Y150456D01*
X543661Y150382D01*
X543836Y150291D01*
X544001Y150183D01*
X544154Y150059D01*
X544296Y149920D01*
X544426Y149765D01*
X544545Y149595D01*
X544651Y149411D01*
X544745Y149211D01*
X544827Y148996D01*
X544898Y148767D01*
X544956Y148522D01*
X544984Y148522D01*
X545022Y148791D01*
X545075Y149045D01*
X545145Y149283D01*
X545229Y149506D01*
X545330Y149714D01*
X545447Y149906D01*
X545579Y150083D01*
X545727Y150245D01*
X545888Y150389D01*
X546059Y150515D01*
X546240Y150620D01*
X546431Y150707D01*
X546632Y150775D01*
X546843Y150823D01*
X547064Y150852D01*
X547296Y150861D01*
X547627Y150848D01*
X547940Y150807D01*
X548233Y150739D01*
X548507Y150644D01*
X548762Y150522D01*
X548997Y150373D01*
X549214Y150196D01*
X549411Y149993D01*
X549586Y149764D01*
X549739Y149512D01*
X549867Y149237D01*
X549973Y148939D01*
X550055Y148617D01*
X550113Y148272D01*
X550148Y147905D01*
X550160Y147513D01*
X550150Y147148D01*
X550118Y146802D01*
X550065Y146474D01*
X549991Y146166D01*
X549896Y145877D01*
X549780Y145606D01*
X549643Y145354D01*
X549484Y145122D01*
X549305Y144910D01*
X549106Y144720D01*
X548886Y144554D01*
X548646Y144410D01*
X548386Y144289D01*
X548106Y144190D01*
X547805Y144114D01*
X547485Y144061D01*
G37*
G36*
X547492Y97790D02*
X542442Y97790D01*
X542442Y99057D01*
X547247Y99057D01*
X547600Y99066D01*
X547912Y99094D01*
X548182Y99140D01*
X548409Y99204D01*
X548601Y99289D01*
X548765Y99395D01*
X548899Y99523D01*
X549004Y99674D01*
X549084Y99853D01*
X549141Y100071D01*
X549175Y100326D01*
X549187Y100619D01*
X549177Y100841D01*
X549148Y101050D01*
X549099Y101248D01*
X549031Y101433D01*
X548943Y101607D01*
X548836Y101768D01*
X548709Y101917D01*
X548563Y102055D01*
X548400Y102178D01*
X548221Y102285D01*
X548028Y102375D01*
X547819Y102449D01*
X547595Y102506D01*
X547356Y102547D01*
X547102Y102572D01*
X546833Y102580D01*
X542442Y102580D01*
X542442Y103841D01*
X548402Y103841D01*
X549468Y103851D01*
X549809Y103864D01*
X550020Y103883D01*
X550020Y102692D01*
X549831Y102678D01*
X549477Y102661D01*
X548724Y102636D01*
X548724Y102615D01*
X549088Y102389D01*
X549394Y102147D01*
X549643Y101887D01*
X549834Y101610D01*
X549977Y101307D01*
X550079Y100970D01*
X550140Y100598D01*
X550160Y100192D01*
X550150Y99891D01*
X550121Y99610D01*
X550073Y99351D01*
X550005Y99112D01*
X549918Y98895D01*
X549811Y98698D01*
X549686Y98522D01*
X549540Y98367D01*
X549373Y98232D01*
X549180Y98115D01*
X548962Y98015D01*
X548718Y97934D01*
X548449Y97871D01*
X548155Y97826D01*
X547836Y97799D01*
X547492Y97790D01*
G37*
G36*
X542442Y68311D02*
X542442Y69501D01*
X542631Y69515D01*
X542985Y69533D01*
X543738Y69557D01*
X543738Y69578D01*
X543374Y69804D01*
X543068Y70047D01*
X542819Y70306D01*
X542628Y70583D01*
X542485Y70886D01*
X542383Y71223D01*
X542322Y71595D01*
X542302Y72002D01*
X542312Y72303D01*
X542341Y72583D01*
X542389Y72842D01*
X542457Y73081D01*
X542544Y73299D01*
X542651Y73495D01*
X542776Y73671D01*
X542922Y73826D01*
X543089Y73961D01*
X543282Y74079D01*
X543500Y74178D01*
X543744Y74259D01*
X544012Y74323D01*
X544306Y74368D01*
X544626Y74395D01*
X544970Y74404D01*
X550020Y74404D01*
X550020Y73136D01*
X545215Y73136D01*
X544862Y73127D01*
X544550Y73099D01*
X544280Y73053D01*
X544053Y72989D01*
X543861Y72905D01*
X543697Y72798D01*
X543563Y72670D01*
X543457Y72520D01*
X543378Y72340D01*
X543321Y72122D01*
X543287Y71867D01*
X543275Y71574D01*
X543285Y71353D01*
X543314Y71143D01*
X543363Y70946D01*
X543431Y70760D01*
X543519Y70587D01*
X543626Y70425D01*
X543753Y70276D01*
X543899Y70139D01*
X544062Y70015D01*
X544241Y69909D01*
X544434Y69818D01*
X544643Y69745D01*
X544867Y69687D01*
X545106Y69646D01*
X545360Y69621D01*
X545629Y69613D01*
X550020Y69613D01*
X550020Y68353D01*
X544060Y68353D01*
X542993Y68342D01*
X542653Y68329D01*
X542442Y68311D01*
G37*
G36*
X543359Y75544D02*
X542442Y75544D01*
X542442Y76468D01*
X540747Y76840D01*
X540747Y77680D01*
X542442Y77680D01*
X542442Y79081D01*
X543359Y79081D01*
X543359Y77680D01*
X548143Y77680D01*
X548396Y77691D01*
X548608Y77725D01*
X548779Y77780D01*
X548910Y77859D01*
X549006Y77964D01*
X549075Y78103D01*
X549117Y78274D01*
X549131Y78478D01*
X549106Y78787D01*
X549032Y79207D01*
X549964Y79207D01*
X550038Y78893D01*
X550090Y78577D01*
X550122Y78256D01*
X550132Y77932D01*
X550125Y77749D01*
X550105Y77578D01*
X550072Y77418D01*
X550025Y77270D01*
X549965Y77134D01*
X549891Y77010D01*
X549804Y76898D01*
X549703Y76798D01*
X549589Y76709D01*
X549462Y76632D01*
X549321Y76567D01*
X549167Y76514D01*
X548999Y76473D01*
X548818Y76443D01*
X548624Y76425D01*
X548416Y76419D01*
X543359Y76419D01*
X543359Y75544D01*
G37*
G36*
X543359Y113013D02*
X542442Y113013D01*
X542442Y113937D01*
X540747Y114308D01*
X540747Y115149D01*
X542442Y115149D01*
X542442Y116550D01*
X543359Y116550D01*
X543359Y115149D01*
X548143Y115149D01*
X548396Y115160D01*
X548608Y115193D01*
X548779Y115249D01*
X548910Y115327D01*
X549006Y115433D01*
X549075Y115572D01*
X549117Y115743D01*
X549131Y115947D01*
X549106Y116255D01*
X549032Y116676D01*
X549964Y116676D01*
X550038Y116362D01*
X550090Y116045D01*
X550122Y115725D01*
X550132Y115401D01*
X550125Y115218D01*
X550105Y115046D01*
X550072Y114887D01*
X550025Y114739D01*
X549965Y114603D01*
X549891Y114479D01*
X549804Y114367D01*
X549703Y114266D01*
X549589Y114178D01*
X549462Y114101D01*
X549321Y114036D01*
X549167Y113983D01*
X548999Y113941D01*
X548818Y113912D01*
X548624Y113894D01*
X548416Y113888D01*
X543359Y113888D01*
X543359Y113013D01*
G37*
G36*
X550020Y64682D02*
X540152Y64682D01*
X540152Y66019D01*
X550020Y66019D01*
X550020Y64682D01*
G37*
G36*
X542442Y88248D02*
X542442Y89439D01*
X543990Y89495D01*
X543990Y89523D01*
X543542Y89679D01*
X543170Y89847D01*
X542876Y90026D01*
X542659Y90216D01*
X542503Y90432D01*
X542391Y90689D01*
X542324Y90986D01*
X542302Y91323D01*
X542319Y91577D01*
X542372Y91834D01*
X543528Y91834D01*
X543475Y91540D01*
X543457Y91162D01*
X543468Y90971D01*
X543500Y90793D01*
X543553Y90625D01*
X543626Y90470D01*
X543721Y90326D01*
X543838Y90194D01*
X543975Y90073D01*
X544133Y89964D01*
X544311Y89867D01*
X544508Y89783D01*
X544722Y89712D01*
X544955Y89654D01*
X545207Y89609D01*
X545476Y89577D01*
X545764Y89557D01*
X546070Y89551D01*
X550020Y89551D01*
X550020Y88290D01*
X544207Y88290D01*
X543366Y88280D01*
X542442Y88248D01*
G37*
G36*
X542442Y93029D02*
X542442Y94220D01*
X543990Y94276D01*
X543990Y94304D01*
X543542Y94460D01*
X543170Y94628D01*
X542876Y94807D01*
X542659Y94997D01*
X542503Y95214D01*
X542391Y95470D01*
X542324Y95767D01*
X542302Y96104D01*
X542319Y96358D01*
X542372Y96615D01*
X543528Y96615D01*
X543475Y96321D01*
X543457Y95943D01*
X543468Y95753D01*
X543500Y95574D01*
X543553Y95407D01*
X543626Y95251D01*
X543721Y95107D01*
X543838Y94975D01*
X543975Y94854D01*
X544133Y94745D01*
X544311Y94648D01*
X544508Y94564D01*
X544722Y94493D01*
X544955Y94435D01*
X545207Y94390D01*
X545476Y94358D01*
X545764Y94338D01*
X546070Y94332D01*
X550020Y94332D01*
X550020Y93071D01*
X544207Y93071D01*
X543366Y93061D01*
X542442Y93029D01*
G37*
G36*
X545958Y125440D02*
X544956Y125440D01*
X544818Y125639D01*
X544699Y125847D01*
X544598Y126063D01*
X544515Y126289D01*
X544451Y126524D01*
X544405Y126768D01*
X544377Y127020D01*
X544368Y127282D01*
X544391Y127666D01*
X544459Y128091D01*
X544608Y128652D01*
X544872Y129446D01*
X544964Y129714D01*
X545072Y130083D01*
X545159Y130477D01*
X545180Y130655D01*
X545187Y130819D01*
X545177Y131045D01*
X545147Y131267D01*
X545097Y131486D01*
X545026Y131701D01*
X544936Y131913D01*
X544825Y132121D01*
X544694Y132326D01*
X544543Y132528D01*
X545587Y132528D01*
X545724Y132324D01*
X545841Y132121D01*
X545937Y131916D01*
X546014Y131712D01*
X546072Y131495D01*
X546114Y131256D01*
X546139Y130993D01*
X546147Y130707D01*
X546137Y130464D01*
X546108Y130217D01*
X546060Y129968D01*
X545993Y129716D01*
X545657Y128697D01*
X545519Y128263D01*
X545420Y127865D01*
X545361Y127503D01*
X545342Y127177D01*
X545350Y126946D01*
X545377Y126723D01*
X545422Y126508D01*
X545485Y126301D01*
X545568Y126095D01*
X545675Y125883D01*
X545805Y125664D01*
X545958Y125440D01*
G37*
G36*
X575420Y133972D02*
X565552Y133972D01*
X565552Y137236D01*
X565571Y137845D01*
X565630Y138418D01*
X565728Y138955D01*
X565866Y139457D01*
X566043Y139923D01*
X566259Y140353D01*
X566514Y140747D01*
X566809Y141105D01*
X567140Y141425D01*
X567504Y141701D01*
X567901Y141936D01*
X568331Y142127D01*
X568795Y142276D01*
X569292Y142383D01*
X569821Y142446D01*
X570384Y142468D01*
X570760Y142458D01*
X571124Y142431D01*
X571476Y142384D01*
X571816Y142319D01*
X572144Y142235D01*
X572460Y142133D01*
X572764Y142012D01*
X573056Y141872D01*
X573334Y141716D01*
X573595Y141544D01*
X573840Y141356D01*
X574067Y141153D01*
X574278Y140934D01*
X574473Y140700D01*
X574650Y140450D01*
X574811Y140184D01*
X574954Y139906D01*
X575077Y139617D01*
X575182Y139318D01*
X575268Y139008D01*
X575334Y138687D01*
X575382Y138357D01*
X575411Y138015D01*
X575420Y137663D01*
X575420Y133972D01*
G37*
%LPC*%
G36*
X574348Y135310D02*
X574348Y137509D01*
X574341Y137776D01*
X574319Y138035D01*
X574281Y138286D01*
X574229Y138529D01*
X574162Y138763D01*
X574081Y138990D01*
X573984Y139208D01*
X573872Y139418D01*
X573747Y139617D01*
X573608Y139805D01*
X573456Y139981D01*
X573291Y140145D01*
X573113Y140297D01*
X572921Y140437D01*
X572717Y140565D01*
X572499Y140682D01*
X572270Y140785D01*
X572031Y140875D01*
X571782Y140951D01*
X571522Y141013D01*
X571253Y141061D01*
X570974Y141095D01*
X570684Y141116D01*
X570384Y141123D01*
X569939Y141107D01*
X569521Y141060D01*
X569131Y140982D01*
X568767Y140872D01*
X568431Y140730D01*
X568122Y140558D01*
X567841Y140354D01*
X567586Y140118D01*
X567361Y139853D01*
X567165Y139559D01*
X566999Y139238D01*
X566864Y138888D01*
X566759Y138510D01*
X566683Y138104D01*
X566638Y137670D01*
X566623Y137208D01*
X566623Y135310D01*
X574348Y135310D01*
G37*
%LPD*%
G36*
X567842Y105751D02*
X567842Y106970D01*
X568042Y106991D01*
X568570Y107022D01*
X569061Y107040D01*
X569061Y107068D01*
X568734Y107250D01*
X568454Y107458D01*
X568221Y107694D01*
X568035Y107957D01*
X567892Y108256D01*
X567790Y108598D01*
X567729Y108984D01*
X567709Y109414D01*
X567724Y109753D01*
X567768Y110070D01*
X567841Y110365D01*
X567943Y110638D01*
X568075Y110889D01*
X568237Y111117D01*
X568427Y111324D01*
X568647Y111508D01*
X568899Y111671D01*
X569184Y111812D01*
X569502Y111931D01*
X569854Y112028D01*
X570239Y112104D01*
X570658Y112158D01*
X571110Y112191D01*
X571596Y112202D01*
X572076Y112191D01*
X572525Y112158D01*
X572943Y112104D01*
X573330Y112028D01*
X573686Y111930D01*
X574012Y111810D01*
X574306Y111668D01*
X574569Y111505D01*
X574801Y111320D01*
X575003Y111113D01*
X575173Y110884D01*
X575312Y110634D01*
X575421Y110362D01*
X575498Y110068D01*
X575545Y109752D01*
X575560Y109414D01*
X575540Y108994D01*
X575478Y108611D01*
X575375Y108263D01*
X575231Y107950D01*
X575046Y107674D01*
X574819Y107434D01*
X574552Y107229D01*
X574243Y107061D01*
X574243Y107026D01*
X574569Y107047D01*
X575434Y107054D01*
X578397Y107054D01*
X578397Y105793D01*
X569390Y105793D01*
X568418Y105783D01*
X567842Y105751D01*
G37*
%LPC*%
G36*
X571722Y107054D02*
X572083Y107061D01*
X572419Y107084D01*
X572731Y107121D01*
X573018Y107173D01*
X573280Y107240D01*
X573519Y107322D01*
X573732Y107419D01*
X573921Y107530D01*
X574087Y107659D01*
X574231Y107806D01*
X574352Y107971D01*
X574452Y108155D01*
X574529Y108358D01*
X574584Y108579D01*
X574618Y108819D01*
X574629Y109078D01*
X574618Y109305D01*
X574585Y109516D01*
X574532Y109711D01*
X574456Y109890D01*
X574359Y110053D01*
X574241Y110200D01*
X574100Y110332D01*
X573939Y110447D01*
X573752Y110548D01*
X573535Y110636D01*
X573290Y110710D01*
X573015Y110770D01*
X572711Y110817D01*
X572378Y110851D01*
X572016Y110871D01*
X571624Y110878D01*
X571242Y110871D01*
X570889Y110851D01*
X570564Y110818D01*
X570267Y110771D01*
X569998Y110711D01*
X569758Y110638D01*
X569546Y110551D01*
X569362Y110451D01*
X569203Y110336D01*
X569065Y110206D01*
X568948Y110059D01*
X568852Y109897D01*
X568778Y109720D01*
X568725Y109526D01*
X568693Y109317D01*
X568682Y109092D01*
X568702Y108738D01*
X568761Y108424D01*
X568860Y108151D01*
X568998Y107919D01*
X569177Y107720D01*
X569401Y107546D01*
X569669Y107398D01*
X569982Y107275D01*
X570341Y107178D01*
X570751Y107109D01*
X571211Y107068D01*
X571722Y107054D01*
G37*
%LPD*%
G36*
X571582Y79936D02*
X571126Y79950D01*
X570698Y79991D01*
X570297Y80060D01*
X569924Y80156D01*
X569578Y80279D01*
X569259Y80431D01*
X568967Y80609D01*
X568703Y80815D01*
X568469Y81047D01*
X568265Y81302D01*
X568093Y81580D01*
X567952Y81882D01*
X567843Y82208D01*
X567764Y82557D01*
X567718Y82930D01*
X567702Y83326D01*
X567718Y83730D01*
X567765Y84109D01*
X567843Y84461D01*
X567954Y84788D01*
X568095Y85088D01*
X568268Y85362D01*
X568473Y85610D01*
X568709Y85832D01*
X568976Y86027D01*
X569275Y86197D01*
X569605Y86340D01*
X569967Y86458D01*
X570360Y86549D01*
X570785Y86615D01*
X571241Y86654D01*
X571729Y86667D01*
X571897Y86667D01*
X571897Y81260D01*
X572214Y81268D01*
X572511Y81294D01*
X572790Y81336D01*
X573051Y81395D01*
X573293Y81470D01*
X573516Y81563D01*
X573721Y81673D01*
X573907Y81799D01*
X574073Y81942D01*
X574217Y82100D01*
X574338Y82273D01*
X574438Y82463D01*
X574515Y82667D01*
X574570Y82888D01*
X574604Y83124D01*
X574615Y83375D01*
X574594Y83764D01*
X574532Y84113D01*
X574429Y84421D01*
X574285Y84688D01*
X574110Y84915D01*
X573912Y85102D01*
X573693Y85250D01*
X573452Y85357D01*
X573767Y86464D01*
X573984Y86372D01*
X574187Y86267D01*
X574376Y86148D01*
X574552Y86016D01*
X574713Y85870D01*
X574860Y85711D01*
X574993Y85538D01*
X575112Y85352D01*
X575217Y85152D01*
X575308Y84939D01*
X575385Y84712D01*
X575448Y84471D01*
X575497Y84218D01*
X575532Y83950D01*
X575553Y83669D01*
X575560Y83375D01*
X575544Y82967D01*
X575497Y82585D01*
X575419Y82227D01*
X575310Y81895D01*
X575169Y81587D01*
X574997Y81305D01*
X574793Y81047D01*
X574559Y80815D01*
X574293Y80609D01*
X573997Y80431D01*
X573671Y80279D01*
X573314Y80156D01*
X572926Y80060D01*
X572509Y79991D01*
X572061Y79950D01*
X571582Y79936D01*
G37*
%LPC*%
G36*
X570931Y81274D02*
X570931Y85364D01*
X570641Y85332D01*
X570372Y85287D01*
X570123Y85229D01*
X569895Y85159D01*
X569687Y85077D01*
X569499Y84982D01*
X569331Y84875D01*
X569183Y84755D01*
X569054Y84622D01*
X568943Y84475D01*
X568848Y84314D01*
X568771Y84140D01*
X568711Y83952D01*
X568668Y83750D01*
X568642Y83534D01*
X568633Y83305D01*
X568643Y83081D01*
X568672Y82870D01*
X568720Y82670D01*
X568787Y82483D01*
X568873Y82307D01*
X568978Y82143D01*
X569103Y81992D01*
X569246Y81852D01*
X569407Y81725D01*
X569581Y81615D01*
X569770Y81519D01*
X569974Y81439D01*
X570191Y81375D01*
X570423Y81326D01*
X570670Y81292D01*
X570931Y81274D01*
G37*
%LPD*%
G36*
X575420Y143861D02*
X574531Y143861D01*
X574133Y144049D01*
X573759Y144257D01*
X573410Y144485D01*
X573084Y144733D01*
X572487Y145261D01*
X571950Y145815D01*
X571460Y146379D01*
X571008Y146939D01*
X570573Y147468D01*
X570139Y147944D01*
X569919Y148157D01*
X569694Y148349D01*
X569464Y148520D01*
X569229Y148669D01*
X568983Y148790D01*
X568721Y148876D01*
X568443Y148928D01*
X568150Y148945D01*
X567953Y148938D01*
X567767Y148916D01*
X567592Y148878D01*
X567429Y148826D01*
X567277Y148759D01*
X567136Y148677D01*
X567007Y148581D01*
X566889Y148469D01*
X566784Y148344D01*
X566693Y148208D01*
X566616Y148060D01*
X566553Y147900D01*
X566504Y147729D01*
X566469Y147546D01*
X566448Y147351D01*
X566441Y147145D01*
X566448Y146948D01*
X566469Y146760D01*
X566503Y146581D01*
X566551Y146411D01*
X566612Y146249D01*
X566687Y146097D01*
X566879Y145818D01*
X566994Y145694D01*
X567120Y145584D01*
X567257Y145487D01*
X567405Y145404D01*
X567564Y145334D01*
X567734Y145278D01*
X567916Y145235D01*
X568108Y145205D01*
X567989Y143917D01*
X567701Y143963D01*
X567427Y144032D01*
X567169Y144124D01*
X566926Y144238D01*
X566698Y144375D01*
X566485Y144535D01*
X566288Y144717D01*
X566105Y144922D01*
X565941Y145146D01*
X565799Y145385D01*
X565678Y145640D01*
X565580Y145910D01*
X565503Y146196D01*
X565448Y146497D01*
X565416Y146813D01*
X565405Y147145D01*
X565416Y147508D01*
X565449Y147848D01*
X565504Y148167D01*
X565581Y148465D01*
X565680Y148741D01*
X565801Y148995D01*
X565944Y149228D01*
X566109Y149439D01*
X566294Y149627D01*
X566497Y149790D01*
X566720Y149928D01*
X566960Y150041D01*
X567220Y150128D01*
X567497Y150191D01*
X567793Y150229D01*
X568108Y150241D01*
X568395Y150225D01*
X568681Y150175D01*
X568966Y150093D01*
X569250Y149978D01*
X569533Y149831D01*
X569817Y149652D01*
X570101Y149441D01*
X570384Y149198D01*
X570707Y148879D01*
X571107Y148443D01*
X571586Y147888D01*
X572142Y147215D01*
X572768Y146492D01*
X573057Y146192D01*
X573329Y145934D01*
X573591Y145712D01*
X573849Y145524D01*
X574101Y145369D01*
X574348Y145247D01*
X574348Y150395D01*
X575420Y150395D01*
X575420Y143861D01*
G37*
G36*
X572892Y97790D02*
X567842Y97790D01*
X567842Y99057D01*
X572647Y99057D01*
X573000Y99066D01*
X573312Y99094D01*
X573582Y99140D01*
X573809Y99204D01*
X574001Y99289D01*
X574165Y99395D01*
X574299Y99523D01*
X574404Y99674D01*
X574484Y99853D01*
X574541Y100071D01*
X574575Y100326D01*
X574587Y100619D01*
X574577Y100841D01*
X574548Y101050D01*
X574499Y101248D01*
X574431Y101433D01*
X574343Y101607D01*
X574236Y101768D01*
X574109Y101917D01*
X573963Y102055D01*
X573800Y102178D01*
X573621Y102285D01*
X573428Y102375D01*
X573219Y102449D01*
X572995Y102506D01*
X572756Y102547D01*
X572502Y102572D01*
X572233Y102580D01*
X567842Y102580D01*
X567842Y103841D01*
X573802Y103841D01*
X574868Y103851D01*
X575209Y103864D01*
X575420Y103883D01*
X575420Y102692D01*
X575231Y102678D01*
X574877Y102661D01*
X574124Y102636D01*
X574124Y102615D01*
X574488Y102389D01*
X574794Y102147D01*
X575043Y101887D01*
X575234Y101610D01*
X575377Y101307D01*
X575479Y100970D01*
X575540Y100598D01*
X575560Y100192D01*
X575550Y99891D01*
X575521Y99610D01*
X575473Y99351D01*
X575405Y99112D01*
X575318Y98895D01*
X575211Y98698D01*
X575086Y98522D01*
X574940Y98367D01*
X574773Y98232D01*
X574580Y98115D01*
X574362Y98015D01*
X574118Y97934D01*
X573849Y97871D01*
X573555Y97826D01*
X573236Y97799D01*
X572892Y97790D01*
G37*
G36*
X567842Y68311D02*
X567842Y69501D01*
X568031Y69515D01*
X568385Y69533D01*
X569138Y69557D01*
X569138Y69578D01*
X568774Y69804D01*
X568468Y70047D01*
X568219Y70306D01*
X568028Y70583D01*
X567885Y70886D01*
X567783Y71223D01*
X567722Y71595D01*
X567702Y72002D01*
X567712Y72303D01*
X567741Y72583D01*
X567789Y72842D01*
X567857Y73081D01*
X567944Y73299D01*
X568051Y73495D01*
X568176Y73671D01*
X568322Y73826D01*
X568489Y73961D01*
X568682Y74079D01*
X568900Y74178D01*
X569144Y74259D01*
X569412Y74323D01*
X569706Y74368D01*
X570026Y74395D01*
X570370Y74404D01*
X575420Y74404D01*
X575420Y73136D01*
X570615Y73136D01*
X570262Y73127D01*
X569950Y73099D01*
X569680Y73053D01*
X569453Y72989D01*
X569261Y72905D01*
X569097Y72798D01*
X568963Y72670D01*
X568857Y72520D01*
X568778Y72340D01*
X568721Y72122D01*
X568687Y71867D01*
X568675Y71574D01*
X568685Y71353D01*
X568714Y71143D01*
X568763Y70946D01*
X568831Y70760D01*
X568919Y70587D01*
X569026Y70425D01*
X569153Y70276D01*
X569299Y70139D01*
X569462Y70015D01*
X569641Y69909D01*
X569834Y69818D01*
X570043Y69745D01*
X570267Y69687D01*
X570506Y69646D01*
X570760Y69621D01*
X571029Y69613D01*
X575420Y69613D01*
X575420Y68353D01*
X569460Y68353D01*
X568393Y68342D01*
X568053Y68329D01*
X567842Y68311D01*
G37*
G36*
X568759Y75544D02*
X567842Y75544D01*
X567842Y76468D01*
X566147Y76840D01*
X566147Y77680D01*
X567842Y77680D01*
X567842Y79081D01*
X568759Y79081D01*
X568759Y77680D01*
X573543Y77680D01*
X573796Y77691D01*
X574008Y77725D01*
X574179Y77780D01*
X574310Y77859D01*
X574406Y77964D01*
X574475Y78103D01*
X574517Y78274D01*
X574531Y78478D01*
X574506Y78787D01*
X574432Y79207D01*
X575364Y79207D01*
X575438Y78893D01*
X575490Y78577D01*
X575522Y78256D01*
X575532Y77932D01*
X575525Y77749D01*
X575505Y77578D01*
X575472Y77418D01*
X575425Y77270D01*
X575365Y77134D01*
X575291Y77010D01*
X575204Y76898D01*
X575103Y76798D01*
X574989Y76709D01*
X574862Y76632D01*
X574721Y76567D01*
X574567Y76514D01*
X574399Y76473D01*
X574218Y76443D01*
X574024Y76425D01*
X573816Y76419D01*
X568759Y76419D01*
X568759Y75544D01*
G37*
G36*
X568759Y113013D02*
X567842Y113013D01*
X567842Y113937D01*
X566147Y114308D01*
X566147Y115149D01*
X567842Y115149D01*
X567842Y116550D01*
X568759Y116550D01*
X568759Y115149D01*
X573543Y115149D01*
X573796Y115160D01*
X574008Y115193D01*
X574179Y115249D01*
X574310Y115327D01*
X574406Y115433D01*
X574475Y115572D01*
X574517Y115743D01*
X574531Y115947D01*
X574506Y116255D01*
X574432Y116676D01*
X575364Y116676D01*
X575438Y116362D01*
X575490Y116045D01*
X575522Y115725D01*
X575532Y115401D01*
X575525Y115218D01*
X575505Y115046D01*
X575472Y114887D01*
X575425Y114739D01*
X575365Y114603D01*
X575291Y114479D01*
X575204Y114367D01*
X575103Y114266D01*
X574989Y114178D01*
X574862Y114101D01*
X574721Y114036D01*
X574567Y113983D01*
X574399Y113941D01*
X574218Y113912D01*
X574024Y113894D01*
X573816Y113888D01*
X568759Y113888D01*
X568759Y113013D01*
G37*
G36*
X575420Y64682D02*
X565552Y64682D01*
X565552Y66019D01*
X575420Y66019D01*
X575420Y64682D01*
G37*
G36*
X567842Y88248D02*
X567842Y89439D01*
X569390Y89495D01*
X569390Y89523D01*
X568942Y89679D01*
X568570Y89847D01*
X568276Y90026D01*
X568059Y90216D01*
X567903Y90432D01*
X567791Y90689D01*
X567724Y90986D01*
X567702Y91323D01*
X567719Y91577D01*
X567772Y91834D01*
X568928Y91834D01*
X568875Y91540D01*
X568857Y91162D01*
X568868Y90971D01*
X568900Y90793D01*
X568953Y90625D01*
X569026Y90470D01*
X569121Y90326D01*
X569238Y90194D01*
X569375Y90073D01*
X569533Y89964D01*
X569711Y89867D01*
X569908Y89783D01*
X570122Y89712D01*
X570355Y89654D01*
X570607Y89609D01*
X570876Y89577D01*
X571164Y89557D01*
X571470Y89551D01*
X575420Y89551D01*
X575420Y88290D01*
X569607Y88290D01*
X568766Y88280D01*
X567842Y88248D01*
G37*
G36*
X567842Y93029D02*
X567842Y94220D01*
X569390Y94276D01*
X569390Y94304D01*
X568942Y94460D01*
X568570Y94628D01*
X568276Y94807D01*
X568059Y94997D01*
X567903Y95214D01*
X567791Y95470D01*
X567724Y95767D01*
X567702Y96104D01*
X567719Y96358D01*
X567772Y96615D01*
X568928Y96615D01*
X568875Y96321D01*
X568857Y95943D01*
X568868Y95753D01*
X568900Y95574D01*
X568953Y95407D01*
X569026Y95251D01*
X569121Y95107D01*
X569238Y94975D01*
X569375Y94854D01*
X569533Y94745D01*
X569711Y94648D01*
X569908Y94564D01*
X570122Y94493D01*
X570355Y94435D01*
X570607Y94390D01*
X570876Y94358D01*
X571164Y94338D01*
X571470Y94332D01*
X575420Y94332D01*
X575420Y93071D01*
X569607Y93071D01*
X568766Y93061D01*
X567842Y93029D01*
G37*
G36*
X600820Y72430D02*
X595693Y76184D01*
X590952Y72717D01*
X590952Y74195D01*
X594825Y76941D01*
X590952Y79609D01*
X590952Y81087D01*
X595644Y77711D01*
X600820Y81374D01*
X600820Y79896D01*
X596506Y76934D01*
X600820Y73908D01*
X600820Y72430D01*
G37*
G36*
X592044Y63680D02*
X590952Y63680D01*
X590952Y71791D01*
X592044Y71791D01*
X592044Y68401D01*
X600820Y68401D01*
X600820Y67070D01*
X592044Y67070D01*
X592044Y63680D01*
G37*
G36*
X626220Y64535D02*
X616352Y64535D01*
X616352Y69178D01*
X616363Y69583D01*
X616398Y69964D01*
X616457Y70321D01*
X616538Y70655D01*
X616643Y70965D01*
X616771Y71251D01*
X616923Y71513D01*
X617098Y71752D01*
X617293Y71965D01*
X617507Y72149D01*
X617739Y72305D01*
X617990Y72432D01*
X618258Y72531D01*
X618545Y72602D01*
X618851Y72645D01*
X619174Y72659D01*
X619444Y72649D01*
X619702Y72619D01*
X619950Y72569D01*
X620186Y72499D01*
X620412Y72409D01*
X620627Y72299D01*
X620830Y72168D01*
X621023Y72018D01*
X621202Y71850D01*
X621363Y71667D01*
X621507Y71469D01*
X621560Y71380D01*
X621634Y71256D01*
X621744Y71027D01*
X621836Y70783D01*
X621911Y70524D01*
X621969Y70250D01*
X623778Y71442D01*
X626220Y73051D01*
X626220Y71510D01*
X622123Y68947D01*
X622123Y65872D01*
X626220Y65872D01*
X626220Y64535D01*
G37*
%LPC*%
G36*
X621065Y65872D02*
X621065Y69101D01*
X621058Y69358D01*
X621034Y69600D01*
X620996Y69827D01*
X620942Y70039D01*
X620872Y70236D01*
X620788Y70418D01*
X620687Y70585D01*
X620571Y70736D01*
X620442Y70872D01*
X620300Y70989D01*
X620146Y71089D01*
X619979Y71170D01*
X619800Y71233D01*
X619608Y71278D01*
X619404Y71305D01*
X619188Y71314D01*
X618979Y71305D01*
X618783Y71278D01*
X618600Y71232D01*
X618429Y71168D01*
X618271Y71086D01*
X618127Y70985D01*
X617994Y70867D01*
X617875Y70729D01*
X617769Y70575D01*
X617677Y70405D01*
X617600Y70218D01*
X617536Y70016D01*
X617487Y69797D01*
X617452Y69563D01*
X617430Y69312D01*
X617423Y69045D01*
X617423Y65872D01*
X621065Y65872D01*
G37*
%LPD*%
G36*
X626220Y74024D02*
X621093Y77778D01*
X616352Y74311D01*
X616352Y75789D01*
X620225Y78534D01*
X616352Y81203D01*
X616352Y82681D01*
X621044Y79305D01*
X626220Y82968D01*
X626220Y81490D01*
X621906Y78527D01*
X626220Y75502D01*
X626220Y74024D01*
G37*
G36*
X204620Y74097D02*
X194752Y74097D01*
X194752Y77361D01*
X194771Y77970D01*
X194830Y78543D01*
X194928Y79080D01*
X195066Y79582D01*
X195243Y80048D01*
X195459Y80478D01*
X195714Y80872D01*
X196009Y81230D01*
X196340Y81550D01*
X196704Y81826D01*
X197101Y82061D01*
X197531Y82252D01*
X197995Y82401D01*
X198492Y82508D01*
X199021Y82571D01*
X199584Y82593D01*
X199960Y82583D01*
X200324Y82556D01*
X200676Y82509D01*
X201016Y82444D01*
X201344Y82360D01*
X201660Y82258D01*
X201964Y82137D01*
X202256Y81997D01*
X202534Y81841D01*
X202795Y81669D01*
X203040Y81481D01*
X203267Y81278D01*
X203478Y81059D01*
X203673Y80825D01*
X203850Y80575D01*
X204011Y80309D01*
X204154Y80031D01*
X204277Y79742D01*
X204382Y79443D01*
X204468Y79133D01*
X204534Y78812D01*
X204582Y78482D01*
X204611Y78140D01*
X204620Y77788D01*
X204620Y74097D01*
G37*
%LPC*%
G36*
X203548Y75435D02*
X203548Y77634D01*
X203541Y77901D01*
X203519Y78160D01*
X203481Y78411D01*
X203429Y78654D01*
X203362Y78888D01*
X203281Y79115D01*
X203184Y79333D01*
X203072Y79543D01*
X202947Y79742D01*
X202808Y79930D01*
X202656Y80106D01*
X202491Y80270D01*
X202313Y80422D01*
X202121Y80562D01*
X201917Y80690D01*
X201699Y80807D01*
X201470Y80910D01*
X201231Y81000D01*
X200982Y81076D01*
X200722Y81138D01*
X200453Y81186D01*
X200174Y81220D01*
X199884Y81241D01*
X199584Y81248D01*
X199139Y81232D01*
X198721Y81185D01*
X198331Y81107D01*
X197967Y80997D01*
X197631Y80855D01*
X197322Y80683D01*
X197041Y80479D01*
X196786Y80243D01*
X196561Y79978D01*
X196365Y79684D01*
X196199Y79363D01*
X196064Y79013D01*
X195959Y78635D01*
X195883Y78229D01*
X195838Y77795D01*
X195823Y77333D01*
X195823Y75435D01*
X203548Y75435D01*
G37*
%LPD*%
G36*
X204620Y83292D02*
X194752Y87319D01*
X194752Y88839D01*
X204620Y92803D01*
X204620Y91438D01*
X201734Y90310D01*
X201734Y85814D01*
X204620Y84679D01*
X204620Y83292D01*
G37*
%LPC*%
G36*
X200691Y86220D02*
X200691Y89911D01*
X197434Y88643D01*
X196919Y88447D01*
X196342Y88251D01*
X195760Y88062D01*
X195956Y87999D01*
X196620Y87782D01*
X197448Y87481D01*
X200691Y86220D01*
G37*
%LPD*%
G36*
X202253Y64009D02*
X201994Y65305D01*
X202209Y65369D01*
X202409Y65449D01*
X202594Y65544D01*
X202765Y65655D01*
X202921Y65782D01*
X203062Y65925D01*
X203188Y66083D01*
X203300Y66258D01*
X203397Y66448D01*
X203482Y66655D01*
X203554Y66878D01*
X203612Y67117D01*
X203658Y67373D01*
X203690Y67646D01*
X203710Y67934D01*
X203717Y68240D01*
X203710Y68554D01*
X203689Y68850D01*
X203654Y69128D01*
X203605Y69387D01*
X203543Y69628D01*
X203466Y69850D01*
X203376Y70054D01*
X203272Y70239D01*
X203154Y70404D01*
X203023Y70547D01*
X202880Y70668D01*
X202723Y70767D01*
X202553Y70844D01*
X202370Y70899D01*
X202174Y70932D01*
X201966Y70943D01*
X201735Y70929D01*
X201528Y70888D01*
X201343Y70819D01*
X201181Y70722D01*
X201037Y70601D01*
X200906Y70457D01*
X200789Y70291D01*
X200684Y70103D01*
X200504Y69665D01*
X200355Y69150D01*
X200068Y67924D01*
X199938Y67375D01*
X199808Y66896D01*
X199679Y66487D01*
X199549Y66149D01*
X199416Y65862D01*
X199275Y65607D01*
X199127Y65384D01*
X198971Y65193D01*
X198805Y65028D01*
X198626Y64884D01*
X198432Y64760D01*
X198226Y64657D01*
X198004Y64576D01*
X197767Y64518D01*
X197514Y64483D01*
X197245Y64472D01*
X196937Y64487D01*
X196648Y64532D01*
X196376Y64608D01*
X196123Y64714D01*
X195888Y64851D01*
X195671Y65017D01*
X195472Y65214D01*
X195291Y65442D01*
X195130Y65697D01*
X194991Y65979D01*
X194873Y66287D01*
X194776Y66621D01*
X194701Y66981D01*
X194648Y67367D01*
X194615Y67780D01*
X194605Y68219D01*
X194613Y68626D01*
X194637Y69010D01*
X194677Y69368D01*
X194733Y69702D01*
X194806Y70011D01*
X194894Y70295D01*
X194999Y70554D01*
X195119Y70789D01*
X195259Y71003D01*
X195422Y71200D01*
X195607Y71381D01*
X195815Y71545D01*
X196046Y71693D01*
X196299Y71824D01*
X196575Y71938D01*
X196874Y72036D01*
X197105Y70719D01*
X196916Y70659D01*
X196740Y70586D01*
X196577Y70501D01*
X196428Y70404D01*
X196293Y70294D01*
X196171Y70173D01*
X196062Y70039D01*
X195967Y69893D01*
X195884Y69733D01*
X195812Y69559D01*
X195751Y69370D01*
X195702Y69166D01*
X195635Y68715D01*
X195613Y68205D01*
X195619Y67917D01*
X195638Y67648D01*
X195668Y67396D01*
X195711Y67161D01*
X195766Y66944D01*
X195834Y66744D01*
X195913Y66562D01*
X196005Y66398D01*
X196109Y66252D01*
X196226Y66125D01*
X196354Y66018D01*
X196494Y65930D01*
X196646Y65862D01*
X196810Y65813D01*
X196987Y65784D01*
X197175Y65774D01*
X197393Y65789D01*
X197591Y65835D01*
X197769Y65910D01*
X197928Y66016D01*
X198071Y66150D01*
X198203Y66311D01*
X198323Y66499D01*
X198432Y66713D01*
X198541Y66997D01*
X198662Y67394D01*
X198795Y67904D01*
X198940Y68527D01*
X199154Y69434D01*
X199273Y69876D01*
X199413Y70299D01*
X199576Y70699D01*
X199766Y71073D01*
X199992Y71410D01*
X200264Y71700D01*
X200417Y71825D01*
X200584Y71937D01*
X200764Y72034D01*
X200957Y72116D01*
X201165Y72182D01*
X201391Y72229D01*
X201635Y72257D01*
X201896Y72267D01*
X202227Y72250D01*
X202540Y72200D01*
X202833Y72117D01*
X203107Y72000D01*
X203362Y71850D01*
X203597Y71666D01*
X203814Y71449D01*
X204011Y71199D01*
X204186Y70918D01*
X204339Y70610D01*
X204467Y70275D01*
X204573Y69913D01*
X204655Y69523D01*
X204713Y69106D01*
X204748Y68662D01*
X204760Y68191D01*
X204750Y67752D01*
X204721Y67336D01*
X204672Y66945D01*
X204603Y66577D01*
X204515Y66232D01*
X204408Y65912D01*
X204280Y65615D01*
X204133Y65342D01*
X203967Y65092D01*
X203781Y64867D01*
X203575Y64664D01*
X203350Y64486D01*
X203105Y64331D01*
X202840Y64200D01*
X202556Y64093D01*
X202253Y64009D01*
G37*
G36*
X176853Y64009D02*
X176594Y65305D01*
X176809Y65369D01*
X177009Y65449D01*
X177194Y65544D01*
X177365Y65655D01*
X177521Y65782D01*
X177662Y65925D01*
X177788Y66083D01*
X177900Y66258D01*
X177997Y66448D01*
X178082Y66655D01*
X178154Y66878D01*
X178212Y67117D01*
X178258Y67373D01*
X178290Y67646D01*
X178310Y67934D01*
X178317Y68240D01*
X178310Y68554D01*
X178289Y68850D01*
X178254Y69128D01*
X178205Y69387D01*
X178143Y69628D01*
X178066Y69850D01*
X177976Y70054D01*
X177872Y70239D01*
X177754Y70404D01*
X177623Y70547D01*
X177480Y70668D01*
X177323Y70767D01*
X177153Y70844D01*
X176970Y70899D01*
X176774Y70932D01*
X176566Y70943D01*
X176335Y70929D01*
X176128Y70888D01*
X175943Y70819D01*
X175781Y70722D01*
X175637Y70601D01*
X175506Y70457D01*
X175389Y70291D01*
X175284Y70103D01*
X175104Y69665D01*
X174955Y69150D01*
X174668Y67924D01*
X174538Y67375D01*
X174408Y66896D01*
X174279Y66487D01*
X174149Y66149D01*
X174016Y65862D01*
X173875Y65607D01*
X173727Y65384D01*
X173571Y65193D01*
X173405Y65028D01*
X173226Y64884D01*
X173032Y64760D01*
X172826Y64657D01*
X172604Y64576D01*
X172367Y64518D01*
X172114Y64483D01*
X171845Y64472D01*
X171537Y64487D01*
X171248Y64532D01*
X170976Y64608D01*
X170723Y64714D01*
X170488Y64851D01*
X170271Y65017D01*
X170072Y65214D01*
X169891Y65442D01*
X169730Y65697D01*
X169591Y65979D01*
X169473Y66287D01*
X169376Y66621D01*
X169301Y66981D01*
X169248Y67367D01*
X169215Y67780D01*
X169205Y68219D01*
X169213Y68626D01*
X169237Y69010D01*
X169277Y69368D01*
X169333Y69702D01*
X169406Y70011D01*
X169494Y70295D01*
X169599Y70554D01*
X169719Y70789D01*
X169859Y71003D01*
X170022Y71200D01*
X170207Y71381D01*
X170415Y71545D01*
X170646Y71693D01*
X170899Y71824D01*
X171175Y71938D01*
X171474Y72036D01*
X171705Y70719D01*
X171516Y70659D01*
X171340Y70586D01*
X171177Y70501D01*
X171028Y70404D01*
X170893Y70294D01*
X170771Y70173D01*
X170662Y70039D01*
X170567Y69893D01*
X170484Y69733D01*
X170412Y69559D01*
X170351Y69370D01*
X170302Y69166D01*
X170235Y68715D01*
X170213Y68205D01*
X170219Y67917D01*
X170238Y67648D01*
X170268Y67396D01*
X170311Y67161D01*
X170366Y66944D01*
X170434Y66744D01*
X170513Y66562D01*
X170605Y66398D01*
X170709Y66252D01*
X170826Y66125D01*
X170954Y66018D01*
X171094Y65930D01*
X171246Y65862D01*
X171410Y65813D01*
X171587Y65784D01*
X171775Y65774D01*
X171993Y65789D01*
X172191Y65835D01*
X172369Y65910D01*
X172528Y66016D01*
X172671Y66150D01*
X172803Y66311D01*
X172923Y66499D01*
X173032Y66713D01*
X173141Y66997D01*
X173262Y67394D01*
X173395Y67904D01*
X173540Y68527D01*
X173754Y69434D01*
X173873Y69876D01*
X174013Y70299D01*
X174176Y70699D01*
X174366Y71073D01*
X174592Y71410D01*
X174864Y71700D01*
X175017Y71825D01*
X175184Y71937D01*
X175364Y72034D01*
X175557Y72116D01*
X175765Y72182D01*
X175991Y72229D01*
X176235Y72257D01*
X176496Y72267D01*
X176827Y72250D01*
X177140Y72200D01*
X177433Y72117D01*
X177707Y72000D01*
X177962Y71850D01*
X178197Y71666D01*
X178414Y71449D01*
X178611Y71199D01*
X178786Y70918D01*
X178939Y70610D01*
X179067Y70275D01*
X179173Y69913D01*
X179255Y69523D01*
X179313Y69106D01*
X179348Y68662D01*
X179360Y68191D01*
X179350Y67752D01*
X179321Y67336D01*
X179272Y66945D01*
X179203Y66577D01*
X179115Y66232D01*
X179008Y65912D01*
X178880Y65615D01*
X178733Y65342D01*
X178567Y65092D01*
X178381Y64867D01*
X178175Y64664D01*
X177950Y64486D01*
X177705Y64331D01*
X177440Y64200D01*
X177156Y64093D01*
X176853Y64009D01*
G37*
G36*
X174240Y73649D02*
X173666Y73669D01*
X173124Y73729D01*
X172614Y73828D01*
X172136Y73968D01*
X171689Y74147D01*
X171275Y74366D01*
X170893Y74625D01*
X170542Y74924D01*
X170229Y75258D01*
X169957Y75622D01*
X169727Y76017D01*
X169539Y76443D01*
X169393Y76900D01*
X169288Y77387D01*
X169226Y77905D01*
X169205Y78453D01*
X169214Y78839D01*
X169243Y79209D01*
X169291Y79562D01*
X169359Y79900D01*
X169445Y80221D01*
X169551Y80526D01*
X169676Y80814D01*
X169821Y81087D01*
X169984Y81343D01*
X170166Y81581D01*
X170367Y81801D01*
X170586Y82004D01*
X170824Y82190D01*
X171080Y82358D01*
X171355Y82509D01*
X171649Y82642D01*
X172069Y81374D01*
X171860Y81282D01*
X171664Y81176D01*
X171480Y81058D01*
X171309Y80927D01*
X171151Y80782D01*
X171005Y80625D01*
X170873Y80454D01*
X170752Y80271D01*
X170646Y80077D01*
X170553Y79873D01*
X170475Y79661D01*
X170411Y79440D01*
X170361Y79210D01*
X170326Y78972D01*
X170304Y78724D01*
X170297Y78467D01*
X170314Y78069D01*
X170363Y77694D01*
X170445Y77341D01*
X170561Y77011D01*
X170709Y76703D01*
X170890Y76419D01*
X171104Y76157D01*
X171351Y75918D01*
X171627Y75705D01*
X171927Y75520D01*
X172252Y75363D01*
X172601Y75235D01*
X172974Y75136D01*
X173372Y75065D01*
X173794Y75022D01*
X174240Y75008D01*
X174683Y75022D01*
X175103Y75067D01*
X175501Y75141D01*
X175877Y75245D01*
X176230Y75378D01*
X176561Y75541D01*
X176871Y75734D01*
X177157Y75957D01*
X177416Y76204D01*
X177640Y76473D01*
X177830Y76762D01*
X177985Y77073D01*
X178105Y77404D01*
X178192Y77756D01*
X178243Y78130D01*
X178261Y78524D01*
X178252Y78779D01*
X178228Y79026D01*
X178188Y79265D01*
X178132Y79496D01*
X178060Y79719D01*
X177972Y79934D01*
X177868Y80140D01*
X177747Y80339D01*
X177611Y80530D01*
X177459Y80713D01*
X177291Y80887D01*
X177106Y81054D01*
X176689Y81363D01*
X176208Y81640D01*
X176755Y82733D01*
X177064Y82573D01*
X177354Y82397D01*
X177625Y82206D01*
X177877Y82000D01*
X178110Y81778D01*
X178324Y81541D01*
X178519Y81288D01*
X178695Y81020D01*
X178851Y80739D01*
X178986Y80447D01*
X179100Y80143D01*
X179194Y79829D01*
X179267Y79503D01*
X179318Y79167D01*
X179350Y78819D01*
X179360Y78460D01*
X179350Y78094D01*
X179321Y77740D01*
X179273Y77398D01*
X179205Y77069D01*
X179118Y76753D01*
X179011Y76449D01*
X178886Y76158D01*
X178740Y75880D01*
X178577Y75615D01*
X178397Y75367D01*
X178201Y75136D01*
X177987Y74920D01*
X177758Y74721D01*
X177511Y74537D01*
X177248Y74371D01*
X176968Y74220D01*
X176674Y74086D01*
X176366Y73970D01*
X176045Y73872D01*
X175710Y73792D01*
X175363Y73729D01*
X175002Y73685D01*
X174628Y73658D01*
X174240Y73649D01*
G37*
G36*
X179220Y84441D02*
X169352Y84441D01*
X169352Y85779D01*
X178127Y85779D01*
X178127Y90765D01*
X179220Y90765D01*
X179220Y84441D01*
G37*
G36*
X291360Y460282D02*
X290785Y460302D01*
X290241Y460363D01*
X289730Y460464D01*
X289251Y460606D01*
X288805Y460788D01*
X288391Y461011D01*
X288009Y461274D01*
X287659Y461578D01*
X287346Y461917D01*
X287075Y462289D01*
X286846Y462692D01*
X286658Y463127D01*
X286512Y463594D01*
X286408Y464092D01*
X286345Y464623D01*
X286325Y465185D01*
X286334Y465555D01*
X286362Y465912D01*
X286409Y466258D01*
X286474Y466591D01*
X286559Y466911D01*
X286661Y467219D01*
X286783Y467514D01*
X286923Y467797D01*
X287082Y468065D01*
X287257Y468318D01*
X287449Y468554D01*
X287658Y468773D01*
X287884Y468976D01*
X288127Y469163D01*
X288387Y469334D01*
X288664Y469488D01*
X288956Y469625D01*
X289261Y469744D01*
X289578Y469845D01*
X289909Y469927D01*
X290252Y469991D01*
X290609Y470037D01*
X290978Y470064D01*
X291360Y470073D01*
X291741Y470064D01*
X292110Y470036D01*
X292467Y469990D01*
X292812Y469925D01*
X293145Y469842D01*
X293465Y469740D01*
X293774Y469620D01*
X294071Y469481D01*
X294353Y469325D01*
X294618Y469153D01*
X294867Y468965D01*
X295099Y468761D01*
X295313Y468540D01*
X295511Y468304D01*
X295693Y468052D01*
X295857Y467783D01*
X296003Y467500D01*
X296129Y467205D01*
X296237Y466897D01*
X296324Y466577D01*
X296392Y466244D01*
X296441Y465898D01*
X296470Y465541D01*
X296480Y465171D01*
X296470Y464797D01*
X296442Y464437D01*
X296393Y464089D01*
X296326Y463755D01*
X296239Y463434D01*
X296133Y463125D01*
X296008Y462830D01*
X295864Y462548D01*
X295701Y462280D01*
X295521Y462029D01*
X295324Y461794D01*
X295110Y461575D01*
X294879Y461373D01*
X294630Y461186D01*
X294364Y461017D01*
X294081Y460863D01*
X293784Y460727D01*
X293474Y460609D01*
X293152Y460509D01*
X292818Y460427D01*
X292472Y460364D01*
X292113Y460318D01*
X291743Y460291D01*
X291360Y460282D01*
G37*
%LPC*%
G36*
X291360Y461641D02*
X291812Y461655D01*
X292240Y461699D01*
X292644Y461772D01*
X293025Y461874D01*
X293381Y462006D01*
X293713Y462167D01*
X294021Y462356D01*
X294305Y462576D01*
X294561Y462821D01*
X294782Y463088D01*
X294969Y463379D01*
X295122Y463692D01*
X295241Y464028D01*
X295326Y464386D01*
X295378Y464767D01*
X295395Y465171D01*
X295378Y465585D01*
X295329Y465975D01*
X295246Y466340D01*
X295131Y466681D01*
X294983Y466996D01*
X294802Y467287D01*
X294587Y467553D01*
X294340Y467793D01*
X294063Y468008D01*
X293759Y468193D01*
X293427Y468350D01*
X293068Y468479D01*
X292682Y468579D01*
X292269Y468650D01*
X291828Y468693D01*
X291360Y468707D01*
X290912Y468693D01*
X290489Y468650D01*
X290090Y468578D01*
X289716Y468477D01*
X289367Y468348D01*
X289043Y468189D01*
X288743Y468002D01*
X288468Y467786D01*
X288222Y467544D01*
X288008Y467278D01*
X287828Y466989D01*
X287680Y466675D01*
X287565Y466338D01*
X287483Y465977D01*
X287434Y465593D01*
X287417Y465185D01*
X287433Y464773D01*
X287482Y464385D01*
X287563Y464022D01*
X287676Y463682D01*
X287822Y463367D01*
X288000Y463076D01*
X288211Y462808D01*
X288454Y462565D01*
X288726Y462348D01*
X289024Y462161D01*
X289348Y462002D01*
X289699Y461872D01*
X290075Y461771D01*
X290477Y461698D01*
X290906Y461655D01*
X291360Y461641D01*
G37*
%LPD*%
G36*
X296340Y471935D02*
X286472Y471935D01*
X286472Y476579D01*
X286483Y476984D01*
X286518Y477365D01*
X286577Y477722D01*
X286658Y478056D01*
X286763Y478366D01*
X286891Y478652D01*
X287043Y478914D01*
X287218Y479153D01*
X287413Y479365D01*
X287627Y479550D01*
X287859Y479705D01*
X288110Y479833D01*
X288378Y479932D01*
X288665Y480003D01*
X288971Y480046D01*
X289294Y480060D01*
X289564Y480050D01*
X289822Y480020D01*
X290070Y479970D01*
X290306Y479900D01*
X290532Y479809D01*
X290747Y479699D01*
X290950Y479569D01*
X291143Y479419D01*
X291322Y479251D01*
X291483Y479068D01*
X291627Y478870D01*
X291680Y478781D01*
X291754Y478656D01*
X291864Y478428D01*
X291956Y478184D01*
X292031Y477925D01*
X292089Y477650D01*
X293898Y478843D01*
X296340Y480452D01*
X296340Y478911D01*
X292243Y476348D01*
X292243Y473273D01*
X296340Y473273D01*
X296340Y471935D01*
G37*
%LPC*%
G36*
X291185Y473273D02*
X291185Y476502D01*
X291178Y476759D01*
X291154Y477001D01*
X291116Y477228D01*
X291062Y477439D01*
X290992Y477636D01*
X290908Y477818D01*
X290807Y477985D01*
X290691Y478137D01*
X290562Y478273D01*
X290420Y478390D01*
X290266Y478489D01*
X290099Y478571D01*
X289920Y478634D01*
X289728Y478679D01*
X289524Y478706D01*
X289308Y478715D01*
X289099Y478706D01*
X288903Y478678D01*
X288720Y478633D01*
X288549Y478569D01*
X288391Y478487D01*
X288247Y478386D01*
X288114Y478267D01*
X287995Y478130D01*
X287889Y477976D01*
X287797Y477806D01*
X287720Y477619D01*
X287656Y477417D01*
X287607Y477198D01*
X287572Y476963D01*
X287550Y476713D01*
X287543Y476446D01*
X287543Y473273D01*
X291185Y473273D01*
G37*
%LPD*%
G36*
X296340Y482279D02*
X286472Y482279D01*
X286472Y489766D01*
X287564Y489766D01*
X287564Y483617D01*
X290730Y483617D01*
X290730Y489346D01*
X291809Y489346D01*
X291809Y483617D01*
X295247Y483617D01*
X295247Y490053D01*
X296340Y490053D01*
X296340Y482279D01*
G37*
G36*
X296340Y491842D02*
X286472Y491842D01*
X286472Y498852D01*
X287564Y498852D01*
X287564Y493179D01*
X291234Y493179D01*
X291234Y498684D01*
X292341Y498684D01*
X292341Y493179D01*
X296340Y493179D01*
X296340Y491842D01*
G37*
G36*
X296340Y456926D02*
X286472Y456926D01*
X286472Y458264D01*
X296340Y458264D01*
X296340Y456926D01*
G37*
G36*
X220340Y471404D02*
X210472Y471404D01*
X210472Y476048D01*
X210483Y476452D01*
X210518Y476834D01*
X210577Y477191D01*
X210658Y477525D01*
X210763Y477834D01*
X210891Y478121D01*
X211043Y478383D01*
X211218Y478622D01*
X211413Y478834D01*
X211627Y479018D01*
X211859Y479174D01*
X212110Y479302D01*
X212378Y479401D01*
X212665Y479472D01*
X212971Y479514D01*
X213294Y479529D01*
X213564Y479519D01*
X213822Y479488D01*
X214070Y479438D01*
X214306Y479368D01*
X214532Y479278D01*
X214747Y479168D01*
X214950Y479038D01*
X215143Y478888D01*
X215322Y478720D01*
X215483Y478537D01*
X215627Y478339D01*
X215680Y478250D01*
X215754Y478125D01*
X215864Y477896D01*
X215956Y477653D01*
X216031Y477394D01*
X216089Y477119D01*
X217898Y478312D01*
X220340Y479921D01*
X220340Y478380D01*
X216243Y475817D01*
X216243Y472742D01*
X220340Y472742D01*
X220340Y471404D01*
G37*
%LPC*%
G36*
X215185Y472742D02*
X215185Y475971D01*
X215178Y476227D01*
X215154Y476469D01*
X215116Y476696D01*
X215062Y476908D01*
X214992Y477105D01*
X214908Y477287D01*
X214807Y477454D01*
X214691Y477606D01*
X214562Y477741D01*
X214420Y477859D01*
X214266Y477958D01*
X214099Y478039D01*
X213920Y478103D01*
X213728Y478148D01*
X213524Y478175D01*
X213308Y478184D01*
X213099Y478175D01*
X212903Y478147D01*
X212720Y478102D01*
X212549Y478038D01*
X212391Y477955D01*
X212247Y477855D01*
X212114Y477736D01*
X211995Y477599D01*
X211889Y477445D01*
X211797Y477274D01*
X211720Y477088D01*
X211656Y476885D01*
X211607Y476667D01*
X211572Y476432D01*
X211550Y476181D01*
X211543Y475915D01*
X211543Y472742D01*
X215185Y472742D01*
G37*
%LPD*%
G36*
X215360Y489800D02*
X214786Y489820D01*
X214244Y489879D01*
X213734Y489979D01*
X213256Y490118D01*
X212809Y490298D01*
X212395Y490517D01*
X212013Y490776D01*
X211662Y491074D01*
X211349Y491408D01*
X211077Y491773D01*
X210847Y492168D01*
X210659Y492594D01*
X210513Y493051D01*
X210408Y493538D01*
X210346Y494056D01*
X210325Y494604D01*
X210334Y494990D01*
X210363Y495360D01*
X210411Y495713D01*
X210479Y496051D01*
X210565Y496372D01*
X210671Y496676D01*
X210796Y496965D01*
X210941Y497238D01*
X211104Y497493D01*
X211286Y497731D01*
X211487Y497952D01*
X211706Y498155D01*
X211944Y498341D01*
X212200Y498509D01*
X212475Y498659D01*
X212769Y498793D01*
X213189Y497525D01*
X212980Y497433D01*
X212784Y497327D01*
X212600Y497209D01*
X212429Y497077D01*
X212271Y496933D01*
X212125Y496776D01*
X211993Y496605D01*
X211872Y496422D01*
X211766Y496227D01*
X211673Y496024D01*
X211595Y495812D01*
X211531Y495591D01*
X211481Y495361D01*
X211446Y495122D01*
X211424Y494875D01*
X211417Y494618D01*
X211434Y494220D01*
X211483Y493844D01*
X211565Y493492D01*
X211681Y493161D01*
X211829Y492854D01*
X212010Y492570D01*
X212224Y492308D01*
X212471Y492069D01*
X212747Y491855D01*
X213047Y491671D01*
X213372Y491514D01*
X213721Y491386D01*
X214094Y491286D01*
X214492Y491215D01*
X214914Y491173D01*
X215360Y491158D01*
X215803Y491173D01*
X216223Y491218D01*
X216621Y491292D01*
X216997Y491396D01*
X217350Y491529D01*
X217681Y491692D01*
X217991Y491885D01*
X218277Y492107D01*
X218536Y492355D01*
X218760Y492624D01*
X218950Y492913D01*
X219105Y493224D01*
X219225Y493555D01*
X219312Y493907D01*
X219363Y494280D01*
X219381Y494674D01*
X219372Y494929D01*
X219348Y495176D01*
X219308Y495416D01*
X219252Y495646D01*
X219180Y495869D01*
X219092Y496084D01*
X218988Y496291D01*
X218867Y496490D01*
X218731Y496681D01*
X218579Y496864D01*
X218411Y497038D01*
X218226Y497205D01*
X217809Y497514D01*
X217328Y497791D01*
X217875Y498884D01*
X218184Y498724D01*
X218474Y498548D01*
X218745Y498357D01*
X218997Y498151D01*
X219230Y497929D01*
X219444Y497692D01*
X219639Y497439D01*
X219815Y497171D01*
X219971Y496890D01*
X220106Y496597D01*
X220220Y496294D01*
X220314Y495980D01*
X220387Y495654D01*
X220438Y495318D01*
X220470Y494970D01*
X220480Y494611D01*
X220470Y494245D01*
X220441Y493891D01*
X220393Y493549D01*
X220325Y493220D01*
X220238Y492904D01*
X220131Y492600D01*
X220006Y492309D01*
X219860Y492030D01*
X219697Y491766D01*
X219517Y491518D01*
X219321Y491286D01*
X219107Y491071D01*
X218878Y490871D01*
X218631Y490688D01*
X218368Y490521D01*
X218088Y490370D01*
X217794Y490237D01*
X217486Y490121D01*
X217165Y490023D01*
X216830Y489942D01*
X216483Y489880D01*
X216122Y489835D01*
X215748Y489809D01*
X215360Y489800D01*
G37*
G36*
X210472Y460728D02*
X210472Y462136D01*
X217419Y464867D01*
X219163Y465456D01*
X217419Y466044D01*
X210472Y468761D01*
X210472Y470169D01*
X220340Y466142D01*
X220340Y464755D01*
X210472Y460728D01*
G37*
G36*
X211564Y480643D02*
X210472Y480643D01*
X210472Y488754D01*
X211564Y488754D01*
X211564Y485364D01*
X220340Y485364D01*
X220340Y484033D01*
X211564Y484033D01*
X211564Y480643D01*
G37*
G36*
X195340Y490248D02*
X185472Y490248D01*
X185472Y493512D01*
X185491Y494121D01*
X185550Y494694D01*
X185648Y495231D01*
X185786Y495733D01*
X185963Y496199D01*
X186179Y496629D01*
X186434Y497023D01*
X186729Y497381D01*
X187060Y497701D01*
X187424Y497977D01*
X187821Y498211D01*
X188251Y498403D01*
X188715Y498552D01*
X189212Y498658D01*
X189741Y498722D01*
X190304Y498743D01*
X190680Y498734D01*
X191044Y498706D01*
X191396Y498660D01*
X191736Y498595D01*
X192064Y498511D01*
X192380Y498409D01*
X192684Y498288D01*
X192976Y498148D01*
X193254Y497992D01*
X193515Y497819D01*
X193760Y497632D01*
X193987Y497429D01*
X194198Y497210D01*
X194393Y496975D01*
X194570Y496726D01*
X194731Y496460D01*
X194874Y496182D01*
X194997Y495893D01*
X195102Y495594D01*
X195188Y495284D01*
X195254Y494963D01*
X195302Y494632D01*
X195331Y494291D01*
X195340Y493939D01*
X195340Y490248D01*
G37*
%LPC*%
G36*
X194268Y491586D02*
X194268Y493785D01*
X194261Y494052D01*
X194239Y494311D01*
X194201Y494562D01*
X194149Y494805D01*
X194082Y495039D01*
X194001Y495265D01*
X193904Y495483D01*
X193792Y495693D01*
X193667Y495893D01*
X193528Y496081D01*
X193376Y496257D01*
X193211Y496421D01*
X193033Y496573D01*
X192841Y496713D01*
X192637Y496841D01*
X192419Y496958D01*
X192190Y497061D01*
X191951Y497151D01*
X191702Y497226D01*
X191442Y497288D01*
X191173Y497337D01*
X190894Y497371D01*
X190604Y497392D01*
X190304Y497399D01*
X189859Y497383D01*
X189441Y497336D01*
X189051Y497257D01*
X188687Y497147D01*
X188351Y497006D01*
X188042Y496833D01*
X187761Y496629D01*
X187506Y496394D01*
X187281Y496128D01*
X187085Y495835D01*
X186919Y495513D01*
X186784Y495164D01*
X186679Y494786D01*
X186603Y494380D01*
X186558Y493946D01*
X186543Y493484D01*
X186543Y491586D01*
X194268Y491586D01*
G37*
%LPD*%
G36*
X195340Y479904D02*
X185472Y479904D01*
X185472Y481459D01*
X193932Y486796D01*
X192749Y486733D01*
X191943Y486712D01*
X185472Y486712D01*
X185472Y487916D01*
X195340Y487916D01*
X195340Y486306D01*
X186935Y481025D01*
X187615Y481060D01*
X188784Y481095D01*
X195340Y481095D01*
X195340Y479904D01*
G37*
G36*
X190360Y468293D02*
X189777Y468313D01*
X189227Y468373D01*
X188711Y468474D01*
X188229Y468615D01*
X187782Y468796D01*
X187368Y469018D01*
X186987Y469279D01*
X186641Y469581D01*
X186333Y469920D01*
X186065Y470291D01*
X185839Y470695D01*
X185654Y471131D01*
X185510Y471600D01*
X185407Y472101D01*
X185345Y472636D01*
X185325Y473202D01*
X185333Y473602D01*
X185359Y473983D01*
X185402Y474345D01*
X185463Y474687D01*
X185541Y475010D01*
X185636Y475314D01*
X185748Y475598D01*
X185878Y475864D01*
X186027Y476112D01*
X186196Y476346D01*
X186386Y476565D01*
X186598Y476769D01*
X186829Y476959D01*
X187082Y477134D01*
X187356Y477294D01*
X187650Y477440D01*
X188028Y476165D01*
X187636Y475935D01*
X187462Y475805D01*
X187301Y475665D01*
X187155Y475515D01*
X187023Y475355D01*
X186906Y475186D01*
X186802Y475006D01*
X186712Y474815D01*
X186634Y474614D01*
X186568Y474401D01*
X186514Y474177D01*
X186471Y473941D01*
X186441Y473695D01*
X186423Y473437D01*
X186417Y473167D01*
X186433Y472753D01*
X186482Y472363D01*
X186562Y471999D01*
X186675Y471660D01*
X186821Y471346D01*
X186998Y471057D01*
X187208Y470793D01*
X187450Y470555D01*
X187722Y470343D01*
X188020Y470160D01*
X188344Y470004D01*
X188694Y469877D01*
X189071Y469778D01*
X189475Y469708D01*
X189904Y469665D01*
X190360Y469651D01*
X190816Y469666D01*
X191246Y469711D01*
X191652Y469786D01*
X192033Y469891D01*
X192390Y470026D01*
X192722Y470191D01*
X193030Y470386D01*
X193312Y470611D01*
X193566Y470862D01*
X193786Y471137D01*
X193972Y471434D01*
X194124Y471754D01*
X194242Y472098D01*
X194327Y472464D01*
X194378Y472853D01*
X194395Y473265D01*
X194376Y473740D01*
X194321Y474199D01*
X194229Y474642D01*
X194100Y475069D01*
X193940Y475467D01*
X193754Y475826D01*
X193541Y476145D01*
X193302Y476424D01*
X191523Y476424D01*
X191523Y473475D01*
X190402Y473475D01*
X190402Y477657D01*
X193806Y477657D01*
X194183Y477242D01*
X194514Y476784D01*
X194801Y476281D01*
X195042Y475734D01*
X195145Y475447D01*
X195234Y475153D01*
X195309Y474853D01*
X195371Y474548D01*
X195419Y474236D01*
X195453Y473919D01*
X195473Y473595D01*
X195480Y473265D01*
X195470Y472885D01*
X195442Y472518D01*
X195393Y472165D01*
X195326Y471824D01*
X195239Y471497D01*
X195133Y471184D01*
X195008Y470884D01*
X194864Y470597D01*
X194701Y470325D01*
X194522Y470070D01*
X194325Y469831D01*
X194112Y469608D01*
X193881Y469403D01*
X193634Y469213D01*
X193370Y469041D01*
X193088Y468884D01*
X192792Y468746D01*
X192483Y468626D01*
X192161Y468524D01*
X191827Y468441D01*
X191479Y468376D01*
X191119Y468330D01*
X190746Y468302D01*
X190360Y468293D01*
G37*
G36*
X165360Y471438D02*
X164785Y471458D01*
X164241Y471519D01*
X163730Y471620D01*
X163251Y471762D01*
X162805Y471944D01*
X162391Y472167D01*
X162009Y472430D01*
X161659Y472734D01*
X161346Y473074D01*
X161075Y473445D01*
X160846Y473848D01*
X160658Y474283D01*
X160512Y474750D01*
X160408Y475249D01*
X160345Y475779D01*
X160325Y476341D01*
X160334Y476711D01*
X160362Y477069D01*
X160409Y477414D01*
X160474Y477747D01*
X160559Y478067D01*
X160661Y478375D01*
X160783Y478670D01*
X160923Y478953D01*
X161082Y479222D01*
X161257Y479474D01*
X161449Y479710D01*
X161658Y479929D01*
X161884Y480133D01*
X162127Y480320D01*
X162387Y480490D01*
X162664Y480645D01*
X162956Y480782D01*
X163261Y480900D01*
X163578Y481001D01*
X163909Y481083D01*
X164252Y481147D01*
X164609Y481193D01*
X164978Y481220D01*
X165360Y481229D01*
X165741Y481220D01*
X166110Y481192D01*
X166467Y481146D01*
X166812Y481081D01*
X167145Y480998D01*
X167465Y480897D01*
X167774Y480776D01*
X168071Y480638D01*
X168353Y480482D01*
X168618Y480310D01*
X168867Y480121D01*
X169099Y479917D01*
X169313Y479697D01*
X169511Y479460D01*
X169693Y479208D01*
X169857Y478939D01*
X170003Y478656D01*
X170129Y478361D01*
X170237Y478053D01*
X170324Y477733D01*
X170392Y477400D01*
X170441Y477055D01*
X170470Y476697D01*
X170480Y476327D01*
X170470Y475953D01*
X170442Y475593D01*
X170393Y475245D01*
X170326Y474911D01*
X170239Y474590D01*
X170133Y474281D01*
X170008Y473986D01*
X169864Y473704D01*
X169701Y473436D01*
X169521Y473185D01*
X169324Y472950D01*
X169110Y472731D01*
X168879Y472529D01*
X168630Y472343D01*
X168364Y472173D01*
X168081Y472019D01*
X167784Y471883D01*
X167474Y471765D01*
X167152Y471665D01*
X166818Y471583D01*
X166472Y471520D01*
X166113Y471474D01*
X165743Y471447D01*
X165360Y471438D01*
G37*
%LPC*%
G36*
X165360Y472797D02*
X165812Y472811D01*
X166240Y472855D01*
X166644Y472928D01*
X167025Y473031D01*
X167381Y473162D01*
X167713Y473323D01*
X168021Y473513D01*
X168305Y473732D01*
X168561Y473977D01*
X168782Y474245D01*
X168969Y474535D01*
X169122Y474848D01*
X169241Y475184D01*
X169326Y475542D01*
X169378Y475923D01*
X169395Y476327D01*
X169378Y476742D01*
X169329Y477132D01*
X169246Y477497D01*
X169131Y477837D01*
X168983Y478152D01*
X168802Y478443D01*
X168587Y478709D01*
X168340Y478950D01*
X168063Y479164D01*
X167759Y479350D01*
X167427Y479507D01*
X167068Y479635D01*
X166682Y479735D01*
X166269Y479807D01*
X165828Y479849D01*
X165360Y479864D01*
X164912Y479849D01*
X164489Y479806D01*
X164090Y479734D01*
X163716Y479633D01*
X163367Y479504D01*
X163043Y479346D01*
X162743Y479159D01*
X162468Y478943D01*
X162222Y478701D01*
X162008Y478435D01*
X161828Y478145D01*
X161680Y477832D01*
X161565Y477495D01*
X161483Y477134D01*
X161434Y476749D01*
X161417Y476341D01*
X161433Y475929D01*
X161482Y475541D01*
X161563Y475178D01*
X161676Y474838D01*
X161822Y474523D01*
X162000Y474232D01*
X162211Y473965D01*
X162454Y473721D01*
X162726Y473505D01*
X163024Y473317D01*
X163348Y473158D01*
X163699Y473028D01*
X164075Y472927D01*
X164477Y472855D01*
X164906Y472811D01*
X165360Y472797D01*
G37*
%LPD*%
G36*
X170340Y483092D02*
X160472Y483092D01*
X160472Y490102D01*
X161564Y490102D01*
X161564Y484429D01*
X165234Y484429D01*
X165234Y489934D01*
X166341Y489934D01*
X166341Y484429D01*
X170340Y484429D01*
X170340Y483092D01*
G37*
G36*
X170340Y491842D02*
X160472Y491842D01*
X160472Y498852D01*
X161564Y498852D01*
X161564Y493179D01*
X165234Y493179D01*
X165234Y498684D01*
X166341Y498684D01*
X166341Y493179D01*
X170340Y493179D01*
X170340Y491842D01*
G37*
G36*
X271340Y479904D02*
X261472Y479904D01*
X261472Y481459D01*
X269932Y486796D01*
X268749Y486733D01*
X267943Y486712D01*
X261472Y486712D01*
X261472Y487916D01*
X271340Y487916D01*
X271340Y486306D01*
X262935Y481025D01*
X263615Y481060D01*
X264784Y481095D01*
X271340Y481095D01*
X271340Y479904D01*
G37*
G36*
X266360Y489800D02*
X265786Y489820D01*
X265244Y489879D01*
X264734Y489979D01*
X264256Y490118D01*
X263809Y490298D01*
X263395Y490517D01*
X263013Y490776D01*
X262662Y491074D01*
X262349Y491408D01*
X262077Y491773D01*
X261847Y492168D01*
X261659Y492594D01*
X261513Y493051D01*
X261408Y493538D01*
X261346Y494056D01*
X261325Y494604D01*
X261334Y494990D01*
X261363Y495360D01*
X261411Y495713D01*
X261479Y496051D01*
X261565Y496372D01*
X261671Y496676D01*
X261796Y496965D01*
X261941Y497238D01*
X262104Y497493D01*
X262286Y497731D01*
X262487Y497952D01*
X262706Y498155D01*
X262944Y498341D01*
X263200Y498509D01*
X263475Y498659D01*
X263769Y498793D01*
X264189Y497525D01*
X263980Y497433D01*
X263784Y497327D01*
X263600Y497209D01*
X263429Y497077D01*
X263271Y496933D01*
X263125Y496776D01*
X262993Y496605D01*
X262872Y496422D01*
X262766Y496227D01*
X262673Y496024D01*
X262595Y495812D01*
X262531Y495591D01*
X262481Y495361D01*
X262446Y495122D01*
X262424Y494875D01*
X262417Y494618D01*
X262434Y494220D01*
X262483Y493844D01*
X262565Y493492D01*
X262681Y493161D01*
X262829Y492854D01*
X263010Y492570D01*
X263224Y492308D01*
X263471Y492069D01*
X263747Y491855D01*
X264047Y491671D01*
X264372Y491514D01*
X264721Y491386D01*
X265094Y491286D01*
X265492Y491215D01*
X265914Y491173D01*
X266360Y491158D01*
X266803Y491173D01*
X267223Y491218D01*
X267621Y491292D01*
X267997Y491396D01*
X268350Y491529D01*
X268681Y491692D01*
X268991Y491885D01*
X269277Y492107D01*
X269536Y492355D01*
X269760Y492624D01*
X269950Y492913D01*
X270105Y493224D01*
X270225Y493555D01*
X270312Y493907D01*
X270363Y494280D01*
X270381Y494674D01*
X270372Y494929D01*
X270348Y495176D01*
X270308Y495416D01*
X270252Y495646D01*
X270180Y495869D01*
X270092Y496084D01*
X269988Y496291D01*
X269867Y496490D01*
X269731Y496681D01*
X269579Y496864D01*
X269411Y497038D01*
X269226Y497205D01*
X268809Y497514D01*
X268328Y497791D01*
X268875Y498884D01*
X269184Y498724D01*
X269474Y498548D01*
X269745Y498357D01*
X269997Y498151D01*
X270230Y497929D01*
X270444Y497692D01*
X270639Y497439D01*
X270815Y497171D01*
X270971Y496890D01*
X271106Y496597D01*
X271220Y496294D01*
X271314Y495980D01*
X271387Y495654D01*
X271438Y495318D01*
X271470Y494970D01*
X271480Y494611D01*
X271470Y494245D01*
X271441Y493891D01*
X271393Y493549D01*
X271325Y493220D01*
X271238Y492904D01*
X271131Y492600D01*
X271006Y492309D01*
X270860Y492030D01*
X270697Y491766D01*
X270517Y491518D01*
X270321Y491286D01*
X270107Y491071D01*
X269878Y490871D01*
X269631Y490688D01*
X269368Y490521D01*
X269088Y490370D01*
X268794Y490237D01*
X268486Y490121D01*
X268165Y490023D01*
X267830Y489942D01*
X267483Y489880D01*
X267122Y489835D01*
X266748Y489809D01*
X266360Y489800D01*
G37*
G36*
X649406Y301762D02*
X648895Y304109D01*
X649293Y304207D01*
X649666Y304329D01*
X650013Y304474D01*
X650335Y304643D01*
X650631Y304835D01*
X650902Y305051D01*
X651147Y305290D01*
X651367Y305552D01*
X651563Y305840D01*
X651738Y306155D01*
X651890Y306497D01*
X652020Y306866D01*
X652128Y307262D01*
X652214Y307685D01*
X652271Y308082D01*
X652278Y308134D01*
X652320Y308611D01*
X645471Y308611D01*
X645175Y307484D01*
X644894Y306545D01*
X644767Y306184D01*
X644629Y305795D01*
X644503Y305491D01*
X644380Y305235D01*
X644129Y304791D01*
X643860Y304392D01*
X643573Y304039D01*
X643268Y303730D01*
X642948Y303463D01*
X642617Y303236D01*
X642275Y303049D01*
X641922Y302901D01*
X641545Y302789D01*
X641131Y302709D01*
X640682Y302662D01*
X640196Y302646D01*
X639932Y302652D01*
X639675Y302670D01*
X639184Y302743D01*
X638721Y302864D01*
X638288Y303034D01*
X637884Y303252D01*
X637509Y303519D01*
X637164Y303835D01*
X636847Y304199D01*
X636562Y304608D01*
X636310Y305057D01*
X636093Y305548D01*
X635910Y306079D01*
X635760Y306651D01*
X635644Y307263D01*
X635562Y307917D01*
X635514Y308611D01*
X633705Y308611D01*
X633705Y310324D01*
X635514Y310324D01*
X635560Y310951D01*
X635634Y311541D01*
X635737Y312095D01*
X635868Y312612D01*
X636028Y313093D01*
X636217Y313537D01*
X636435Y313944D01*
X636681Y314314D01*
X636960Y314654D01*
X637275Y314967D01*
X637627Y315254D01*
X638015Y315516D01*
X638440Y315751D01*
X638901Y315961D01*
X639399Y316145D01*
X639933Y316303D01*
X640389Y313900D01*
X640073Y313822D01*
X639776Y313727D01*
X639496Y313613D01*
X639234Y313482D01*
X638990Y313334D01*
X638764Y313167D01*
X638556Y312983D01*
X638366Y312782D01*
X638194Y312559D01*
X638039Y312312D01*
X637903Y312041D01*
X637784Y311746D01*
X637684Y311427D01*
X637601Y311083D01*
X637536Y310715D01*
X637489Y310324D01*
X643634Y310324D01*
X643918Y311470D01*
X644190Y312438D01*
X644450Y313227D01*
X644697Y313838D01*
X644947Y314332D01*
X645212Y314772D01*
X645492Y315157D01*
X645788Y315488D01*
X646106Y315774D01*
X646451Y316023D01*
X646824Y316236D01*
X647224Y316413D01*
X647657Y316552D01*
X648126Y316652D01*
X648630Y316711D01*
X649172Y316731D01*
X649453Y316724D01*
X649727Y316705D01*
X649994Y316672D01*
X650255Y316627D01*
X650508Y316568D01*
X650754Y316496D01*
X651226Y316313D01*
X651669Y316078D01*
X652084Y315791D01*
X652472Y315452D01*
X652831Y315060D01*
X653157Y314621D01*
X653445Y314137D01*
X653694Y313611D01*
X653905Y313040D01*
X654077Y312427D01*
X654211Y311769D01*
X654307Y311068D01*
X654364Y310324D01*
X656601Y310324D01*
X656601Y308611D01*
X654364Y308611D01*
X654315Y307895D01*
X654232Y307217D01*
X654114Y306578D01*
X653961Y305977D01*
X653773Y305415D01*
X653550Y304890D01*
X653293Y304405D01*
X653000Y303957D01*
X652673Y303549D01*
X652311Y303178D01*
X651914Y302846D01*
X651482Y302552D01*
X651015Y302297D01*
X650514Y302080D01*
X649978Y301902D01*
X649406Y301762D01*
G37*
%LPC*%
G36*
X652334Y310324D02*
X652292Y310796D01*
X652272Y310938D01*
X652229Y311241D01*
X652146Y311657D01*
X652040Y312044D01*
X651914Y312404D01*
X651767Y312735D01*
X651598Y313038D01*
X651409Y313313D01*
X651199Y313558D01*
X650970Y313769D01*
X650723Y313949D01*
X650456Y314095D01*
X650170Y314209D01*
X649865Y314291D01*
X649542Y314340D01*
X649199Y314356D01*
X648770Y314333D01*
X648381Y314266D01*
X648031Y314154D01*
X647722Y313997D01*
X647444Y313797D01*
X647192Y313558D01*
X646964Y313280D01*
X646762Y312961D01*
X646564Y312542D01*
X646349Y311963D01*
X646118Y311224D01*
X645871Y310324D01*
X652334Y310324D01*
G37*
G36*
X640168Y305021D02*
X640560Y305042D01*
X640921Y305107D01*
X641250Y305215D01*
X641549Y305366D01*
X641558Y305372D01*
X641821Y305560D01*
X642070Y305796D01*
X642297Y306074D01*
X642502Y306395D01*
X642695Y306790D01*
X642888Y307291D01*
X643082Y307898D01*
X643275Y308611D01*
X637461Y308611D01*
X637495Y308176D01*
X637546Y307770D01*
X637615Y307391D01*
X637703Y307040D01*
X637809Y306718D01*
X637933Y306423D01*
X638075Y306157D01*
X638235Y305918D01*
X638413Y305708D01*
X638609Y305526D01*
X638824Y305371D01*
X639056Y305245D01*
X639307Y305147D01*
X639576Y305077D01*
X639863Y305035D01*
X640168Y305021D01*
G37*
%LPD*%
G36*
X647570Y283202D02*
X635183Y283202D01*
X635183Y285840D01*
X647349Y285840D01*
X647995Y285861D01*
X648601Y285924D01*
X649167Y286030D01*
X649693Y286178D01*
X650179Y286369D01*
X650624Y286601D01*
X651030Y286876D01*
X651395Y287193D01*
X651719Y287550D01*
X651999Y287945D01*
X652236Y288377D01*
X652431Y288847D01*
X652582Y289354D01*
X652689Y289899D01*
X652754Y290481D01*
X652776Y291101D01*
X652753Y291739D01*
X652686Y292340D01*
X652575Y292905D01*
X652418Y293433D01*
X652217Y293925D01*
X651972Y294380D01*
X651682Y294799D01*
X651347Y295182D01*
X650969Y295523D01*
X650549Y295819D01*
X650089Y296070D01*
X649588Y296274D01*
X649045Y296434D01*
X648461Y296548D01*
X647836Y296616D01*
X647169Y296639D01*
X635183Y296639D01*
X635183Y299262D01*
X647321Y299262D01*
X647901Y299247D01*
X648461Y299200D01*
X649001Y299122D01*
X649520Y299012D01*
X650019Y298871D01*
X650498Y298699D01*
X650957Y298496D01*
X651395Y298261D01*
X651810Y297998D01*
X652201Y297709D01*
X652566Y297394D01*
X652905Y297053D01*
X653220Y296686D01*
X653509Y296293D01*
X653773Y295875D01*
X654012Y295430D01*
X654224Y294963D01*
X654407Y294475D01*
X654563Y293966D01*
X654690Y293437D01*
X654789Y292887D01*
X654860Y292317D01*
X654902Y291726D01*
X654916Y291115D01*
X654903Y290527D01*
X654862Y289959D01*
X654794Y289409D01*
X654699Y288878D01*
X654576Y288366D01*
X654427Y287873D01*
X654250Y287399D01*
X654046Y286945D01*
X653816Y286512D01*
X653562Y286104D01*
X653283Y285721D01*
X652979Y285363D01*
X652651Y285031D01*
X652299Y284723D01*
X651921Y284440D01*
X651519Y284183D01*
X651095Y283953D01*
X650651Y283754D01*
X650187Y283585D01*
X649703Y283447D01*
X649200Y283340D01*
X648676Y283264D01*
X648133Y283218D01*
X647570Y283202D01*
G37*
G36*
X654640Y319331D02*
X652527Y319331D01*
X652527Y324288D01*
X637558Y324288D01*
X640693Y319897D01*
X638345Y319897D01*
X635183Y324496D01*
X635183Y326788D01*
X652527Y326788D01*
X652527Y331525D01*
X654640Y331525D01*
X654640Y319331D01*
G37*
G36*
X727693Y406099D02*
X727368Y407588D01*
X727621Y407651D01*
X727857Y407728D01*
X728078Y407820D01*
X728282Y407927D01*
X728469Y408049D01*
X728641Y408185D01*
X728797Y408337D01*
X728936Y408504D01*
X729061Y408686D01*
X729171Y408886D01*
X729268Y409103D01*
X729350Y409337D01*
X729419Y409588D01*
X729473Y409856D01*
X729509Y410108D01*
X729514Y410141D01*
X729541Y410444D01*
X725196Y410444D01*
X725009Y409728D01*
X724831Y409133D01*
X724750Y408904D01*
X724663Y408658D01*
X724504Y408302D01*
X724345Y408021D01*
X724175Y407768D01*
X723993Y407544D01*
X723799Y407348D01*
X723597Y407178D01*
X723387Y407034D01*
X723170Y406916D01*
X722945Y406822D01*
X722706Y406751D01*
X722444Y406700D01*
X722159Y406670D01*
X721851Y406660D01*
X721520Y406675D01*
X721209Y406722D01*
X720916Y406799D01*
X720641Y406906D01*
X720385Y407045D01*
X720147Y407214D01*
X719927Y407414D01*
X719727Y407645D01*
X719546Y407905D01*
X719386Y408190D01*
X719249Y408501D01*
X719132Y408838D01*
X719037Y409200D01*
X718964Y409589D01*
X718912Y410003D01*
X718881Y410444D01*
X717734Y410444D01*
X717734Y411530D01*
X718881Y411530D01*
X718910Y411928D01*
X718957Y412302D01*
X719022Y412653D01*
X719106Y412981D01*
X719207Y413286D01*
X719327Y413568D01*
X719465Y413826D01*
X719622Y414061D01*
X719798Y414276D01*
X719998Y414475D01*
X720222Y414657D01*
X720468Y414823D01*
X720737Y414972D01*
X721030Y415105D01*
X721345Y415222D01*
X721684Y415322D01*
X721973Y413798D01*
X721584Y413688D01*
X721241Y413533D01*
X720943Y413333D01*
X720690Y413089D01*
X720581Y412948D01*
X720483Y412791D01*
X720396Y412619D01*
X720321Y412432D01*
X720257Y412229D01*
X720205Y412011D01*
X720164Y411778D01*
X720134Y411530D01*
X724031Y411530D01*
X724212Y412257D01*
X724384Y412871D01*
X724549Y413371D01*
X724706Y413759D01*
X724864Y414072D01*
X725032Y414351D01*
X725210Y414596D01*
X725398Y414805D01*
X725599Y414987D01*
X725818Y415145D01*
X726055Y415280D01*
X726309Y415392D01*
X726583Y415480D01*
X726880Y415543D01*
X727200Y415581D01*
X727544Y415594D01*
X727896Y415577D01*
X728231Y415527D01*
X728547Y415445D01*
X728846Y415329D01*
X729128Y415180D01*
X729391Y414998D01*
X729637Y414782D01*
X729865Y414534D01*
X730071Y414255D01*
X730254Y413949D01*
X730412Y413615D01*
X730546Y413253D01*
X730655Y412864D01*
X730740Y412447D01*
X730801Y412002D01*
X730837Y411530D01*
X732256Y411530D01*
X732256Y410444D01*
X730837Y410444D01*
X730806Y409989D01*
X730753Y409560D01*
X730678Y409154D01*
X730581Y408773D01*
X730462Y408416D01*
X730321Y408084D01*
X730157Y407776D01*
X729972Y407492D01*
X729764Y407233D01*
X729535Y406998D01*
X729283Y406787D01*
X729009Y406601D01*
X728713Y406439D01*
X728395Y406301D01*
X728055Y406188D01*
X727693Y406099D01*
G37*
%LPC*%
G36*
X729549Y411530D02*
X729523Y411830D01*
X729510Y411919D01*
X729483Y412111D01*
X729430Y412375D01*
X729363Y412621D01*
X729283Y412849D01*
X729190Y413059D01*
X729083Y413252D01*
X728963Y413426D01*
X728830Y413581D01*
X728684Y413715D01*
X728527Y413829D01*
X728358Y413922D01*
X728177Y413994D01*
X727984Y414046D01*
X727778Y414077D01*
X727561Y414087D01*
X727289Y414073D01*
X727042Y414030D01*
X726821Y413959D01*
X726624Y413860D01*
X726448Y413733D01*
X726288Y413581D01*
X726144Y413405D01*
X726015Y413203D01*
X725890Y412937D01*
X725754Y412570D01*
X725607Y412101D01*
X725450Y411530D01*
X729549Y411530D01*
G37*
G36*
X721833Y408166D02*
X722082Y408180D01*
X722310Y408221D01*
X722520Y408290D01*
X722709Y408385D01*
X722714Y408389D01*
X722881Y408508D01*
X723040Y408658D01*
X723184Y408835D01*
X723313Y409038D01*
X723436Y409288D01*
X723559Y409606D01*
X723681Y409991D01*
X723804Y410444D01*
X720116Y410444D01*
X720137Y410168D01*
X720170Y409910D01*
X720214Y409670D01*
X720270Y409447D01*
X720337Y409243D01*
X720415Y409056D01*
X720505Y408887D01*
X720607Y408736D01*
X720720Y408602D01*
X720844Y408487D01*
X720980Y408389D01*
X721128Y408309D01*
X721287Y408247D01*
X721458Y408202D01*
X721640Y408175D01*
X721833Y408166D01*
G37*
%LPD*%
G36*
X726528Y394322D02*
X718671Y394322D01*
X718671Y395995D01*
X726388Y395995D01*
X726797Y396008D01*
X727182Y396048D01*
X727541Y396115D01*
X727874Y396209D01*
X728182Y396330D01*
X728465Y396478D01*
X728722Y396652D01*
X728954Y396853D01*
X729159Y397080D01*
X729337Y397330D01*
X729487Y397604D01*
X729611Y397902D01*
X729706Y398224D01*
X729775Y398569D01*
X729816Y398939D01*
X729830Y399332D01*
X729815Y399736D01*
X729773Y400118D01*
X729702Y400476D01*
X729603Y400811D01*
X729476Y401123D01*
X729320Y401412D01*
X729136Y401677D01*
X728923Y401920D01*
X728683Y402136D01*
X728418Y402324D01*
X728126Y402483D01*
X727807Y402613D01*
X727463Y402714D01*
X727093Y402786D01*
X726696Y402829D01*
X726274Y402844D01*
X718671Y402844D01*
X718671Y404508D01*
X726370Y404508D01*
X726738Y404498D01*
X727093Y404468D01*
X727435Y404419D01*
X727765Y404349D01*
X728081Y404260D01*
X728385Y404151D01*
X728676Y404022D01*
X728954Y403873D01*
X729217Y403706D01*
X729465Y403523D01*
X729696Y403323D01*
X729912Y403107D01*
X730111Y402874D01*
X730295Y402625D01*
X730462Y402359D01*
X730614Y402078D01*
X730748Y401781D01*
X730865Y401471D01*
X730963Y401149D01*
X731044Y400813D01*
X731106Y400464D01*
X731151Y400103D01*
X731178Y399728D01*
X731187Y399340D01*
X731179Y398968D01*
X731153Y398607D01*
X731110Y398258D01*
X731049Y397922D01*
X730972Y397597D01*
X730877Y397284D01*
X730765Y396984D01*
X730635Y396695D01*
X730490Y396421D01*
X730328Y396162D01*
X730151Y395919D01*
X729959Y395693D01*
X729751Y395482D01*
X729527Y395286D01*
X729288Y395107D01*
X729033Y394944D01*
X728764Y394798D01*
X728482Y394672D01*
X728188Y394565D01*
X727881Y394477D01*
X727561Y394409D01*
X727229Y394361D01*
X726885Y394332D01*
X726528Y394322D01*
G37*
G36*
X731012Y416778D02*
X729900Y416778D01*
X729402Y417013D01*
X728935Y417274D01*
X728498Y417559D01*
X728091Y417868D01*
X727708Y418194D01*
X727344Y418528D01*
X726999Y418871D01*
X726672Y419221D01*
X726060Y419927D01*
X725494Y420627D01*
X724951Y421289D01*
X724408Y421884D01*
X724133Y422151D01*
X723852Y422391D01*
X723564Y422604D01*
X723269Y422790D01*
X722962Y422942D01*
X722634Y423050D01*
X722287Y423115D01*
X721921Y423136D01*
X721674Y423127D01*
X721441Y423099D01*
X721223Y423053D01*
X721019Y422987D01*
X720829Y422904D01*
X720653Y422801D01*
X720491Y422680D01*
X720344Y422541D01*
X720213Y422385D01*
X720099Y422214D01*
X720003Y422029D01*
X719924Y421829D01*
X719862Y421615D01*
X719819Y421386D01*
X719792Y421143D01*
X719784Y420885D01*
X719792Y420639D01*
X719818Y420404D01*
X719861Y420180D01*
X719920Y419967D01*
X719997Y419765D01*
X720091Y419574D01*
X720203Y419394D01*
X720331Y419226D01*
X720475Y419071D01*
X720632Y418933D01*
X720804Y418812D01*
X720989Y418708D01*
X721188Y418620D01*
X721401Y418550D01*
X721628Y418496D01*
X721868Y418459D01*
X721719Y416848D01*
X721359Y416906D01*
X721017Y416992D01*
X720694Y417107D01*
X720390Y417249D01*
X720105Y417421D01*
X719839Y417620D01*
X719592Y417848D01*
X719363Y418105D01*
X719158Y418385D01*
X718980Y418684D01*
X718829Y419003D01*
X718706Y419341D01*
X718610Y419698D01*
X718542Y420074D01*
X718501Y420470D01*
X718487Y420885D01*
X718501Y421338D01*
X718542Y421764D01*
X718611Y422163D01*
X718707Y422535D01*
X718831Y422880D01*
X718982Y423198D01*
X719161Y423490D01*
X719368Y423754D01*
X719599Y423989D01*
X719854Y424193D01*
X720132Y424365D01*
X720433Y424506D01*
X720757Y424616D01*
X721104Y424694D01*
X721475Y424741D01*
X721868Y424757D01*
X722227Y424736D01*
X722584Y424675D01*
X722940Y424572D01*
X723296Y424428D01*
X723650Y424244D01*
X724005Y424020D01*
X724360Y423756D01*
X724715Y423452D01*
X725118Y423054D01*
X725619Y422508D01*
X726217Y421814D01*
X726913Y420973D01*
X727315Y420495D01*
X727696Y420069D01*
X728057Y419694D01*
X728398Y419370D01*
X728725Y419093D01*
X729047Y418858D01*
X729362Y418664D01*
X729672Y418512D01*
X729672Y424949D01*
X731012Y424949D01*
X731012Y416778D01*
G37*
G36*
X679781Y43561D02*
X679456Y45050D01*
X679709Y45113D01*
X679945Y45190D01*
X680166Y45282D01*
X680370Y45389D01*
X680557Y45511D01*
X680729Y45647D01*
X680885Y45799D01*
X681024Y45966D01*
X681149Y46148D01*
X681259Y46348D01*
X681356Y46565D01*
X681438Y46799D01*
X681507Y47050D01*
X681561Y47318D01*
X681597Y47570D01*
X681602Y47603D01*
X681629Y47906D01*
X677284Y47906D01*
X677097Y47190D01*
X676919Y46595D01*
X676838Y46366D01*
X676751Y46120D01*
X676592Y45764D01*
X676433Y45483D01*
X676263Y45230D01*
X676081Y45006D01*
X675887Y44810D01*
X675685Y44640D01*
X675475Y44496D01*
X675258Y44378D01*
X675033Y44284D01*
X674794Y44213D01*
X674532Y44162D01*
X674247Y44132D01*
X673939Y44122D01*
X673608Y44137D01*
X673297Y44184D01*
X673004Y44261D01*
X672729Y44368D01*
X672473Y44507D01*
X672235Y44676D01*
X672015Y44876D01*
X671815Y45107D01*
X671634Y45367D01*
X671474Y45652D01*
X671337Y45963D01*
X671220Y46300D01*
X671125Y46662D01*
X671052Y47051D01*
X671000Y47465D01*
X670969Y47906D01*
X669822Y47906D01*
X669822Y48992D01*
X670969Y48992D01*
X670998Y49390D01*
X671045Y49764D01*
X671110Y50115D01*
X671194Y50443D01*
X671295Y50748D01*
X671415Y51030D01*
X671553Y51288D01*
X671710Y51523D01*
X671886Y51738D01*
X672086Y51937D01*
X672310Y52119D01*
X672556Y52285D01*
X672825Y52434D01*
X673118Y52567D01*
X673433Y52684D01*
X673772Y52784D01*
X674061Y51260D01*
X673672Y51150D01*
X673329Y50995D01*
X673031Y50795D01*
X672778Y50551D01*
X672669Y50410D01*
X672571Y50253D01*
X672484Y50081D01*
X672409Y49894D01*
X672345Y49691D01*
X672293Y49473D01*
X672252Y49240D01*
X672222Y48992D01*
X676119Y48992D01*
X676300Y49719D01*
X676472Y50333D01*
X676637Y50833D01*
X676794Y51221D01*
X676952Y51534D01*
X677120Y51813D01*
X677298Y52058D01*
X677486Y52267D01*
X677687Y52449D01*
X677906Y52607D01*
X678143Y52742D01*
X678397Y52854D01*
X678671Y52942D01*
X678968Y53005D01*
X679288Y53043D01*
X679632Y53056D01*
X679984Y53039D01*
X680319Y52989D01*
X680635Y52907D01*
X680934Y52791D01*
X681216Y52642D01*
X681479Y52460D01*
X681725Y52244D01*
X681953Y51996D01*
X682159Y51717D01*
X682342Y51411D01*
X682500Y51077D01*
X682634Y50715D01*
X682743Y50326D01*
X682828Y49909D01*
X682889Y49464D01*
X682925Y48992D01*
X684344Y48992D01*
X684344Y47906D01*
X682925Y47906D01*
X682894Y47451D01*
X682841Y47022D01*
X682766Y46616D01*
X682669Y46235D01*
X682550Y45878D01*
X682409Y45546D01*
X682245Y45238D01*
X682060Y44954D01*
X681852Y44695D01*
X681623Y44460D01*
X681371Y44249D01*
X681097Y44063D01*
X680801Y43901D01*
X680483Y43763D01*
X680143Y43650D01*
X679781Y43561D01*
G37*
%LPC*%
G36*
X681637Y48992D02*
X681611Y49292D01*
X681598Y49381D01*
X681571Y49573D01*
X681518Y49837D01*
X681451Y50083D01*
X681371Y50311D01*
X681278Y50521D01*
X681171Y50714D01*
X681051Y50888D01*
X680918Y51043D01*
X680772Y51177D01*
X680615Y51291D01*
X680446Y51384D01*
X680265Y51456D01*
X680072Y51508D01*
X679866Y51539D01*
X679649Y51549D01*
X679377Y51535D01*
X679130Y51492D01*
X678909Y51421D01*
X678712Y51322D01*
X678536Y51195D01*
X678376Y51043D01*
X678232Y50867D01*
X678103Y50665D01*
X677978Y50399D01*
X677842Y50032D01*
X677695Y49563D01*
X677538Y48992D01*
X681637Y48992D01*
G37*
G36*
X673921Y45628D02*
X674170Y45642D01*
X674398Y45683D01*
X674608Y45752D01*
X674797Y45847D01*
X674802Y45851D01*
X674969Y45970D01*
X675128Y46120D01*
X675272Y46297D01*
X675401Y46500D01*
X675524Y46750D01*
X675647Y47068D01*
X675769Y47453D01*
X675892Y47906D01*
X672204Y47906D01*
X672225Y47630D01*
X672258Y47372D01*
X672302Y47132D01*
X672358Y46909D01*
X672425Y46705D01*
X672503Y46518D01*
X672593Y46349D01*
X672695Y46198D01*
X672808Y46064D01*
X672932Y45949D01*
X673068Y45851D01*
X673216Y45771D01*
X673375Y45709D01*
X673546Y45664D01*
X673728Y45637D01*
X673921Y45628D01*
G37*
%LPD*%
G36*
X678616Y31784D02*
X670759Y31784D01*
X670759Y33457D01*
X678476Y33457D01*
X678885Y33470D01*
X679270Y33510D01*
X679629Y33577D01*
X679962Y33671D01*
X680270Y33792D01*
X680553Y33940D01*
X680810Y34114D01*
X681042Y34315D01*
X681247Y34542D01*
X681425Y34792D01*
X681575Y35066D01*
X681699Y35364D01*
X681794Y35686D01*
X681863Y36031D01*
X681904Y36401D01*
X681918Y36794D01*
X681903Y37198D01*
X681861Y37580D01*
X681790Y37938D01*
X681691Y38273D01*
X681564Y38585D01*
X681408Y38874D01*
X681224Y39139D01*
X681011Y39382D01*
X680771Y39598D01*
X680506Y39786D01*
X680214Y39945D01*
X679895Y40075D01*
X679551Y40176D01*
X679181Y40248D01*
X678784Y40291D01*
X678362Y40306D01*
X670759Y40306D01*
X670759Y41970D01*
X678458Y41970D01*
X678826Y41960D01*
X679181Y41930D01*
X679523Y41881D01*
X679853Y41811D01*
X680169Y41722D01*
X680473Y41613D01*
X680764Y41484D01*
X681042Y41335D01*
X681305Y41168D01*
X681553Y40985D01*
X681784Y40785D01*
X682000Y40569D01*
X682199Y40336D01*
X682383Y40087D01*
X682550Y39821D01*
X682702Y39540D01*
X682836Y39243D01*
X682953Y38933D01*
X683051Y38611D01*
X683132Y38275D01*
X683194Y37926D01*
X683239Y37565D01*
X683266Y37190D01*
X683275Y36802D01*
X683267Y36430D01*
X683241Y36069D01*
X683198Y35720D01*
X683137Y35384D01*
X683060Y35059D01*
X682965Y34746D01*
X682853Y34446D01*
X682723Y34157D01*
X682578Y33883D01*
X682416Y33624D01*
X682239Y33381D01*
X682047Y33155D01*
X681839Y32944D01*
X681615Y32748D01*
X681376Y32569D01*
X681121Y32406D01*
X680852Y32260D01*
X680570Y32134D01*
X680276Y32027D01*
X679969Y31939D01*
X679649Y31871D01*
X679317Y31823D01*
X678973Y31794D01*
X678616Y31784D01*
G37*
G36*
X679929Y54021D02*
X679781Y55650D01*
X680046Y55697D01*
X680294Y55761D01*
X680525Y55840D01*
X680739Y55936D01*
X680935Y56048D01*
X681115Y56176D01*
X681277Y56320D01*
X681423Y56480D01*
X681551Y56656D01*
X681662Y56848D01*
X681756Y57056D01*
X681833Y57280D01*
X681893Y57521D01*
X681936Y57777D01*
X681962Y58050D01*
X681970Y58339D01*
X681961Y58628D01*
X681934Y58902D01*
X681888Y59160D01*
X681823Y59402D01*
X681741Y59627D01*
X681640Y59837D01*
X681521Y60031D01*
X681383Y60209D01*
X681228Y60368D01*
X681054Y60506D01*
X680863Y60622D01*
X680654Y60718D01*
X680427Y60792D01*
X680183Y60845D01*
X679921Y60877D01*
X679640Y60887D01*
X679396Y60875D01*
X679164Y60839D01*
X678947Y60778D01*
X678744Y60694D01*
X678554Y60585D01*
X678378Y60451D01*
X678216Y60294D01*
X678068Y60112D01*
X677936Y59908D01*
X677821Y59682D01*
X677724Y59434D01*
X677645Y59165D01*
X677583Y58875D01*
X677539Y58563D01*
X677512Y58229D01*
X677503Y57874D01*
X677503Y56981D01*
X676137Y56981D01*
X676137Y57839D01*
X676128Y58154D01*
X676102Y58451D01*
X676058Y58730D01*
X675996Y58990D01*
X675916Y59232D01*
X675819Y59456D01*
X675704Y59662D01*
X675572Y59849D01*
X675424Y60017D01*
X675263Y60162D01*
X675087Y60284D01*
X674899Y60385D01*
X674697Y60463D01*
X674481Y60519D01*
X674252Y60552D01*
X674009Y60563D01*
X673768Y60554D01*
X673540Y60527D01*
X673325Y60481D01*
X673123Y60418D01*
X672934Y60336D01*
X672758Y60236D01*
X672595Y60117D01*
X672445Y59981D01*
X672311Y59826D01*
X672194Y59654D01*
X672096Y59465D01*
X672015Y59257D01*
X671952Y59032D01*
X671907Y58789D01*
X671881Y58529D01*
X671872Y58251D01*
X671880Y57997D01*
X671905Y57755D01*
X671947Y57525D01*
X672005Y57308D01*
X672080Y57104D01*
X672172Y56912D01*
X672281Y56732D01*
X672406Y56565D01*
X672546Y56413D01*
X672700Y56277D01*
X672868Y56158D01*
X673050Y56056D01*
X673245Y55971D01*
X673454Y55902D01*
X673676Y55851D01*
X673912Y55816D01*
X673790Y54231D01*
X673421Y54289D01*
X673074Y54375D01*
X672747Y54490D01*
X672441Y54633D01*
X672156Y54804D01*
X671891Y55004D01*
X671648Y55231D01*
X671425Y55488D01*
X671226Y55768D01*
X671053Y56067D01*
X670907Y56386D01*
X670788Y56724D01*
X670695Y57081D01*
X670628Y57458D01*
X670589Y57853D01*
X670575Y58269D01*
X670589Y58720D01*
X670629Y59145D01*
X670697Y59545D01*
X670791Y59918D01*
X670912Y60266D01*
X671061Y60588D01*
X671236Y60884D01*
X671438Y61155D01*
X671664Y61396D01*
X671912Y61605D01*
X672181Y61782D01*
X672470Y61926D01*
X672782Y62039D01*
X673114Y62119D01*
X673467Y62168D01*
X673842Y62184D01*
X674131Y62173D01*
X674406Y62142D01*
X674667Y62091D01*
X674914Y62018D01*
X675147Y61925D01*
X675367Y61812D01*
X675573Y61677D01*
X675765Y61522D01*
X675942Y61348D01*
X676105Y61154D01*
X676253Y60942D01*
X676386Y60711D01*
X676503Y60461D01*
X676606Y60193D01*
X676694Y59906D01*
X676768Y59600D01*
X676803Y59600D01*
X676850Y59936D01*
X676916Y60253D01*
X677003Y60552D01*
X677109Y60830D01*
X677235Y61090D01*
X677381Y61331D01*
X677546Y61552D01*
X677731Y61754D01*
X677932Y61935D01*
X678146Y62092D01*
X678372Y62224D01*
X678611Y62333D01*
X678863Y62417D01*
X679127Y62477D01*
X679404Y62513D01*
X679693Y62525D01*
X680108Y62508D01*
X680499Y62457D01*
X680866Y62372D01*
X681208Y62254D01*
X681527Y62101D01*
X681821Y61914D01*
X682092Y61694D01*
X682338Y61439D01*
X682558Y61153D01*
X682748Y60838D01*
X682909Y60494D01*
X683041Y60121D01*
X683143Y59719D01*
X683217Y59288D01*
X683261Y58828D01*
X683275Y58339D01*
X683262Y57882D01*
X683222Y57449D01*
X683156Y57039D01*
X683064Y56654D01*
X682945Y56292D01*
X682800Y55953D01*
X682628Y55639D01*
X682430Y55348D01*
X682206Y55083D01*
X681957Y54846D01*
X681682Y54638D01*
X681382Y54457D01*
X681057Y54306D01*
X680706Y54182D01*
X680331Y54087D01*
X679929Y54021D01*
G37*
D10*
X428038Y838200D02*
X428038Y584200D01*
X809038Y584200D01*
X809038Y838200D01*
X428038Y838200D01*
X-12700Y838200D02*
X-12700Y584200D01*
X368300Y584200D01*
X368300Y838200D01*
X-12700Y838200D01*
D11*
X-14800Y523258D02*
X-14800Y40658D01*
X-14800Y523258D02*
X10600Y548658D01*
X646700Y548658D02*
X646700Y523258D01*
X672100Y497858D01*
X634000Y15258D02*
X10600Y15258D01*
X-14800Y40658D01*
X672100Y167658D02*
X672100Y497858D01*
X672100Y167658D02*
X646700Y142258D01*
X646700Y27958D01*
X634000Y15258D01*
X646700Y548658D02*
X10600Y548658D01*
D10*
X634000Y53358D02*
X634000Y27958D01*
X634000Y53358D02*
X430800Y53358D01*
X430800Y27958D01*
X634000Y27958D01*
X415600Y27958D02*
X415600Y53358D01*
X161600Y53358D01*
X161600Y27958D01*
X415600Y27958D01*
X253000Y510558D02*
X253000Y535958D01*
X456200Y535958D01*
X456200Y510558D01*
X253000Y510558D01*
X481600Y510558D02*
X481600Y535958D01*
X481600Y510558D02*
X634000Y510558D01*
X634000Y535958D01*
X481600Y535958D01*
X227000Y535958D02*
X227000Y510558D01*
X152000Y510558D02*
X152000Y535958D01*
X152000Y510558D02*
X227000Y510558D01*
X227000Y535958D02*
X152000Y535958D01*
X317300Y446958D02*
X577300Y446958D01*
X317300Y446958D02*
X317300Y266958D01*
X577300Y266958D01*
X577300Y446958D01*
D12*
X736600Y476250D02*
X736600Y488950D01*
X742950Y495300D01*
X755650Y495300D01*
X762000Y488950D01*
X736600Y450850D02*
X742950Y444500D01*
X736600Y450850D02*
X736600Y463550D01*
X742950Y469900D01*
X755650Y469900D01*
X762000Y463550D01*
X762000Y450850D01*
X755650Y444500D01*
X742950Y469900D02*
X736600Y476250D01*
X755650Y469900D02*
X762000Y476250D01*
X762000Y488950D01*
X736600Y412750D02*
X736600Y400050D01*
X736600Y412750D02*
X742950Y419100D01*
X755650Y419100D01*
X762000Y412750D01*
X742950Y419100D02*
X736600Y425450D01*
X736600Y438150D01*
X742950Y444500D01*
X755650Y444500D01*
X762000Y438150D01*
X762000Y425450D01*
X755650Y419100D01*
X755650Y393700D02*
X742950Y393700D01*
X736600Y400050D01*
X755650Y393700D02*
X762000Y400050D01*
X762000Y412750D01*
X736600Y501650D02*
X736600Y514350D01*
X742950Y520700D01*
X755650Y520700D01*
X762000Y514350D01*
X742950Y495300D02*
X736600Y501650D01*
X755650Y495300D02*
X762000Y501650D01*
X762000Y514350D01*
D10*
X695600Y138900D02*
X695600Y38900D01*
X695600Y138900D02*
X777600Y138900D01*
X777600Y38900D01*
X695600Y38900D01*
X695600Y32900D02*
X777600Y32900D01*
X695600Y32900D02*
X695600Y38900D01*
X777600Y38900D02*
X777600Y32900D01*
D13*
X735600Y25400D02*
X735602Y25463D01*
X735608Y25525D01*
X735618Y25587D01*
X735631Y25649D01*
X735649Y25709D01*
X735670Y25768D01*
X735695Y25826D01*
X735724Y25882D01*
X735756Y25936D01*
X735791Y25988D01*
X735829Y26037D01*
X735871Y26085D01*
X735915Y26129D01*
X735963Y26171D01*
X736012Y26209D01*
X736064Y26244D01*
X736118Y26276D01*
X736174Y26305D01*
X736232Y26330D01*
X736291Y26351D01*
X736351Y26369D01*
X736413Y26382D01*
X736475Y26392D01*
X736537Y26398D01*
X736600Y26400D01*
X736663Y26398D01*
X736725Y26392D01*
X736787Y26382D01*
X736849Y26369D01*
X736909Y26351D01*
X736968Y26330D01*
X737026Y26305D01*
X737082Y26276D01*
X737136Y26244D01*
X737188Y26209D01*
X737237Y26171D01*
X737285Y26129D01*
X737329Y26085D01*
X737371Y26037D01*
X737409Y25988D01*
X737444Y25936D01*
X737476Y25882D01*
X737505Y25826D01*
X737530Y25768D01*
X737551Y25709D01*
X737569Y25649D01*
X737582Y25587D01*
X737592Y25525D01*
X737598Y25463D01*
X737600Y25400D01*
X737598Y25337D01*
X737592Y25275D01*
X737582Y25213D01*
X737569Y25151D01*
X737551Y25091D01*
X737530Y25032D01*
X737505Y24974D01*
X737476Y24918D01*
X737444Y24864D01*
X737409Y24812D01*
X737371Y24763D01*
X737329Y24715D01*
X737285Y24671D01*
X737237Y24629D01*
X737188Y24591D01*
X737136Y24556D01*
X737082Y24524D01*
X737026Y24495D01*
X736968Y24470D01*
X736909Y24449D01*
X736849Y24431D01*
X736787Y24418D01*
X736725Y24408D01*
X736663Y24402D01*
X736600Y24400D01*
X736537Y24402D01*
X736475Y24408D01*
X736413Y24418D01*
X736351Y24431D01*
X736291Y24449D01*
X736232Y24470D01*
X736174Y24495D01*
X736118Y24524D01*
X736064Y24556D01*
X736012Y24591D01*
X735963Y24629D01*
X735915Y24671D01*
X735871Y24715D01*
X735829Y24763D01*
X735791Y24812D01*
X735756Y24864D01*
X735724Y24918D01*
X735695Y24974D01*
X735670Y25032D01*
X735649Y25091D01*
X735631Y25151D01*
X735618Y25213D01*
X735608Y25275D01*
X735602Y25337D01*
X735600Y25400D01*
M02*
