G04 EAGLE Gerber RS-274X export*
G75*
%MOMM*%
%FSLAX34Y34*%
%LPD*%
%INSoldermask Top*%
%IPPOS*%
%AMOC8*
5,1,8,0,0,1.08239X$1,22.5*%
G01*
G04 Define Apertures*
%ADD10C,3.203200*%
%ADD11C,2.082800*%
%ADD12R,2.082800X2.082800*%
%ADD13C,1.727200*%
%ADD14R,2.003200X2.003200*%
%ADD15C,2.003200*%
%ADD16C,0.959600*%
D10*
X-37578Y800100D03*
X837678Y800100D03*
X723900Y-12178D03*
X203200Y-12178D03*
D11*
X796338Y825500D03*
X796338Y800100D03*
X796338Y774700D03*
X796338Y749300D03*
X796338Y698500D03*
X796338Y673100D03*
X796338Y647700D03*
X796338Y622300D03*
X440738Y596900D03*
X440738Y622300D03*
X440738Y647700D03*
X440738Y673100D03*
X440738Y749300D03*
X567738Y825500D03*
X593138Y825500D03*
X669338Y825500D03*
D12*
X643938Y825500D03*
X618538Y825500D03*
X796338Y723900D03*
X440738Y723900D03*
X796338Y596900D03*
D11*
X355600Y825500D03*
X355600Y800100D03*
X355600Y774700D03*
X355600Y749300D03*
X355600Y698500D03*
X355600Y673100D03*
X355600Y647700D03*
X355600Y622300D03*
X0Y596900D03*
X0Y622300D03*
X0Y647700D03*
X0Y673100D03*
X0Y749300D03*
X127000Y825500D03*
X152400Y825500D03*
X228600Y825500D03*
D12*
X203200Y825500D03*
X177800Y825500D03*
X355600Y723900D03*
X0Y723900D03*
X355600Y596900D03*
D11*
X316500Y523258D03*
X341900Y523258D03*
X367300Y523258D03*
X392700Y523258D03*
X418100Y523258D03*
X443500Y523258D03*
X494300Y523258D03*
X519700Y523258D03*
X545100Y523258D03*
X570500Y523258D03*
X595900Y523258D03*
X621300Y523258D03*
X621300Y40658D03*
X595900Y40658D03*
X570500Y40658D03*
X545100Y40658D03*
X519700Y40658D03*
X494300Y40658D03*
X468900Y40658D03*
X443500Y40658D03*
X402900Y40658D03*
X377500Y40658D03*
X352100Y40658D03*
X326700Y40658D03*
X301300Y40658D03*
X275900Y40658D03*
X250500Y40658D03*
X225100Y40658D03*
X199700Y40658D03*
X174300Y40658D03*
X291100Y523258D03*
X265700Y523258D03*
X164700Y523258D03*
X214700Y523258D03*
X189700Y523258D03*
D13*
X741680Y406400D02*
X756920Y406400D01*
X756920Y431800D02*
X741680Y431800D01*
X741680Y457200D02*
X756920Y457200D01*
X756920Y482600D02*
X741680Y482600D01*
X741680Y508000D02*
X756920Y508000D01*
D14*
X736600Y63900D03*
D15*
X736600Y113900D03*
D16*
X673100Y139700D03*
X368300Y241300D03*
X342900Y266700D03*
M02*
