G04 EAGLE Gerber RS-274X export*
G75*
%MOMM*%
%FSLAX34Y34*%
%LPD*%
%INTop Copper*%
%IPPOS*%
%AMOC8*
5,1,8,0,0,1.08239X$1,22.5*%
G01*
G04 Define Apertures*
%ADD10C,1.879600*%
%ADD11R,1.879600X1.879600*%
%ADD12C,1.524000*%
%ADD13R,1.800000X1.800000*%
%ADD14C,1.800000*%
%ADD15C,0.756400*%
%ADD16C,1.270000*%
%ADD17C,0.152400*%
D10*
X879320Y952800D03*
X879320Y927400D03*
X879320Y902000D03*
X879320Y876600D03*
X879320Y825800D03*
X879320Y800400D03*
X879320Y775000D03*
X879320Y749600D03*
X523720Y724200D03*
X523720Y749600D03*
X523720Y775000D03*
X523720Y800400D03*
X523720Y876600D03*
X650720Y952800D03*
X676120Y952800D03*
X752320Y952800D03*
D11*
X726920Y952800D03*
X701520Y952800D03*
X879320Y851200D03*
X523720Y851200D03*
X879320Y724200D03*
D10*
X407272Y952962D03*
X407272Y927562D03*
X407272Y902162D03*
X407272Y876762D03*
X407272Y825962D03*
X407272Y800562D03*
X407272Y775162D03*
X407272Y749762D03*
X51672Y724362D03*
X51672Y749762D03*
X51672Y775162D03*
X51672Y800562D03*
X51672Y876762D03*
X178672Y952962D03*
X204072Y952962D03*
X280272Y952962D03*
D11*
X254872Y952962D03*
X229472Y952962D03*
X407272Y851362D03*
X51672Y851362D03*
X407272Y724362D03*
D12*
X546100Y591820D02*
X546100Y576580D01*
X571500Y576580D02*
X571500Y591820D01*
X596900Y591820D02*
X596900Y576580D01*
X622300Y576580D02*
X622300Y591820D01*
X647700Y591820D02*
X647700Y576580D01*
X673100Y576580D02*
X673100Y591820D01*
X698500Y591820D02*
X698500Y576580D01*
X723900Y576580D02*
X723900Y591820D01*
X749300Y591820D02*
X749300Y576580D01*
X774700Y576580D02*
X774700Y591820D01*
X800100Y591820D02*
X800100Y576580D01*
D13*
X444900Y622300D03*
D14*
X494900Y622300D03*
D15*
X152400Y825500D03*
D16*
X127000Y825500D01*
X75738Y876762D01*
X51672Y876762D01*
D17*
X440944Y843090D02*
X440944Y720112D01*
X440944Y843090D02*
X407272Y876762D01*
X455317Y584200D02*
X546100Y584200D01*
X455317Y584200D02*
X410916Y628601D01*
X410916Y690084D01*
X440944Y720112D01*
X571500Y596900D02*
X571500Y584200D01*
X590296Y615696D02*
X679196Y615696D01*
X590296Y615696D02*
X571500Y596900D01*
X679196Y615696D02*
X861526Y798026D01*
X861526Y858806D02*
X879320Y876600D01*
X861526Y858806D02*
X861526Y798026D01*
X541997Y566674D02*
X530105Y578566D01*
X437896Y721375D02*
X437896Y820738D01*
X407272Y851362D01*
X596900Y584200D02*
X580644Y567944D01*
X580412Y567944D01*
X579142Y566674D01*
X541997Y566674D01*
X596900Y596900D02*
X612648Y612648D01*
X596900Y596900D02*
X596900Y584200D01*
X612648Y612648D02*
X681668Y612648D01*
X530105Y578566D02*
X456641Y578566D01*
X407868Y627339D01*
X407868Y691347D01*
X437896Y721375D01*
X681668Y612648D02*
X864574Y795555D01*
X875496Y851200D02*
X879320Y851200D01*
X875496Y851200D02*
X864574Y840278D01*
X864574Y795555D01*
X872289Y825800D02*
X879320Y825800D01*
X872289Y825800D02*
X867622Y821133D01*
X867622Y794292D01*
X635000Y609600D02*
X622300Y596900D01*
X622300Y584200D01*
X682930Y609600D02*
X867622Y794292D01*
X682930Y609600D02*
X635000Y609600D01*
X508000Y825500D02*
X431338Y902162D01*
X508000Y825500D02*
X508000Y710211D01*
X557444Y660767D02*
X557444Y655660D01*
X557444Y660767D02*
X508000Y710211D01*
X431338Y902162D02*
X407272Y902162D01*
D15*
X557444Y655660D03*
D17*
X673100Y595459D02*
X673100Y584200D01*
X673100Y595459D02*
X878041Y800400D01*
X879320Y800400D01*
X434848Y798386D02*
X434848Y722637D01*
X434848Y798386D02*
X407272Y825962D01*
X723900Y584200D02*
X723900Y571500D01*
X716026Y563626D01*
X540734Y563626D01*
X528842Y575518D01*
X455378Y575518D01*
X404820Y626076D01*
X404820Y692609D01*
X434848Y722637D01*
D15*
X395704Y622300D03*
D17*
X395704Y712794D01*
X407272Y724362D01*
X431800Y723900D02*
X431800Y776034D01*
X407272Y800562D01*
X900684Y710184D02*
X914400Y723900D01*
X774700Y596900D02*
X774700Y584200D01*
X774700Y596900D02*
X826516Y648716D01*
X826516Y690640D01*
X846060Y710184D01*
X900684Y710184D01*
X914400Y723900D02*
X914400Y889000D01*
X901400Y902000D01*
X879320Y902000D01*
X431800Y723900D02*
X401772Y693872D01*
X401772Y624814D01*
X454116Y572470D01*
X527580Y572470D01*
X539472Y560578D01*
X751078Y560578D01*
X774700Y584200D01*
M02*
