G04 EAGLE Gerber RS-274X export*
G75*
%MOMM*%
%FSLAX34Y34*%
%LPD*%
%INSilkscreen Top*%
%IPPOS*%
%AMOC8*
5,1,8,0,0,1.08239X$1,22.5*%
G01*
G04 Define Apertures*
%ADD10C,0.127000*%
%ADD11C,0.152400*%
%ADD12C,0.200000*%
G36*
X544751Y602488D02*
X543078Y602488D01*
X543078Y614829D01*
X548272Y614829D01*
X548776Y614814D01*
X549251Y614768D01*
X549697Y614692D01*
X550113Y614586D01*
X550501Y614449D01*
X550859Y614282D01*
X551187Y614084D01*
X551486Y613857D01*
X551753Y613601D01*
X551985Y613321D01*
X552180Y613015D01*
X552340Y612685D01*
X552465Y612330D01*
X552554Y611950D01*
X552607Y611545D01*
X552625Y611115D01*
X552607Y610688D01*
X552554Y610284D01*
X552464Y609902D01*
X552339Y609543D01*
X552179Y609206D01*
X551982Y608892D01*
X551750Y608600D01*
X551482Y608330D01*
X551183Y608088D01*
X550859Y607878D01*
X550510Y607700D01*
X550134Y607555D01*
X549733Y607442D01*
X549307Y607361D01*
X548855Y607313D01*
X548377Y607296D01*
X544751Y607296D01*
X544751Y602488D01*
G37*
%LPC*%
G36*
X548141Y608619D02*
X548480Y608629D01*
X548798Y608658D01*
X549093Y608706D01*
X549367Y608774D01*
X549619Y608861D01*
X549849Y608968D01*
X550057Y609093D01*
X550243Y609239D01*
X550407Y609403D01*
X550549Y609587D01*
X550670Y609791D01*
X550768Y610013D01*
X550845Y610255D01*
X550900Y610517D01*
X550932Y610797D01*
X550943Y611098D01*
X550932Y611387D01*
X550898Y611658D01*
X550842Y611910D01*
X550764Y612144D01*
X550663Y612359D01*
X550539Y612555D01*
X550393Y612732D01*
X550225Y612891D01*
X550034Y613031D01*
X549821Y613152D01*
X549586Y613255D01*
X549327Y613339D01*
X549047Y613405D01*
X548744Y613451D01*
X548418Y613479D01*
X548071Y613489D01*
X544751Y613489D01*
X544751Y608619D01*
X548141Y608619D01*
G37*
%LPD*%
G36*
X562676Y602488D02*
X554942Y602488D01*
X554942Y603828D01*
X558086Y603828D01*
X558086Y613322D01*
X555301Y611334D01*
X555301Y612823D01*
X558218Y614829D01*
X559671Y614829D01*
X559671Y603828D01*
X562676Y603828D01*
X562676Y602488D01*
G37*
G36*
X536641Y602313D02*
X536259Y602326D01*
X535897Y602363D01*
X535554Y602427D01*
X535232Y602515D01*
X534930Y602629D01*
X534647Y602769D01*
X534385Y602933D01*
X534142Y603123D01*
X533920Y603338D01*
X533717Y603579D01*
X533534Y603845D01*
X533371Y604136D01*
X533228Y604452D01*
X533105Y604794D01*
X533002Y605161D01*
X532918Y605553D01*
X534556Y605825D01*
X534602Y605578D01*
X534660Y605345D01*
X534730Y605126D01*
X534812Y604921D01*
X534907Y604730D01*
X535014Y604552D01*
X535134Y604389D01*
X535266Y604240D01*
X535408Y604106D01*
X535559Y603991D01*
X535719Y603893D01*
X535887Y603813D01*
X536065Y603750D01*
X536251Y603706D01*
X536446Y603679D01*
X536649Y603670D01*
X536871Y603680D01*
X537081Y603710D01*
X537278Y603758D01*
X537464Y603827D01*
X537637Y603915D01*
X537799Y604023D01*
X537948Y604150D01*
X538086Y604297D01*
X538209Y604462D01*
X538316Y604646D01*
X538406Y604848D01*
X538480Y605068D01*
X538537Y605307D01*
X538578Y605564D01*
X538603Y605838D01*
X538611Y606132D01*
X538611Y613462D01*
X536238Y613462D01*
X536238Y614829D01*
X540275Y614829D01*
X540275Y606167D01*
X540260Y605730D01*
X540215Y605317D01*
X540139Y604928D01*
X540032Y604563D01*
X539896Y604222D01*
X539729Y603904D01*
X539531Y603611D01*
X539303Y603342D01*
X539049Y603101D01*
X538772Y602892D01*
X538473Y602715D01*
X538152Y602570D01*
X537807Y602458D01*
X537441Y602377D01*
X537052Y602329D01*
X536641Y602313D01*
G37*
G36*
X429992Y674556D02*
X428906Y674556D01*
X428906Y675975D01*
X428451Y676006D01*
X428022Y676059D01*
X427616Y676134D01*
X427235Y676231D01*
X426878Y676350D01*
X426546Y676491D01*
X426238Y676655D01*
X425954Y676840D01*
X425695Y677048D01*
X425460Y677277D01*
X425249Y677529D01*
X425063Y677803D01*
X424901Y678099D01*
X424763Y678417D01*
X424650Y678757D01*
X424561Y679119D01*
X426050Y679444D01*
X426113Y679191D01*
X426190Y678955D01*
X426282Y678735D01*
X426389Y678530D01*
X426511Y678343D01*
X426647Y678171D01*
X426799Y678015D01*
X426966Y677876D01*
X427148Y677751D01*
X427348Y677641D01*
X427565Y677544D01*
X427799Y677462D01*
X428050Y677393D01*
X428318Y677339D01*
X428570Y677303D01*
X428603Y677298D01*
X428906Y677271D01*
X428906Y681616D01*
X428190Y681803D01*
X427595Y681981D01*
X427366Y682062D01*
X427120Y682149D01*
X426764Y682308D01*
X426483Y682467D01*
X426230Y682637D01*
X426006Y682819D01*
X425810Y683013D01*
X425640Y683215D01*
X425496Y683425D01*
X425378Y683642D01*
X425284Y683867D01*
X425213Y684106D01*
X425162Y684368D01*
X425132Y684653D01*
X425122Y684961D01*
X425137Y685292D01*
X425184Y685603D01*
X425261Y685896D01*
X425368Y686171D01*
X425507Y686427D01*
X425676Y686665D01*
X425876Y686885D01*
X426107Y687085D01*
X426367Y687266D01*
X426652Y687426D01*
X426963Y687563D01*
X427300Y687680D01*
X427662Y687775D01*
X428051Y687848D01*
X428465Y687900D01*
X428906Y687931D01*
X428906Y689078D01*
X429992Y689078D01*
X429992Y687931D01*
X430390Y687902D01*
X430764Y687855D01*
X431115Y687790D01*
X431443Y687706D01*
X431748Y687605D01*
X432030Y687485D01*
X432288Y687347D01*
X432523Y687190D01*
X432738Y687014D01*
X432937Y686814D01*
X433119Y686590D01*
X433285Y686344D01*
X433434Y686075D01*
X433567Y685782D01*
X433684Y685467D01*
X433784Y685128D01*
X432260Y684839D01*
X432150Y685228D01*
X431995Y685571D01*
X431795Y685869D01*
X431551Y686122D01*
X431410Y686231D01*
X431253Y686329D01*
X431081Y686416D01*
X430894Y686491D01*
X430691Y686555D01*
X430473Y686607D01*
X430240Y686648D01*
X429992Y686678D01*
X429992Y682781D01*
X430719Y682600D01*
X431333Y682428D01*
X431833Y682263D01*
X432221Y682106D01*
X432534Y681948D01*
X432813Y681780D01*
X433058Y681602D01*
X433267Y681414D01*
X433449Y681213D01*
X433607Y680994D01*
X433742Y680757D01*
X433854Y680503D01*
X433942Y680229D01*
X434005Y679932D01*
X434043Y679612D01*
X434056Y679268D01*
X434039Y678916D01*
X433989Y678581D01*
X433907Y678265D01*
X433791Y677966D01*
X433642Y677684D01*
X433460Y677421D01*
X433244Y677175D01*
X432996Y676947D01*
X432717Y676741D01*
X432411Y676558D01*
X432077Y676400D01*
X431715Y676266D01*
X431326Y676157D01*
X430909Y676072D01*
X430464Y676011D01*
X429992Y675975D01*
X429992Y674556D01*
G37*
%LPC*%
G36*
X429992Y677263D02*
X430292Y677289D01*
X430381Y677302D01*
X430573Y677329D01*
X430837Y677382D01*
X431083Y677449D01*
X431311Y677529D01*
X431521Y677622D01*
X431714Y677729D01*
X431888Y677849D01*
X432043Y677983D01*
X432177Y678128D01*
X432291Y678285D01*
X432384Y678454D01*
X432456Y678635D01*
X432508Y678828D01*
X432539Y679034D01*
X432549Y679251D01*
X432535Y679523D01*
X432492Y679770D01*
X432421Y679992D01*
X432322Y680188D01*
X432195Y680364D01*
X432043Y680524D01*
X431867Y680668D01*
X431665Y680797D01*
X431399Y680922D01*
X431032Y681058D01*
X430563Y681205D01*
X429992Y681362D01*
X429992Y677263D01*
G37*
G36*
X428906Y683008D02*
X428906Y686696D01*
X428630Y686675D01*
X428372Y686642D01*
X428132Y686598D01*
X427909Y686542D01*
X427705Y686475D01*
X427518Y686397D01*
X427349Y686307D01*
X427198Y686205D01*
X427064Y686092D01*
X426949Y685968D01*
X426851Y685832D01*
X426771Y685684D01*
X426709Y685525D01*
X426664Y685354D01*
X426637Y685172D01*
X426628Y684979D01*
X426642Y684730D01*
X426683Y684502D01*
X426752Y684293D01*
X426847Y684103D01*
X426851Y684098D01*
X426970Y683931D01*
X427120Y683772D01*
X427297Y683628D01*
X427500Y683499D01*
X427750Y683376D01*
X428068Y683254D01*
X428453Y683131D01*
X428906Y683008D01*
G37*
%LPD*%
G36*
X417802Y675625D02*
X417430Y675633D01*
X417069Y675659D01*
X416720Y675702D01*
X416384Y675763D01*
X416059Y675840D01*
X415746Y675935D01*
X415446Y676047D01*
X415157Y676177D01*
X414883Y676322D01*
X414624Y676484D01*
X414381Y676661D01*
X414155Y676853D01*
X413944Y677061D01*
X413748Y677285D01*
X413569Y677524D01*
X413406Y677779D01*
X413260Y678048D01*
X413134Y678330D01*
X413027Y678624D01*
X412939Y678931D01*
X412871Y679251D01*
X412823Y679583D01*
X412794Y679927D01*
X412784Y680284D01*
X412784Y688141D01*
X414457Y688141D01*
X414457Y680425D01*
X414470Y680015D01*
X414510Y679630D01*
X414577Y679271D01*
X414671Y678938D01*
X414792Y678630D01*
X414940Y678347D01*
X415114Y678090D01*
X415315Y677858D01*
X415542Y677653D01*
X415792Y677475D01*
X416066Y677325D01*
X416364Y677201D01*
X416686Y677106D01*
X417031Y677037D01*
X417401Y676996D01*
X417794Y676982D01*
X418198Y676997D01*
X418580Y677039D01*
X418938Y677110D01*
X419273Y677209D01*
X419585Y677337D01*
X419874Y677492D01*
X420139Y677676D01*
X420382Y677889D01*
X420598Y678129D01*
X420786Y678394D01*
X420945Y678686D01*
X421075Y679005D01*
X421176Y679349D01*
X421248Y679719D01*
X421291Y680116D01*
X421306Y680538D01*
X421306Y688141D01*
X422970Y688141D01*
X422970Y680442D01*
X422960Y680074D01*
X422930Y679719D01*
X422881Y679377D01*
X422811Y679047D01*
X422722Y678731D01*
X422613Y678427D01*
X422484Y678136D01*
X422335Y677858D01*
X422168Y677595D01*
X421985Y677347D01*
X421785Y677116D01*
X421569Y676900D01*
X421336Y676701D01*
X421087Y676517D01*
X420821Y676350D01*
X420540Y676199D01*
X420243Y676064D01*
X419933Y675948D01*
X419611Y675849D01*
X419275Y675768D01*
X418926Y675706D01*
X418565Y675661D01*
X418190Y675634D01*
X417802Y675625D01*
G37*
G36*
X443438Y675800D02*
X435704Y675800D01*
X435704Y677140D01*
X438848Y677140D01*
X438848Y686634D01*
X436063Y684646D01*
X436063Y686135D01*
X438980Y688141D01*
X440433Y688141D01*
X440433Y677140D01*
X443438Y677140D01*
X443438Y675800D01*
G37*
D10*
X511020Y965500D02*
X511020Y711500D01*
X892020Y711500D01*
X892020Y965500D01*
X511020Y965500D01*
X38972Y965662D02*
X38972Y711662D01*
X419972Y711662D01*
X419972Y965662D01*
X38972Y965662D01*
D11*
X768350Y596900D02*
X781050Y596900D01*
X787400Y590550D01*
X787400Y577850D01*
X781050Y571500D01*
X742950Y596900D02*
X736600Y590550D01*
X742950Y596900D02*
X755650Y596900D01*
X762000Y590550D01*
X762000Y577850D01*
X755650Y571500D01*
X742950Y571500D01*
X736600Y577850D01*
X762000Y590550D02*
X768350Y596900D01*
X762000Y577850D02*
X768350Y571500D01*
X781050Y571500D01*
X704850Y596900D02*
X692150Y596900D01*
X704850Y596900D02*
X711200Y590550D01*
X711200Y577850D01*
X704850Y571500D01*
X711200Y590550D02*
X717550Y596900D01*
X730250Y596900D01*
X736600Y590550D01*
X736600Y577850D01*
X730250Y571500D01*
X717550Y571500D01*
X711200Y577850D01*
X666750Y596900D02*
X660400Y590550D01*
X666750Y596900D02*
X679450Y596900D01*
X685800Y590550D01*
X685800Y577850D01*
X679450Y571500D01*
X666750Y571500D01*
X660400Y577850D01*
X685800Y590550D02*
X692150Y596900D01*
X685800Y577850D02*
X692150Y571500D01*
X704850Y571500D01*
X628650Y596900D02*
X615950Y596900D01*
X628650Y596900D02*
X635000Y590550D01*
X635000Y577850D01*
X628650Y571500D01*
X635000Y590550D02*
X641350Y596900D01*
X654050Y596900D01*
X660400Y590550D01*
X660400Y577850D01*
X654050Y571500D01*
X641350Y571500D01*
X635000Y577850D01*
X590550Y596900D02*
X584200Y590550D01*
X590550Y596900D02*
X603250Y596900D01*
X609600Y590550D01*
X609600Y577850D01*
X603250Y571500D01*
X590550Y571500D01*
X584200Y577850D01*
X609600Y590550D02*
X615950Y596900D01*
X609600Y577850D02*
X615950Y571500D01*
X628650Y571500D01*
X552450Y596900D02*
X539750Y596900D01*
X552450Y596900D02*
X558800Y590550D01*
X558800Y577850D01*
X552450Y571500D01*
X558800Y590550D02*
X565150Y596900D01*
X577850Y596900D01*
X584200Y590550D01*
X584200Y577850D01*
X577850Y571500D01*
X565150Y571500D01*
X558800Y577850D01*
X533400Y577850D02*
X533400Y590550D01*
X539750Y596900D01*
X533400Y577850D02*
X539750Y571500D01*
X552450Y571500D01*
X793750Y596900D02*
X806450Y596900D01*
X812800Y590550D01*
X812800Y577850D01*
X806450Y571500D01*
X787400Y590550D02*
X793750Y596900D01*
X787400Y577850D02*
X793750Y571500D01*
X806450Y571500D01*
D10*
X519900Y663300D02*
X419900Y663300D01*
X519900Y663300D02*
X519900Y581300D01*
X419900Y581300D01*
X419900Y663300D01*
X413900Y663300D02*
X413900Y581300D01*
X413900Y663300D02*
X419900Y663300D01*
X419900Y581300D02*
X413900Y581300D01*
D12*
X405400Y622300D02*
X405402Y622363D01*
X405408Y622425D01*
X405418Y622487D01*
X405431Y622549D01*
X405449Y622609D01*
X405470Y622668D01*
X405495Y622726D01*
X405524Y622782D01*
X405556Y622836D01*
X405591Y622888D01*
X405629Y622937D01*
X405671Y622985D01*
X405715Y623029D01*
X405763Y623071D01*
X405812Y623109D01*
X405864Y623144D01*
X405918Y623176D01*
X405974Y623205D01*
X406032Y623230D01*
X406091Y623251D01*
X406151Y623269D01*
X406213Y623282D01*
X406275Y623292D01*
X406337Y623298D01*
X406400Y623300D01*
X406463Y623298D01*
X406525Y623292D01*
X406587Y623282D01*
X406649Y623269D01*
X406709Y623251D01*
X406768Y623230D01*
X406826Y623205D01*
X406882Y623176D01*
X406936Y623144D01*
X406988Y623109D01*
X407037Y623071D01*
X407085Y623029D01*
X407129Y622985D01*
X407171Y622937D01*
X407209Y622888D01*
X407244Y622836D01*
X407276Y622782D01*
X407305Y622726D01*
X407330Y622668D01*
X407351Y622609D01*
X407369Y622549D01*
X407382Y622487D01*
X407392Y622425D01*
X407398Y622363D01*
X407400Y622300D01*
X407398Y622237D01*
X407392Y622175D01*
X407382Y622113D01*
X407369Y622051D01*
X407351Y621991D01*
X407330Y621932D01*
X407305Y621874D01*
X407276Y621818D01*
X407244Y621764D01*
X407209Y621712D01*
X407171Y621663D01*
X407129Y621615D01*
X407085Y621571D01*
X407037Y621529D01*
X406988Y621491D01*
X406936Y621456D01*
X406882Y621424D01*
X406826Y621395D01*
X406768Y621370D01*
X406709Y621349D01*
X406649Y621331D01*
X406587Y621318D01*
X406525Y621308D01*
X406463Y621302D01*
X406400Y621300D01*
X406337Y621302D01*
X406275Y621308D01*
X406213Y621318D01*
X406151Y621331D01*
X406091Y621349D01*
X406032Y621370D01*
X405974Y621395D01*
X405918Y621424D01*
X405864Y621456D01*
X405812Y621491D01*
X405763Y621529D01*
X405715Y621571D01*
X405671Y621615D01*
X405629Y621663D01*
X405591Y621712D01*
X405556Y621764D01*
X405524Y621818D01*
X405495Y621874D01*
X405470Y621932D01*
X405449Y621991D01*
X405431Y622051D01*
X405418Y622113D01*
X405408Y622175D01*
X405402Y622237D01*
X405400Y622300D01*
M02*
