G04 EAGLE Gerber RS-274X export*
G75*
%MOMM*%
%FSLAX34Y34*%
%LPD*%
%INSoldermask Top*%
%IPPOS*%
%AMOC8*
5,1,8,0,0,1.08239X$1,22.5*%
G01*
G04 Define Apertures*
%ADD10C,3.203200*%
%ADD11C,2.082800*%
%ADD12R,2.082800X2.082800*%
%ADD13C,1.727200*%
%ADD14R,2.003200X2.003200*%
%ADD15C,2.003200*%
%ADD16C,0.959600*%
D10*
X762000Y647700D03*
X926578Y927100D03*
X12700Y927100D03*
D11*
X879320Y952800D03*
X879320Y927400D03*
X879320Y902000D03*
X879320Y876600D03*
X879320Y825800D03*
X879320Y800400D03*
X879320Y775000D03*
X879320Y749600D03*
X523720Y724200D03*
X523720Y749600D03*
X523720Y775000D03*
X523720Y800400D03*
X523720Y876600D03*
X650720Y952800D03*
X676120Y952800D03*
X752320Y952800D03*
D12*
X726920Y952800D03*
X701520Y952800D03*
X879320Y851200D03*
X523720Y851200D03*
X879320Y724200D03*
D11*
X407272Y952962D03*
X407272Y927562D03*
X407272Y902162D03*
X407272Y876762D03*
X407272Y825962D03*
X407272Y800562D03*
X407272Y775162D03*
X407272Y749762D03*
X51672Y724362D03*
X51672Y749762D03*
X51672Y775162D03*
X51672Y800562D03*
X51672Y876762D03*
X178672Y952962D03*
X204072Y952962D03*
X280272Y952962D03*
D12*
X254872Y952962D03*
X229472Y952962D03*
X407272Y851362D03*
X51672Y851362D03*
X407272Y724362D03*
D13*
X546100Y591820D02*
X546100Y576580D01*
X571500Y576580D02*
X571500Y591820D01*
X596900Y591820D02*
X596900Y576580D01*
X622300Y576580D02*
X622300Y591820D01*
X647700Y591820D02*
X647700Y576580D01*
X673100Y576580D02*
X673100Y591820D01*
X698500Y591820D02*
X698500Y576580D01*
X723900Y576580D02*
X723900Y591820D01*
X749300Y591820D02*
X749300Y576580D01*
X774700Y576580D02*
X774700Y591820D01*
X800100Y591820D02*
X800100Y576580D01*
D14*
X444900Y622300D03*
D15*
X494900Y622300D03*
D16*
X152400Y825500D03*
X557444Y655660D03*
X395704Y622300D03*
M02*
